<svg width="500" height="500" viewBox="0 0 500 500" fill="none" xmlns="http://www.w3.org/2000/svg">
<g clip-path="url(#clip0_229_13)">
<rect width="500" height="500" fill="#121112"/>
<circle cx="50" cy="50" r="2" fill="#191719"/>
<circle cy="50" r="2" fill="#191719"/>
<circle cx="100" cy="50" r="2" fill="#191719"/>
<circle cx="150" cy="50" r="2" fill="#191719"/>
<circle cx="200" cy="50" r="2" fill="#191719"/>
<circle cx="250" cy="50" r="2" fill="#191719"/>
<circle cx="300" cy="50" r="2" fill="#191719"/>
<circle cx="350" cy="50" r="2" fill="#191719"/>
<circle cx="400" cy="50" r="2" fill="#191719"/>
<circle cx="450" cy="50" r="2" fill="#191719"/>
<circle cx="500" cy="50" r="2" fill="#191719"/>
<circle cx="50" cy="100" r="2" fill="#191719"/>
<circle cy="100" r="2" fill="#191719"/>
<circle cx="100" cy="100" r="2" fill="#191719"/>
<circle cx="150" cy="100" r="2" fill="#191719"/>
<circle cx="200" cy="100" r="2" fill="#191719"/>
<circle cx="250" cy="100" r="2" fill="#191719"/>
<circle cx="300" cy="100" r="2" fill="#191719"/>
<circle cx="350" cy="100" r="2" fill="#191719"/>
<circle cx="400" cy="100" r="2" fill="#191719"/>
<circle cx="450" cy="100" r="2" fill="#191719"/>
<circle cx="500" cy="100" r="2" fill="#191719"/>
<circle cx="50" cy="150" r="2" fill="#191719"/>
<circle cy="150" r="2" fill="#191719"/>
<circle cx="100" cy="150" r="2" fill="#191719"/>
<circle cx="150" cy="150" r="2" fill="#191719"/>
<circle cx="200" cy="150" r="2" fill="#191719"/>
<circle cx="250" cy="150" r="2" fill="#191719"/>
<circle cx="300" cy="150" r="2" fill="#191719"/>
<circle cx="350" cy="150" r="2" fill="#191719"/>
<circle cx="400" cy="150" r="2" fill="#191719"/>
<circle cx="450" cy="150" r="2" fill="#191719"/>
<circle cx="500" cy="150" r="2" fill="#191719"/>
<circle cx="50" cy="200" r="2" fill="#191719"/>
<circle cy="200" r="2" fill="#191719"/>
<circle cx="100" cy="200" r="2" fill="#191719"/>
<circle cx="150" cy="200" r="2" fill="#191719"/>
<circle cx="200" cy="200" r="2" fill="#191719"/>
<circle cx="250" cy="200" r="2" fill="#191719"/>
<circle cx="300" cy="200" r="2" fill="#191719"/>
<circle cx="350" cy="200" r="2" fill="#191719"/>
<circle cx="400" cy="200" r="2" fill="#191719"/>
<circle cx="450" cy="200" r="2" fill="#191719"/>
<circle cx="500" cy="200" r="2" fill="#191719"/>
<circle cx="50" cy="250" r="2" fill="#191719"/>
<circle cy="250" r="2" fill="#191719"/>
<circle cx="100" cy="250" r="2" fill="#191719"/>
<circle cx="150" cy="250" r="2" fill="#191719"/>
<circle cx="200" cy="250" r="2" fill="#191719"/>
<circle cx="250" cy="250" r="2" fill="#191719"/>
<circle cx="300" cy="250" r="2" fill="#191719"/>
<circle cx="350" cy="250" r="2" fill="#191719"/>
<circle cx="400" cy="250" r="2" fill="#191719"/>
<circle cx="450" cy="250" r="2" fill="#191719"/>
<circle cx="500" cy="250" r="2" fill="#191719"/>
<circle cx="50" cy="300" r="2" fill="#191719"/>
<circle cy="300" r="2" fill="#191719"/>
<circle cx="100" cy="300" r="2" fill="#191719"/>
<circle cx="150" cy="300" r="2" fill="#191719"/>
<circle cx="200" cy="300" r="2" fill="#191719"/>
<circle cx="250" cy="300" r="2" fill="#191719"/>
<circle cx="300" cy="300" r="2" fill="#191719"/>
<circle cx="350" cy="300" r="2" fill="#191719"/>
<circle cx="400" cy="300" r="2" fill="#191719"/>
<circle cx="450" cy="300" r="2" fill="#191719"/>
<circle cx="500" cy="300" r="2" fill="#191719"/>
<circle cx="50" cy="350" r="2" fill="#191719"/>
<circle cy="350" r="2" fill="#191719"/>
<circle cx="100" cy="350" r="2" fill="#191719"/>
<circle cx="150" cy="350" r="2" fill="#191719"/>
<circle cx="200" cy="350" r="2" fill="#191719"/>
<circle cx="250" cy="350" r="2" fill="#191719"/>
<circle cx="300" cy="350" r="2" fill="#191719"/>
<circle cx="350" cy="350" r="2" fill="#191719"/>
<circle cx="400" cy="350" r="2" fill="#191719"/>
<circle cx="450" cy="350" r="2" fill="#191719"/>
<circle cx="500" cy="350" r="2" fill="#191719"/>
<circle cx="50" cy="400" r="2" fill="#191719"/>
<circle cy="400" r="2" fill="#191719"/>
<circle cx="100" cy="400" r="2" fill="#191719"/>
<circle cx="150" cy="400" r="2" fill="#191719"/>
<circle cx="200" cy="400" r="2" fill="#191719"/>
<circle cx="250" cy="400" r="2" fill="#191719"/>
<circle cx="300" cy="400" r="2" fill="#191719"/>
<circle cx="350" cy="400" r="2" fill="#191719"/>
<circle cx="400" cy="400" r="2" fill="#191719"/>
<circle cx="450" cy="400" r="2" fill="#191719"/>
<circle cx="500" cy="400" r="2" fill="#191719"/>
<circle cx="50" cy="450" r="2" fill="#191719"/>
<circle cy="450" r="2" fill="#191719"/>
<circle cx="100" cy="450" r="2" fill="#191719"/>
<circle cx="150" cy="450" r="2" fill="#191719"/>
<circle cx="200" cy="450" r="2" fill="#191719"/>
<circle cx="250" cy="450" r="2" fill="#191719"/>
<circle cx="300" cy="450" r="2" fill="#191719"/>
<circle cx="350" cy="450" r="2" fill="#191719"/>
<circle cx="400" cy="450" r="2" fill="#191719"/>
<circle cx="450" cy="450" r="2" fill="#191719"/>
<circle cx="500" cy="450" r="2" fill="#191719"/>
<circle cx="50" cy="500" r="2" fill="#191719"/>
<circle cy="500" r="2" fill="#191719"/>
<circle cx="100" cy="500" r="2" fill="#191719"/>
<circle cx="150" cy="500" r="2" fill="#191719"/>
<circle cx="200" cy="500" r="2" fill="#191719"/>
<circle cx="250" cy="500" r="2" fill="#191719"/>
<circle cx="300" cy="500" r="2" fill="#191719"/>
<circle cx="350" cy="500" r="2" fill="#191719"/>
<circle cx="400" cy="500" r="2" fill="#191719"/>
<circle cx="450" cy="500" r="2" fill="#191719"/>
<circle cx="500" cy="500" r="2" fill="#191719"/>
<circle cx="50" r="2" fill="#191719"/>
<circle r="2" fill="#191719"/>
<circle cx="100" r="2" fill="#191719"/>
<circle cx="150" r="2" fill="#191719"/>
<circle cx="200" r="2" fill="#191719"/>
<circle cx="250" r="2" fill="#191719"/>
<circle cx="300" r="2" fill="#191719"/>
<circle cx="350" r="2" fill="#191719"/>
<circle cx="400" r="2" fill="#191719"/>
<circle cx="450" r="2" fill="#191719"/>
<circle cx="500" r="2" fill="#191719"/>
</g>
<defs>
<clipPath id="clip0_229_13">
<rect width="500" height="500" fill="white"/>
</clipPath>
</defs>
</svg>
