<svg width="215" height="46" viewBox="0 0 215 46" fill="none" xmlns="http://www.w3.org/2000/svg">
<path d="M7.68 29.3C6.16 29.3 4.94 28.98 4.02 28.34C3.12 27.68 2.46 26.73 2.04 25.49C1.64 24.25 1.44 22.76 1.44 21.02V12.89C1.44 11.11 1.62 9.6 1.98 8.36C2.36 7.1 3.02 6.14 3.96 5.48C4.92 4.82 6.25 4.49 7.95 4.49C9.47 4.49 10.69 4.75 11.61 5.27C12.55 5.77 13.23 6.55 13.65 7.61C14.07 8.65 14.28 9.97 14.28 11.57V12.47H11.1V11.72C11.1 10.66 11.03 9.8 10.89 9.14C10.75 8.46 10.46 7.96 10.02 7.64C9.6 7.3 8.93 7.13 8.01 7.13C7.01 7.13 6.28 7.36 5.82 7.82C5.38 8.28 5.1 8.91 4.98 9.71C4.88 10.49 4.83 11.38 4.83 12.38V21.38C4.83 22.54 4.91 23.51 5.07 24.29C5.25 25.07 5.58 25.65 6.06 26.03C6.54 26.41 7.22 26.6 8.1 26.6C8.98 26.6 9.66 26.39 10.14 25.97C10.62 25.55 10.95 24.93 11.13 24.11C11.31 23.29 11.4 22.27 11.4 21.05V19.37H8.31V16.97H14.46V29H12.33L12 26.21C11.68 27.11 11.18 27.85 10.5 28.43C9.82 29.01 8.88 29.3 7.68 29.3ZM18.1247 29V4.7H21.4547V29H18.1247ZM31.6561 29.27C29.8961 29.27 28.5461 28.92 27.6061 28.22C26.6661 27.52 26.0261 26.54 25.6861 25.28C25.3461 24 25.1761 22.51 25.1761 20.81V4.7H28.4161V20.96C28.4161 22 28.4861 22.95 28.6261 23.81C28.7661 24.67 29.0661 25.35 29.5261 25.85C30.0061 26.35 30.7161 26.6 31.6561 26.6C32.6161 26.6 33.3261 26.35 33.7861 25.85C34.2461 25.35 34.5461 24.67 34.6861 23.81C34.8261 22.95 34.8961 22 34.8961 20.96V4.7H38.1061V20.81C38.1061 22.51 37.9361 24 37.5961 25.28C37.2561 26.54 36.6161 27.52 35.6761 28.22C34.7561 28.92 33.4161 29.27 31.6561 29.27ZM47.4052 29.27C46.0052 29.27 44.8352 28.97 43.8952 28.37C42.9752 27.77 42.2752 26.94 41.7952 25.88C41.3152 24.82 41.0352 23.59 40.9552 22.19L43.9552 21.38C44.0152 22.24 44.1452 23.07 44.3452 23.87C44.5652 24.67 44.9152 25.33 45.3952 25.85C45.8752 26.35 46.5452 26.6 47.4052 26.6C48.2852 26.6 48.9452 26.36 49.3852 25.88C49.8452 25.38 50.0752 24.67 50.0752 23.75C50.0752 22.65 49.8252 21.77 49.3252 21.11C48.8252 20.43 48.1952 19.75 47.4352 19.07L43.3552 15.47C42.5552 14.77 41.9652 14.01 41.5852 13.19C41.2052 12.35 41.0152 11.32 41.0152 10.1C41.0152 8.32 41.5252 6.94 42.5452 5.96C43.5652 4.98 44.9552 4.49 46.7152 4.49C47.6752 4.49 48.5152 4.62 49.2352 4.88C49.9752 5.12 50.5852 5.5 51.0652 6.02C51.5652 6.54 51.9552 7.2 52.2352 8C52.5352 8.78 52.7352 9.7 52.8352 10.76L49.9552 11.54C49.8952 10.74 49.7752 10.01 49.5952 9.35C49.4152 8.67 49.0952 8.13 48.6352 7.73C48.1952 7.31 47.5552 7.1 46.7152 7.1C45.8752 7.1 45.2152 7.33 44.7352 7.79C44.2752 8.23 44.0452 8.89 44.0452 9.77C44.0452 10.51 44.1652 11.12 44.4052 11.6C44.6652 12.08 45.0752 12.57 45.6352 13.07L49.7452 16.67C50.6652 17.47 51.4752 18.43 52.1752 19.55C52.8752 20.65 53.2252 21.96 53.2252 23.48C53.2252 24.68 52.9752 25.72 52.4752 26.6C51.9752 27.46 51.2852 28.12 50.4052 28.58C49.5452 29.04 48.5452 29.27 47.4052 29.27ZM55.8548 29V4.7H65.2748V7.22H59.2448V15.26H64.1348V17.66H59.2448V26.57H65.3348V29H55.8548ZM68.0716 29V4.7H74.1016C75.5616 4.7 76.7216 4.97 77.5816 5.51C78.4616 6.03 79.1016 6.79 79.5016 7.79C79.9016 8.79 80.1016 10 80.1016 11.42C80.1016 12.7 79.8716 13.81 79.4116 14.75C78.9716 15.69 78.3116 16.42 77.4316 16.94C76.5516 17.44 75.4516 17.69 74.1316 17.69H71.4616V29H68.0716ZM71.4616 15.26H73.0216C74.0016 15.26 74.7716 15.15 75.3316 14.93C75.8916 14.71 76.2916 14.33 76.5316 13.79C76.7716 13.23 76.8916 12.45 76.8916 11.45C76.8916 10.29 76.8016 9.4 76.6216 8.78C76.4616 8.16 76.1116 7.73 75.5716 7.49C75.0316 7.25 74.1916 7.13 73.0516 7.13H71.4616V15.26ZM82.4857 29V4.7H88.5157C89.9757 4.7 91.1357 4.97 91.9957 5.51C92.8757 6.03 93.5157 6.79 93.9157 7.79C94.3157 8.79 94.5157 10 94.5157 11.42C94.5157 12.7 94.2857 13.81 93.8257 14.75C93.3857 15.69 92.7257 16.42 91.8457 16.94C90.9657 17.44 89.8657 17.69 88.5457 17.69H85.8757V29H82.4857ZM85.8757 15.26H87.4357C88.4157 15.26 89.1857 15.15 89.7457 14.93C90.3057 14.71 90.7057 14.33 90.9457 13.79C91.1857 13.23 91.3057 12.45 91.3057 11.45C91.3057 10.29 91.2157 9.4 91.0357 8.78C90.8757 8.16 90.5257 7.73 89.9857 7.49C89.4457 7.25 88.6057 7.13 87.4657 7.13H85.8757V15.26ZM96.8998 29V4.7H106.32V7.22H100.29V15.26H105.18V17.66H100.29V26.57H106.38V29H96.8998ZM121.702 29.27C120.302 29.27 119.132 28.97 118.192 28.37C117.272 27.77 116.572 26.94 116.092 25.88C115.612 24.82 115.332 23.59 115.252 22.19L118.252 21.38C118.312 22.24 118.442 23.07 118.642 23.87C118.862 24.67 119.212 25.33 119.692 25.85C120.172 26.35 120.842 26.6 121.702 26.6C122.582 26.6 123.242 26.36 123.682 25.88C124.142 25.38 124.372 24.67 124.372 23.75C124.372 22.65 124.122 21.77 123.622 21.11C123.122 20.43 122.492 19.75 121.732 19.07L117.652 15.47C116.852 14.77 116.262 14.01 115.882 13.19C115.502 12.35 115.312 11.32 115.312 10.1C115.312 8.32 115.822 6.94 116.842 5.96C117.862 4.98 119.252 4.49 121.012 4.49C121.972 4.49 122.812 4.62 123.532 4.88C124.272 5.12 124.882 5.5 125.362 6.02C125.862 6.54 126.252 7.2 126.532 8C126.832 8.78 127.032 9.7 127.132 10.76L124.252 11.54C124.192 10.74 124.072 10.01 123.892 9.35C123.712 8.67 123.392 8.13 122.932 7.73C122.492 7.31 121.852 7.1 121.012 7.1C120.172 7.1 119.512 7.33 119.032 7.79C118.572 8.23 118.342 8.89 118.342 9.77C118.342 10.51 118.462 11.12 118.702 11.6C118.962 12.08 119.372 12.57 119.932 13.07L124.042 16.67C124.962 17.47 125.772 18.43 126.472 19.55C127.172 20.65 127.522 21.96 127.522 23.48C127.522 24.68 127.272 25.72 126.772 26.6C126.272 27.46 125.582 28.12 124.702 28.58C123.842 29.04 122.842 29.27 121.702 29.27ZM130.152 29V4.7H136.182C137.642 4.7 138.802 4.97 139.662 5.51C140.542 6.03 141.182 6.79 141.582 7.79C141.982 8.79 142.182 10 142.182 11.42C142.182 12.7 141.952 13.81 141.492 14.75C141.052 15.69 140.392 16.42 139.512 16.94C138.632 17.44 137.532 17.69 136.212 17.69H133.542V29H130.152ZM133.542 15.26H135.102C136.082 15.26 136.852 15.15 137.412 14.93C137.972 14.71 138.372 14.33 138.612 13.79C138.852 13.23 138.972 12.45 138.972 11.45C138.972 10.29 138.882 9.4 138.702 8.78C138.542 8.16 138.192 7.73 137.652 7.49C137.112 7.25 136.272 7.13 135.132 7.13H133.542V15.26ZM142.103 29L147.263 4.7H150.533L155.723 29H152.513L151.403 22.88H146.453L145.283 29H142.103ZM146.903 20.45H150.953L148.913 9.5L146.903 20.45ZM159.892 29V7.22H155.782V4.7H167.272V7.22H163.282V29H159.892ZM168.236 29L173.396 4.7H176.666L181.856 29H178.646L177.536 22.88H172.586L171.416 29H168.236ZM173.036 20.45H177.086L175.046 9.5L173.036 20.45ZM184.322 29V4.7H189.212C190.832 4.7 192.172 4.92 193.232 5.36C194.292 5.78 195.072 6.47 195.572 7.43C196.092 8.37 196.352 9.61 196.352 11.15C196.352 12.09 196.252 12.95 196.052 13.73C195.852 14.49 195.532 15.14 195.092 15.68C194.652 16.2 194.072 16.58 193.352 16.82L196.802 29H193.532L190.352 17.6H187.712V29H184.322ZM187.712 15.17H189.002C189.962 15.17 190.742 15.05 191.342 14.81C191.942 14.57 192.382 14.16 192.662 13.58C192.942 13 193.082 12.19 193.082 11.15C193.082 9.73 192.822 8.71 192.302 8.09C191.782 7.45 190.752 7.13 189.212 7.13H187.712V15.17ZM206.088 29.27C204.448 29.27 203.138 28.95 202.158 28.31C201.178 27.67 200.478 26.76 200.058 25.58C199.638 24.38 199.428 22.98 199.428 21.38V12.17C199.428 10.57 199.638 9.2 200.058 8.06C200.498 6.9 201.198 6.02 202.158 5.42C203.138 4.8 204.448 4.49 206.088 4.49C207.728 4.49 209.028 4.8 209.988 5.42C210.948 6.04 211.638 6.92 212.058 8.06C212.498 9.2 212.718 10.57 212.718 12.17V21.41C212.718 22.99 212.498 24.37 212.058 25.55C211.638 26.73 210.948 27.65 209.988 28.31C209.028 28.95 207.728 29.27 206.088 29.27ZM206.088 26.6C206.988 26.6 207.668 26.42 208.128 26.06C208.588 25.68 208.898 25.16 209.058 24.5C209.218 23.82 209.298 23.03 209.298 22.13V11.48C209.298 10.58 209.218 9.81 209.058 9.17C208.898 8.51 208.588 8.01 208.128 7.67C207.668 7.31 206.988 7.13 206.088 7.13C205.188 7.13 204.498 7.31 204.018 7.67C203.558 8.01 203.248 8.51 203.088 9.17C202.928 9.81 202.848 10.58 202.848 11.48V22.13C202.848 23.03 202.928 23.82 203.088 24.5C203.248 25.16 203.558 25.68 204.018 26.06C204.498 26.42 205.188 26.6 206.088 26.6Z" fill="#FFFFF8"/>
<path d="M92.4268 41.6875L94.0605 35.6035H94.8467L94.7578 36.8135L93.1172 43H92.3584L92.4268 41.6875ZM91.5381 35.6035L92.9121 41.7559L92.9463 43H92.1465L90.3418 35.6035H91.5381ZM96.248 41.708L97.5469 35.6035H98.7363L96.9316 43H96.1455L96.248 41.708ZM95.0176 35.6035L96.6104 41.585L96.7197 43H95.9678L94.2725 36.7998L94.1836 35.6035H95.0176ZM102.52 43.1367C102.078 43.1367 101.679 43.0706 101.324 42.9385C100.968 42.8063 100.665 42.6058 100.415 42.3369C100.164 42.0635 99.9726 41.7194 99.8405 41.3047C99.7083 40.89 99.6422 40.4001 99.6422 39.835V39.001C99.6422 38.3493 99.7174 37.7979 99.8678 37.3467C100.023 36.8955 100.23 36.5332 100.49 36.2598C100.75 35.9818 101.044 35.7812 101.372 35.6582C101.7 35.5306 102.037 35.4668 102.383 35.4668C102.848 35.4668 103.245 35.542 103.573 35.6924C103.901 35.8428 104.168 36.0661 104.373 36.3623C104.578 36.6585 104.728 37.0231 104.824 37.4561C104.924 37.889 104.974 38.388 104.974 38.9531V39.6572H100.353V38.625H103.764V38.4541C103.746 38.0713 103.694 37.734 103.607 37.4424C103.525 37.1507 103.388 36.9229 103.197 36.7588C103.006 36.5902 102.734 36.5059 102.383 36.5059C102.16 36.5059 101.953 36.5446 101.761 36.6221C101.575 36.695 101.413 36.8249 101.276 37.0117C101.144 37.194 101.039 37.4469 100.962 37.7705C100.889 38.0941 100.852 38.5042 100.852 39.001V39.835C100.852 40.2314 100.889 40.5732 100.962 40.8604C101.039 41.1429 101.151 41.3776 101.297 41.5645C101.447 41.7467 101.629 41.8835 101.843 41.9746C102.062 42.0612 102.311 42.1045 102.589 42.1045C102.994 42.1045 103.329 42.027 103.593 41.8721C103.858 41.7126 104.088 41.5098 104.284 41.2637L104.92 42.0225C104.787 42.2093 104.614 42.3893 104.4 42.5625C104.19 42.7311 103.931 42.8701 103.621 42.9795C103.315 43.0843 102.949 43.1367 102.52 43.1367ZM106.297 32.5H107.507V41.5645L107.405 43H106.297V32.5ZM111.657 38.9668V39.6572C111.657 40.2406 111.602 40.751 111.492 41.1885C111.388 41.6214 111.23 41.9837 111.021 42.2754C110.811 42.5625 110.556 42.779 110.255 42.9248C109.954 43.0661 109.61 43.1367 109.223 43.1367C108.84 43.1367 108.51 43.0592 108.232 42.9043C107.954 42.7493 107.721 42.526 107.534 42.2344C107.348 41.9427 107.199 41.5895 107.09 41.1748C106.985 40.7601 106.912 40.293 106.871 39.7734V38.8506C106.912 38.3265 106.985 37.8571 107.09 37.4424C107.195 37.0231 107.341 36.6676 107.528 36.376C107.714 36.0798 107.947 35.8542 108.225 35.6992C108.503 35.5443 108.833 35.4668 109.216 35.4668C109.608 35.4668 109.954 35.5352 110.255 35.6719C110.56 35.8086 110.816 36.0205 111.021 36.3076C111.23 36.5902 111.388 36.9525 111.492 37.3945C111.602 37.832 111.657 38.3561 111.657 38.9668ZM110.447 39.6572V38.9668C110.447 38.5566 110.419 38.1989 110.365 37.8936C110.314 37.5882 110.23 37.3353 110.112 37.1348C109.993 36.9342 109.834 36.7839 109.633 36.6836C109.437 36.5833 109.193 36.5332 108.902 36.5332C108.656 36.5332 108.439 36.5833 108.252 36.6836C108.07 36.7839 107.913 36.9206 107.781 37.0938C107.648 37.2624 107.539 37.4561 107.452 37.6748C107.366 37.889 107.302 38.1123 107.261 38.3447V40.2861C107.32 40.5824 107.414 40.8672 107.541 41.1406C107.673 41.4095 107.851 41.6305 108.074 41.8037C108.298 41.9769 108.576 42.0635 108.908 42.0635C109.186 42.0635 109.421 42.0156 109.613 41.9199C109.809 41.8242 109.968 41.6784 110.091 41.4824C110.214 41.2819 110.303 41.0312 110.358 40.7305C110.417 40.4251 110.447 40.0674 110.447 39.6572ZM120.01 41.5645V32.5H121.213V43H120.113L120.01 41.5645ZM115.875 39.6572V38.9668C115.875 38.3561 115.934 37.832 116.052 37.3945C116.171 36.9525 116.339 36.5902 116.558 36.3076C116.777 36.0205 117.039 35.8086 117.344 35.6719C117.65 35.5352 117.987 35.4668 118.356 35.4668C118.739 35.4668 119.067 35.5443 119.34 35.6992C119.618 35.8542 119.851 36.0798 120.038 36.376C120.225 36.6676 120.37 37.0231 120.475 37.4424C120.585 37.8571 120.657 38.3265 120.694 38.8506V39.7734C120.653 40.293 120.578 40.7601 120.468 41.1748C120.364 41.5895 120.218 41.9427 120.031 42.2344C119.844 42.526 119.612 42.7493 119.334 42.9043C119.056 43.0592 118.725 43.1367 118.342 43.1367C117.978 43.1367 117.645 43.0661 117.344 42.9248C117.044 42.779 116.781 42.5625 116.558 42.2754C116.339 41.9837 116.171 41.6214 116.052 41.1885C115.934 40.751 115.875 40.2406 115.875 39.6572ZM117.085 38.9668V39.6572C117.085 40.0674 117.114 40.4251 117.173 40.7305C117.233 41.0312 117.326 41.2819 117.454 41.4824C117.581 41.6784 117.743 41.8242 117.939 41.9199C118.14 42.0156 118.379 42.0635 118.657 42.0635C118.994 42.0635 119.27 41.9814 119.484 41.8174C119.698 41.6533 119.869 41.4368 119.997 41.168C120.129 40.8945 120.234 40.6006 120.311 40.2861V38.3447C120.266 38.1123 120.199 37.889 120.113 37.6748C120.026 37.4561 119.917 37.2624 119.785 37.0938C119.657 36.9206 119.5 36.7839 119.313 36.6836C119.131 36.5833 118.917 36.5332 118.67 36.5332C118.392 36.5332 118.151 36.5833 117.946 36.6836C117.745 36.7839 117.581 36.9342 117.454 37.1348C117.331 37.3353 117.237 37.5882 117.173 37.8936C117.114 38.1989 117.085 38.5566 117.085 38.9668ZM125.585 43.1367C125.143 43.1367 124.744 43.0706 124.389 42.9385C124.033 42.8063 123.73 42.6058 123.48 42.3369C123.229 42.0635 123.038 41.7194 122.905 41.3047C122.773 40.89 122.707 40.4001 122.707 39.835V39.001C122.707 38.3493 122.782 37.7979 122.933 37.3467C123.088 36.8955 123.295 36.5332 123.555 36.2598C123.815 35.9818 124.109 35.7812 124.437 35.6582C124.765 35.5306 125.102 35.4668 125.448 35.4668C125.913 35.4668 126.31 35.542 126.638 35.6924C126.966 35.8428 127.233 36.0661 127.438 36.3623C127.643 36.6585 127.793 37.0231 127.889 37.4561C127.989 37.889 128.039 38.388 128.039 38.9531V39.6572H123.418V38.625H126.829V38.4541C126.811 38.0713 126.759 37.734 126.672 37.4424C126.59 37.1507 126.453 36.9229 126.262 36.7588C126.071 36.5902 125.799 36.5059 125.448 36.5059C125.225 36.5059 125.018 36.5446 124.826 36.6221C124.64 36.695 124.478 36.8249 124.341 37.0117C124.209 37.194 124.104 37.4469 124.027 37.7705C123.954 38.0941 123.917 38.5042 123.917 39.001V39.835C123.917 40.2314 123.954 40.5732 124.027 40.8604C124.104 41.1429 124.216 41.3776 124.362 41.5645C124.512 41.7467 124.694 41.8835 124.908 41.9746C125.127 42.0612 125.376 42.1045 125.654 42.1045C126.059 42.1045 126.394 42.027 126.658 41.8721C126.923 41.7126 127.153 41.5098 127.349 41.2637L127.985 42.0225C127.852 42.2093 127.679 42.3893 127.465 42.5625C127.255 42.7311 126.996 42.8701 126.686 42.9795C126.38 43.0843 126.014 43.1367 125.585 43.1367ZM131.181 41.8584L132.766 35.6035H133.997L131.803 43H131.003L131.181 41.8584ZM129.902 35.6035L131.556 41.8926L131.686 43H130.893L128.672 35.6035H129.902ZM137.665 43.1367C137.222 43.1367 136.824 43.0706 136.468 42.9385C136.113 42.8063 135.81 42.6058 135.559 42.3369C135.308 42.0635 135.117 41.7194 134.985 41.3047C134.853 40.89 134.787 40.4001 134.787 39.835V39.001C134.787 38.3493 134.862 37.7979 135.012 37.3467C135.167 36.8955 135.374 36.5332 135.634 36.2598C135.894 35.9818 136.188 35.7812 136.516 35.6582C136.844 35.5306 137.181 35.4668 137.528 35.4668C137.993 35.4668 138.389 35.542 138.717 35.6924C139.045 35.8428 139.312 36.0661 139.517 36.3623C139.722 36.6585 139.873 37.0231 139.968 37.4561C140.069 37.889 140.119 38.388 140.119 38.9531V39.6572H135.498V38.625H138.909V38.4541C138.89 38.0713 138.838 37.734 138.751 37.4424C138.669 37.1507 138.533 36.9229 138.341 36.7588C138.15 36.5902 137.879 36.5059 137.528 36.5059C137.305 36.5059 137.097 36.5446 136.906 36.6221C136.719 36.695 136.557 36.8249 136.42 37.0117C136.288 37.194 136.183 37.4469 136.106 37.7705C136.033 38.0941 135.997 38.5042 135.997 39.001V39.835C135.997 40.2314 136.033 40.5732 136.106 40.8604C136.183 41.1429 136.295 41.3776 136.441 41.5645C136.591 41.7467 136.774 41.8835 136.988 41.9746C137.207 42.0612 137.455 42.1045 137.733 42.1045C138.138 42.1045 138.473 42.027 138.738 41.8721C139.002 41.7126 139.232 41.5098 139.428 41.2637L140.064 42.0225C139.932 42.2093 139.759 42.3893 139.544 42.5625C139.335 42.7311 139.075 42.8701 138.765 42.9795C138.46 43.0843 138.093 43.1367 137.665 43.1367ZM142.74 32.5V43H141.537V32.5H142.74ZM144.261 39.6572V38.9531C144.261 38.3789 144.334 37.8753 144.48 37.4424C144.626 37.0049 144.829 36.6403 145.089 36.3486C145.348 36.057 145.651 35.8382 145.998 35.6924C146.344 35.542 146.716 35.4668 147.112 35.4668C147.518 35.4668 147.894 35.542 148.24 35.6924C148.586 35.8382 148.889 36.057 149.149 36.3486C149.414 36.6403 149.619 37.0049 149.764 37.4424C149.91 37.8753 149.983 38.3789 149.983 38.9531V39.6572C149.983 40.2314 149.91 40.7373 149.764 41.1748C149.619 41.6077 149.416 41.9701 149.156 42.2617C148.896 42.5534 148.593 42.7721 148.247 42.918C147.9 43.0638 147.527 43.1367 147.126 43.1367C146.725 43.1367 146.351 43.0638 146.005 42.918C145.658 42.7721 145.353 42.5534 145.089 42.2617C144.829 41.9701 144.626 41.6077 144.48 41.1748C144.334 40.7373 144.261 40.2314 144.261 39.6572ZM145.471 38.9531V39.6572C145.471 40.0628 145.512 40.4183 145.594 40.7236C145.677 41.029 145.793 41.2842 145.943 41.4893C146.094 41.6943 146.269 41.8493 146.469 41.9541C146.67 42.0544 146.889 42.1045 147.126 42.1045C147.399 42.1045 147.638 42.0544 147.844 41.9541C148.053 41.8493 148.226 41.6943 148.363 41.4893C148.5 41.2842 148.602 41.029 148.671 40.7236C148.739 40.4183 148.773 40.0628 148.773 39.6572V38.9531C148.773 38.5475 148.732 38.1943 148.65 37.8936C148.568 37.5882 148.452 37.333 148.302 37.1279C148.151 36.9183 147.973 36.7633 147.768 36.6631C147.568 36.5583 147.349 36.5059 147.112 36.5059C146.88 36.5059 146.663 36.5583 146.463 36.6631C146.262 36.7633 146.087 36.9183 145.936 37.1279C145.79 37.333 145.677 37.5882 145.594 37.8936C145.512 38.1943 145.471 38.5475 145.471 38.9531ZM152.612 37.0254V45.8438H151.402V35.6035H152.502L152.612 37.0254ZM156.747 38.9668V39.6572C156.747 40.2406 156.693 40.751 156.583 41.1885C156.479 41.6214 156.321 41.9837 156.112 42.2754C155.907 42.5625 155.654 42.779 155.353 42.9248C155.052 43.0661 154.708 43.1367 154.321 43.1367C153.933 43.1367 153.596 43.0638 153.309 42.918C153.026 42.7676 152.787 42.5511 152.591 42.2686C152.4 41.986 152.247 41.6465 152.133 41.25C152.024 40.849 151.949 40.4001 151.908 39.9033V38.8506C151.949 38.3265 152.024 37.8571 152.133 37.4424C152.243 37.0231 152.393 36.6676 152.584 36.376C152.78 36.0798 153.02 35.8542 153.302 35.6992C153.589 35.5443 153.924 35.4668 154.307 35.4668C154.704 35.4668 155.052 35.5352 155.353 35.6719C155.658 35.8086 155.913 36.0205 156.119 36.3076C156.328 36.5902 156.485 36.9525 156.59 37.3945C156.695 37.832 156.747 38.3561 156.747 38.9668ZM155.537 39.6572V38.9668C155.537 38.5566 155.506 38.1989 155.442 37.8936C155.383 37.5882 155.287 37.3353 155.155 37.1348C155.023 36.9342 154.856 36.7839 154.656 36.6836C154.455 36.5833 154.214 36.5332 153.931 36.5332C153.69 36.5332 153.475 36.5833 153.288 36.6836C153.106 36.7839 152.949 36.9206 152.817 37.0938C152.685 37.2624 152.575 37.4561 152.489 37.6748C152.402 37.889 152.338 38.1123 152.297 38.3447V40.416C152.375 40.7077 152.477 40.9834 152.605 41.2432C152.732 41.4984 152.903 41.7057 153.118 41.8652C153.336 42.0247 153.612 42.1045 153.945 42.1045C154.223 42.1045 154.462 42.0544 154.662 41.9541C154.863 41.8538 155.027 41.7035 155.155 41.5029C155.287 41.2979 155.383 41.0426 155.442 40.7373C155.506 40.4274 155.537 40.0674 155.537 39.6572ZM160.812 43.1367C160.37 43.1367 159.971 43.0706 159.615 42.9385C159.26 42.8063 158.957 42.6058 158.706 42.3369C158.455 42.0635 158.264 41.7194 158.132 41.3047C158 40.89 157.934 40.4001 157.934 39.835V39.001C157.934 38.3493 158.009 37.7979 158.159 37.3467C158.314 36.8955 158.522 36.5332 158.781 36.2598C159.041 35.9818 159.335 35.7812 159.663 35.6582C159.991 35.5306 160.328 35.4668 160.675 35.4668C161.14 35.4668 161.536 35.542 161.864 35.6924C162.192 35.8428 162.459 36.0661 162.664 36.3623C162.869 36.6585 163.02 37.0231 163.115 37.4561C163.216 37.889 163.266 38.388 163.266 38.9531V39.6572H158.645V38.625H162.056V38.4541C162.037 38.0713 161.985 37.734 161.898 37.4424C161.816 37.1507 161.68 36.9229 161.488 36.7588C161.297 36.5902 161.026 36.5059 160.675 36.5059C160.452 36.5059 160.244 36.5446 160.053 36.6221C159.866 36.695 159.704 36.8249 159.567 37.0117C159.435 37.194 159.33 37.4469 159.253 37.7705C159.18 38.0941 159.144 38.5042 159.144 39.001V39.835C159.144 40.2314 159.18 40.5732 159.253 40.8604C159.33 41.1429 159.442 41.3776 159.588 41.5645C159.738 41.7467 159.921 41.8835 160.135 41.9746C160.354 42.0612 160.602 42.1045 160.88 42.1045C161.286 42.1045 161.62 42.027 161.885 41.8721C162.149 41.7126 162.379 41.5098 162.575 41.2637L163.211 42.0225C163.079 42.2093 162.906 42.3893 162.691 42.5625C162.482 42.7311 162.222 42.8701 161.912 42.9795C161.607 43.0843 161.24 43.1367 160.812 43.1367ZM165.799 36.7656V43H164.589V35.6035H165.757L165.799 36.7656ZM167.637 35.5625L167.644 36.7383C167.544 36.7155 167.453 36.7018 167.371 36.6973C167.293 36.6882 167.202 36.6836 167.097 36.6836C166.869 36.6836 166.669 36.7292 166.496 36.8203C166.327 36.9115 166.181 37.0391 166.058 37.2031C165.935 37.3672 165.837 37.5632 165.764 37.791C165.691 38.0143 165.641 38.2604 165.614 38.5293L165.299 38.7344C165.299 38.2878 165.334 37.8685 165.402 37.4766C165.475 37.0846 165.587 36.7383 165.737 36.4375C165.887 36.1322 166.079 35.8952 166.311 35.7266C166.548 35.5534 166.831 35.4668 167.159 35.4668C167.232 35.4668 167.321 35.4782 167.425 35.501C167.535 35.5192 167.605 35.5397 167.637 35.5625ZM179.143 37.0254V45.8438H177.933V35.6035H179.033L179.143 37.0254ZM183.279 38.9668V39.6572C183.279 40.2406 183.224 40.751 183.114 41.1885C183.01 41.6214 182.852 41.9837 182.643 42.2754C182.438 42.5625 182.185 42.779 181.884 42.9248C181.583 43.0661 181.239 43.1367 180.852 43.1367C180.464 43.1367 180.127 43.0638 179.84 42.918C179.558 42.7676 179.318 42.5511 179.122 42.2686C178.931 41.986 178.778 41.6465 178.664 41.25C178.555 40.849 178.48 40.4001 178.439 39.9033V38.8506C178.48 38.3265 178.555 37.8571 178.664 37.4424C178.774 37.0231 178.924 36.6676 179.115 36.376C179.311 36.0798 179.551 35.8542 179.833 35.6992C180.12 35.5443 180.455 35.4668 180.838 35.4668C181.235 35.4668 181.583 35.5352 181.884 35.6719C182.189 35.8086 182.445 36.0205 182.65 36.3076C182.859 36.5902 183.017 36.9525 183.121 37.3945C183.226 37.832 183.279 38.3561 183.279 38.9668ZM182.069 39.6572V38.9668C182.069 38.5566 182.037 38.1989 181.973 37.8936C181.914 37.5882 181.818 37.3353 181.686 37.1348C181.554 36.9342 181.387 36.7839 181.187 36.6836C180.986 36.5833 180.745 36.5332 180.462 36.5332C180.221 36.5332 180.006 36.5833 179.82 36.6836C179.637 36.7839 179.48 36.9206 179.348 37.0938C179.216 37.2624 179.106 37.4561 179.02 37.6748C178.933 37.889 178.869 38.1123 178.828 38.3447V40.416C178.906 40.7077 179.008 40.9834 179.136 41.2432C179.264 41.4984 179.434 41.7057 179.649 41.8652C179.867 42.0247 180.143 42.1045 180.476 42.1045C180.754 42.1045 180.993 42.0544 181.194 41.9541C181.394 41.8538 181.558 41.7035 181.686 41.5029C181.818 41.2979 181.914 41.0426 181.973 40.7373C182.037 40.4274 182.069 40.0674 182.069 39.6572ZM185.996 35.6035V43H184.793V35.6035H185.996ZM184.724 33.6416C184.724 33.4365 184.781 33.2633 184.895 33.1221C185.009 32.9808 185.18 32.9102 185.408 32.9102C185.636 32.9102 185.807 32.9808 185.921 33.1221C186.039 33.2633 186.099 33.4365 186.099 33.6416C186.099 33.8376 186.039 34.0062 185.921 34.1475C185.807 34.2842 185.636 34.3525 185.408 34.3525C185.18 34.3525 185.009 34.2842 184.895 34.1475C184.781 34.0062 184.724 33.8376 184.724 33.6416ZM191.393 41.7354V37.7227C191.393 37.431 191.348 37.1963 191.256 37.0186C191.17 36.8408 191.038 36.7109 190.86 36.6289C190.687 36.5469 190.468 36.5059 190.204 36.5059C189.948 36.5059 189.727 36.5583 189.541 36.6631C189.358 36.7679 189.217 36.9069 189.117 37.0801C189.021 37.2533 188.973 37.4447 188.973 37.6543H187.763C187.763 37.39 187.82 37.1279 187.934 36.8682C188.053 36.6084 188.221 36.3737 188.44 36.1641C188.659 35.9499 188.921 35.7812 189.226 35.6582C189.536 35.5306 189.882 35.4668 190.265 35.4668C190.721 35.4668 191.124 35.542 191.475 35.6924C191.826 35.8382 192.102 36.0775 192.302 36.4102C192.503 36.7428 192.603 37.1849 192.603 37.7363V41.3867C192.603 41.6328 192.621 41.8949 192.658 42.1729C192.699 42.4508 192.756 42.6901 192.829 42.8906V43H191.578C191.518 42.8542 191.473 42.6605 191.441 42.4189C191.409 42.1729 191.393 41.945 191.393 41.7354ZM191.584 38.5156L191.598 39.4043H190.757C190.47 39.4043 190.208 39.4362 189.971 39.5C189.739 39.5638 189.538 39.6572 189.37 39.7803C189.201 39.8988 189.071 40.0469 188.98 40.2246C188.893 40.4023 188.85 40.6051 188.85 40.833C188.85 41.1292 188.891 41.3662 188.973 41.5439C189.055 41.7171 189.178 41.8424 189.342 41.9199C189.506 41.9974 189.714 42.0361 189.964 42.0361C190.27 42.0361 190.539 41.9655 190.771 41.8242C191.003 41.6829 191.183 41.512 191.311 41.3115C191.443 41.111 191.505 40.9242 191.496 40.751L191.762 41.3184C191.744 41.4961 191.685 41.6898 191.584 41.8994C191.489 42.1045 191.354 42.3027 191.181 42.4941C191.008 42.681 190.803 42.8359 190.566 42.959C190.334 43.0775 190.071 43.1367 189.78 43.1367C189.351 43.1367 188.975 43.0547 188.652 42.8906C188.333 42.7266 188.084 42.485 187.907 42.166C187.729 41.847 187.64 41.4528 187.64 40.9834C187.64 40.6279 187.702 40.2998 187.825 39.999C187.948 39.6982 188.13 39.4385 188.372 39.2197C188.613 38.9964 188.916 38.8232 189.281 38.7002C189.65 38.5771 190.076 38.5156 190.559 38.5156H191.584ZM195.553 37.1826V43H194.343V35.6035H195.485L195.553 37.1826ZM195.259 39.0215L194.767 39.001C194.762 38.4951 194.819 38.028 194.938 37.5996C195.061 37.1667 195.234 36.7907 195.457 36.4717C195.685 36.1527 195.956 35.9066 196.271 35.7334C196.585 35.5557 196.934 35.4668 197.317 35.4668C197.617 35.4668 197.891 35.5169 198.137 35.6172C198.383 35.7129 198.593 35.8678 198.766 36.082C198.939 36.2962 199.071 36.5742 199.162 36.916C199.258 37.2533 199.306 37.6657 199.306 38.1533V43H198.096V38.1396C198.096 37.7523 198.053 37.4424 197.966 37.21C197.884 36.973 197.756 36.8021 197.583 36.6973C197.415 36.5879 197.2 36.5332 196.941 36.5332C196.704 36.5332 196.483 36.5993 196.277 36.7314C196.072 36.8636 195.892 37.0459 195.737 37.2783C195.587 37.5107 195.469 37.7773 195.382 38.0781C195.3 38.3743 195.259 38.6888 195.259 39.0215ZM202.283 35.6035V43H201.08V35.6035H202.283ZM201.012 33.6416C201.012 33.4365 201.068 33.2633 201.182 33.1221C201.296 32.9808 201.467 32.9102 201.695 32.9102C201.923 32.9102 202.094 32.9808 202.208 33.1221C202.326 33.2633 202.386 33.4365 202.386 33.6416C202.386 33.8376 202.326 34.0062 202.208 34.1475C202.094 34.2842 201.923 34.3525 201.695 34.3525C201.467 34.3525 201.296 34.2842 201.182 34.1475C201.068 34.0062 201.012 33.8376 201.012 33.6416ZM207.646 41.1064C207.646 40.9196 207.6 40.7555 207.509 40.6143C207.418 40.473 207.268 40.3363 207.058 40.2041C206.853 40.0719 206.575 39.9307 206.224 39.7803C205.882 39.639 205.575 39.5 205.301 39.3633C205.032 39.222 204.804 39.0693 204.618 38.9053C204.431 38.7412 204.287 38.5521 204.187 38.3379C204.091 38.1191 204.043 37.8617 204.043 37.5654C204.043 37.2692 204.098 36.9958 204.207 36.7451C204.321 36.4899 204.481 36.2666 204.686 36.0752C204.891 35.8838 205.137 35.7357 205.424 35.6309C205.711 35.5215 206.033 35.4668 206.388 35.4668C206.894 35.4668 207.325 35.5648 207.68 35.7607C208.036 35.9567 208.307 36.2256 208.494 36.5674C208.685 36.9046 208.781 37.2852 208.781 37.709H207.578C207.578 37.5039 207.532 37.3102 207.441 37.1279C207.35 36.9456 207.215 36.7975 207.038 36.6836C206.86 36.5651 206.643 36.5059 206.388 36.5059C206.119 36.5059 205.9 36.5537 205.732 36.6494C205.563 36.7451 205.44 36.8704 205.363 37.0254C205.29 37.1758 205.253 37.3421 205.253 37.5244C205.253 37.6611 205.272 37.7796 205.308 37.8799C205.349 37.9756 205.417 38.0667 205.513 38.1533C205.609 38.2354 205.739 38.3219 205.903 38.4131C206.071 38.4997 206.286 38.5999 206.545 38.7139C207.047 38.9098 207.468 39.1081 207.81 39.3086C208.152 39.5091 208.412 39.7438 208.589 40.0127C208.767 40.2816 208.856 40.6143 208.856 41.0107C208.856 41.3343 208.797 41.6283 208.678 41.8926C208.564 42.1523 208.4 42.3757 208.186 42.5625C207.972 42.7493 207.714 42.8929 207.414 42.9932C207.117 43.0889 206.785 43.1367 206.415 43.1367C205.859 43.1367 205.388 43.0273 205 42.8086C204.618 42.5853 204.326 42.2959 204.125 41.9404C203.929 41.5804 203.831 41.1953 203.831 40.7852H205.041C205.055 41.1315 205.133 41.4004 205.274 41.5918C205.42 41.7832 205.595 41.9154 205.8 41.9883C206.005 42.0612 206.21 42.0977 206.415 42.0977C206.684 42.0977 206.91 42.0589 207.092 41.9814C207.275 41.8994 207.411 41.7832 207.502 41.6328C207.598 41.4824 207.646 41.307 207.646 41.1064ZM213.002 35.6035V36.5742H209.55V35.6035H213.002ZM210.678 33.8057H211.888V41.168C211.888 41.4186 211.917 41.6077 211.977 41.7354C212.04 41.863 212.12 41.9473 212.216 41.9883C212.312 42.0293 212.414 42.0498 212.524 42.0498C212.606 42.0498 212.697 42.0407 212.797 42.0225C212.897 41.9997 212.966 41.9814 213.002 41.9678L212.995 43C212.913 43.0319 212.804 43.0615 212.667 43.0889C212.53 43.1208 212.357 43.1367 212.148 43.1367C211.888 43.1367 211.646 43.0752 211.423 42.9521C211.2 42.8291 211.02 42.624 210.883 42.3369C210.746 42.0452 210.678 41.6533 210.678 41.1611V33.8057Z" fill="#CCCCC0"/>
<circle cx="172.5" cy="39.5" r="1.5" fill="#CCCCC0"/>
</svg>
