<svg width="215" height="46" viewBox="0 0 215 46" fill="none" xmlns="http://www.w3.org/2000/svg">
<path d="M7.68 29.3C6.16 29.3 4.94 28.98 4.02 28.34C3.12 27.68 2.46 26.73 2.04 25.49C1.64 24.25 1.44 22.76 1.44 21.02V12.89C1.44 11.11 1.62 9.6 1.98 8.36C2.36 7.1 3.02 6.14 3.96 5.48C4.92 4.82 6.25 4.49 7.95 4.49C9.47 4.49 10.69 4.75 11.61 5.27C12.55 5.77 13.23 6.55 13.65 7.61C14.07 8.65 14.28 9.97 14.28 11.57V12.47H11.1V11.72C11.1 10.66 11.03 9.8 10.89 9.14C10.75 8.46 10.46 7.96 10.02 7.64C9.6 7.3 8.93 7.13 8.01 7.13C7.01 7.13 6.28 7.36 5.82 7.82C5.38 8.28 5.1 8.91 4.98 9.71C4.88 10.49 4.83 11.38 4.83 12.38V21.38C4.83 22.54 4.91 23.51 5.07 24.29C5.25 25.07 5.58 25.65 6.06 26.03C6.54 26.41 7.22 26.6 8.1 26.6C8.98 26.6 9.66 26.39 10.14 25.97C10.62 25.55 10.95 24.93 11.13 24.11C11.31 23.29 11.4 22.27 11.4 21.05V19.37H8.31V16.97H14.46V29H12.33L12 26.21C11.68 27.11 11.18 27.85 10.5 28.43C9.82 29.01 8.88 29.3 7.68 29.3ZM18.1247 29V4.7H21.4547V29H18.1247ZM31.6561 29.27C29.8961 29.27 28.5461 28.92 27.6061 28.22C26.6661 27.52 26.0261 26.54 25.6861 25.28C25.3461 24 25.1761 22.51 25.1761 20.81V4.7H28.4161V20.96C28.4161 22 28.4861 22.95 28.6261 23.81C28.7661 24.67 29.0661 25.35 29.5261 25.85C30.0061 26.35 30.7161 26.6 31.6561 26.6C32.6161 26.6 33.3261 26.35 33.7861 25.85C34.2461 25.35 34.5461 24.67 34.6861 23.81C34.8261 22.95 34.8961 22 34.8961 20.96V4.7H38.1061V20.81C38.1061 22.51 37.9361 24 37.5961 25.28C37.2561 26.54 36.6161 27.52 35.6761 28.22C34.7561 28.92 33.4161 29.27 31.6561 29.27ZM47.4052 29.27C46.0052 29.27 44.8352 28.97 43.8952 28.37C42.9752 27.77 42.2752 26.94 41.7952 25.88C41.3152 24.82 41.0352 23.59 40.9552 22.19L43.9552 21.38C44.0152 22.24 44.1452 23.07 44.3452 23.87C44.5652 24.67 44.9152 25.33 45.3952 25.85C45.8752 26.35 46.5452 26.6 47.4052 26.6C48.2852 26.6 48.9452 26.36 49.3852 25.88C49.8452 25.38 50.0752 24.67 50.0752 23.75C50.0752 22.65 49.8252 21.77 49.3252 21.11C48.8252 20.43 48.1952 19.75 47.4352 19.07L43.3552 15.47C42.5552 14.77 41.9652 14.01 41.5852 13.19C41.2052 12.35 41.0152 11.32 41.0152 10.1C41.0152 8.32 41.5252 6.94 42.5452 5.96C43.5652 4.98 44.9552 4.49 46.7152 4.49C47.6752 4.49 48.5152 4.62 49.2352 4.88C49.9752 5.12 50.5852 5.5 51.0652 6.02C51.5652 6.54 51.9552 7.2 52.2352 8C52.5352 8.78 52.7352 9.7 52.8352 10.76L49.9552 11.54C49.8952 10.74 49.7752 10.01 49.5952 9.35C49.4152 8.67 49.0952 8.13 48.6352 7.73C48.1952 7.31 47.5552 7.1 46.7152 7.1C45.8752 7.1 45.2152 7.33 44.7352 7.79C44.2752 8.23 44.0452 8.89 44.0452 9.77C44.0452 10.51 44.1652 11.12 44.4052 11.6C44.6652 12.08 45.0752 12.57 45.6352 13.07L49.7452 16.67C50.6652 17.47 51.4752 18.43 52.1752 19.55C52.8752 20.65 53.2252 21.96 53.2252 23.48C53.2252 24.68 52.9752 25.72 52.4752 26.6C51.9752 27.46 51.2852 28.12 50.4052 28.58C49.5452 29.04 48.5452 29.27 47.4052 29.27ZM55.8548 29V4.7H65.2748V7.22H59.2448V15.26H64.1348V17.66H59.2448V26.57H65.3348V29H55.8548ZM68.0716 29V4.7H74.1016C75.5616 4.7 76.7216 4.97 77.5816 5.51C78.4616 6.03 79.1016 6.79 79.5016 7.79C79.9016 8.79 80.1016 10 80.1016 11.42C80.1016 12.7 79.8716 13.81 79.4116 14.75C78.9716 15.69 78.3116 16.42 77.4316 16.94C76.5516 17.44 75.4516 17.69 74.1316 17.69H71.4616V29H68.0716ZM71.4616 15.26H73.0216C74.0016 15.26 74.7716 15.15 75.3316 14.93C75.8916 14.71 76.2916 14.33 76.5316 13.79C76.7716 13.23 76.8916 12.45 76.8916 11.45C76.8916 10.29 76.8016 9.4 76.6216 8.78C76.4616 8.16 76.1116 7.73 75.5716 7.49C75.0316 7.25 74.1916 7.13 73.0516 7.13H71.4616V15.26ZM82.4857 29V4.7H88.5157C89.9757 4.7 91.1357 4.97 91.9957 5.51C92.8757 6.03 93.5157 6.79 93.9157 7.79C94.3157 8.79 94.5157 10 94.5157 11.42C94.5157 12.7 94.2857 13.81 93.8257 14.75C93.3857 15.69 92.7257 16.42 91.8457 16.94C90.9657 17.44 89.8657 17.69 88.5457 17.69H85.8757V29H82.4857ZM85.8757 15.26H87.4357C88.4157 15.26 89.1857 15.15 89.7457 14.93C90.3057 14.71 90.7057 14.33 90.9457 13.79C91.1857 13.23 91.3057 12.45 91.3057 11.45C91.3057 10.29 91.2157 9.4 91.0357 8.78C90.8757 8.16 90.5257 7.73 89.9857 7.49C89.4457 7.25 88.6057 7.13 87.4657 7.13H85.8757V15.26ZM96.8998 29V4.7H106.32V7.22H100.29V15.26H105.18V17.66H100.29V26.57H106.38V29H96.8998ZM121.702 29.27C120.302 29.27 119.132 28.97 118.192 28.37C117.272 27.77 116.572 26.94 116.092 25.88C115.612 24.82 115.332 23.59 115.252 22.19L118.252 21.38C118.312 22.24 118.442 23.07 118.642 23.87C118.862 24.67 119.212 25.33 119.692 25.85C120.172 26.35 120.842 26.6 121.702 26.6C122.582 26.6 123.242 26.36 123.682 25.88C124.142 25.38 124.372 24.67 124.372 23.75C124.372 22.65 124.122 21.77 123.622 21.11C123.122 20.43 122.492 19.75 121.732 19.07L117.652 15.47C116.852 14.77 116.262 14.01 115.882 13.19C115.502 12.35 115.312 11.32 115.312 10.1C115.312 8.32 115.822 6.94 116.842 5.96C117.862 4.98 119.252 4.49 121.012 4.49C121.972 4.49 122.812 4.62 123.532 4.88C124.272 5.12 124.882 5.5 125.362 6.02C125.862 6.54 126.252 7.2 126.532 8C126.832 8.78 127.032 9.7 127.132 10.76L124.252 11.54C124.192 10.74 124.072 10.01 123.892 9.35C123.712 8.67 123.392 8.13 122.932 7.73C122.492 7.31 121.852 7.1 121.012 7.1C120.172 7.1 119.512 7.33 119.032 7.79C118.572 8.23 118.342 8.89 118.342 9.77C118.342 10.51 118.462 11.12 118.702 11.6C118.962 12.08 119.372 12.57 119.932 13.07L124.042 16.67C124.962 17.47 125.772 18.43 126.472 19.55C127.172 20.65 127.522 21.96 127.522 23.48C127.522 24.68 127.272 25.72 126.772 26.6C126.272 27.46 125.582 28.12 124.702 28.58C123.842 29.04 122.842 29.27 121.702 29.27ZM130.152 29V4.7H136.182C137.642 4.7 138.802 4.97 139.662 5.51C140.542 6.03 141.182 6.79 141.582 7.79C141.982 8.79 142.182 10 142.182 11.42C142.182 12.7 141.952 13.81 141.492 14.75C141.052 15.69 140.392 16.42 139.512 16.94C138.632 17.44 137.532 17.69 136.212 17.69H133.542V29H130.152ZM133.542 15.26H135.102C136.082 15.26 136.852 15.15 137.412 14.93C137.972 14.71 138.372 14.33 138.612 13.79C138.852 13.23 138.972 12.45 138.972 11.45C138.972 10.29 138.882 9.4 138.702 8.78C138.542 8.16 138.192 7.73 137.652 7.49C137.112 7.25 136.272 7.13 135.132 7.13H133.542V15.26ZM142.103 29L147.263 4.7H150.533L155.723 29H152.513L151.403 22.88H146.453L145.283 29H142.103ZM146.903 20.45H150.953L148.913 9.5L146.903 20.45ZM159.892 29V7.22H155.782V4.7H167.272V7.22H163.282V29H159.892ZM168.236 29L173.396 4.7H176.666L181.856 29H178.646L177.536 22.88H172.586L171.416 29H168.236ZM173.036 20.45H177.086L175.046 9.5L173.036 20.45ZM184.322 29V4.7H189.212C190.832 4.7 192.172 4.92 193.232 5.36C194.292 5.78 195.072 6.47 195.572 7.43C196.092 8.37 196.352 9.61 196.352 11.15C196.352 12.09 196.252 12.95 196.052 13.73C195.852 14.49 195.532 15.14 195.092 15.68C194.652 16.2 194.072 16.58 193.352 16.82L196.802 29H193.532L190.352 17.6H187.712V29H184.322ZM187.712 15.17H189.002C189.962 15.17 190.742 15.05 191.342 14.81C191.942 14.57 192.382 14.16 192.662 13.58C192.942 13 193.082 12.19 193.082 11.15C193.082 9.73 192.822 8.71 192.302 8.09C191.782 7.45 190.752 7.13 189.212 7.13H187.712V15.17ZM206.088 29.27C204.448 29.27 203.138 28.95 202.158 28.31C201.178 27.67 200.478 26.76 200.058 25.58C199.638 24.38 199.428 22.98 199.428 21.38V12.17C199.428 10.57 199.638 9.2 200.058 8.06C200.498 6.9 201.198 6.02 202.158 5.42C203.138 4.8 204.448 4.49 206.088 4.49C207.728 4.49 209.028 4.8 209.988 5.42C210.948 6.04 211.638 6.92 212.058 8.06C212.498 9.2 212.718 10.57 212.718 12.17V21.41C212.718 22.99 212.498 24.37 212.058 25.55C211.638 26.73 210.948 27.65 209.988 28.31C209.028 28.95 207.728 29.27 206.088 29.27ZM206.088 26.6C206.988 26.6 207.668 26.42 208.128 26.06C208.588 25.68 208.898 25.16 209.058 24.5C209.218 23.82 209.298 23.03 209.298 22.13V11.48C209.298 10.58 209.218 9.81 209.058 9.17C208.898 8.51 208.588 8.01 208.128 7.67C207.668 7.31 206.988 7.13 206.088 7.13C205.188 7.13 204.498 7.31 204.018 7.67C203.558 8.01 203.248 8.51 203.088 9.17C202.928 9.81 202.848 10.58 202.848 11.48V22.13C202.848 23.03 202.928 23.82 203.088 24.5C203.248 25.16 203.558 25.68 204.018 26.06C204.498 26.42 205.188 26.6 206.088 26.6Z" fill="currentColor"/>
<circle cx="164.5" cy="39.5" r="1.5" transform="rotate(-90 164.5 39.5)" fill="currentColor" fill-opacity="80%"/>
<path d="M84.4268 41.6875L86.0605 35.6035H86.8467L86.7578 36.8135L85.1172 43H84.3584L84.4268 41.6875ZM83.5381 35.6035L84.9121 41.7559L84.9463 43H84.1465L82.3418 35.6035H83.5381ZM88.248 41.708L89.5469 35.6035H90.7363L88.9316 43H88.1455L88.248 41.708ZM87.0176 35.6035L88.6104 41.585L88.7197 43H87.9678L86.2725 36.7998L86.1836 35.6035H87.0176ZM94.5202 43.1367C94.0781 43.1367 93.6793 43.0706 93.3239 42.9385C92.9684 42.8063 92.6653 42.6058 92.4147 42.3369C92.164 42.0635 91.9726 41.7194 91.8405 41.3047C91.7083 40.89 91.6422 40.4001 91.6422 39.835V39.001C91.6422 38.3493 91.7174 37.7979 91.8678 37.3467C92.0228 36.8955 92.2301 36.5332 92.4899 36.2598C92.7496 35.9818 93.0436 35.7812 93.3717 35.6582C93.6998 35.5306 94.0371 35.4668 94.3834 35.4668C94.8483 35.4668 95.2448 35.542 95.5729 35.6924C95.901 35.8428 96.1676 36.0661 96.3727 36.3623C96.5778 36.6585 96.7282 37.0231 96.8239 37.4561C96.9241 37.889 96.9743 38.388 96.9743 38.9531V39.6572H92.3532V38.625H95.7643V38.4541C95.7461 38.0713 95.6937 37.734 95.6071 37.4424C95.525 37.1507 95.3883 36.9229 95.1969 36.7588C95.0055 36.5902 94.7343 36.5059 94.3834 36.5059C94.1601 36.5059 93.9528 36.5446 93.7614 36.6221C93.5745 36.695 93.4127 36.8249 93.276 37.0117C93.1439 37.194 93.039 37.4469 92.9616 37.7705C92.8886 38.0941 92.8522 38.5042 92.8522 39.001V39.835C92.8522 40.2314 92.8886 40.5732 92.9616 40.8604C93.039 41.1429 93.1507 41.3776 93.2965 41.5645C93.4469 41.7467 93.6292 41.8835 93.8434 41.9746C94.0621 42.0612 94.3105 42.1045 94.5885 42.1045C94.9941 42.1045 95.3291 42.027 95.5934 41.8721C95.8577 41.7126 96.0879 41.5098 96.2838 41.2637L96.9196 42.0225C96.7874 42.2093 96.6142 42.3893 96.4 42.5625C96.1904 42.7311 95.9306 42.8701 95.6207 42.9795C95.3154 43.0843 94.9485 43.1367 94.5202 43.1367ZM98.2971 32.5H99.5071V41.5645L99.4046 43H98.2971V32.5ZM103.657 38.9668V39.6572C103.657 40.2406 103.602 40.751 103.492 41.1885C103.388 41.6214 103.23 41.9837 103.021 42.2754C102.811 42.5625 102.556 42.779 102.255 42.9248C101.954 43.0661 101.61 43.1367 101.223 43.1367C100.84 43.1367 100.51 43.0592 100.232 42.9043C99.9537 42.7493 99.7213 42.526 99.5345 42.2344C99.3476 41.9427 99.1995 41.5895 99.0901 41.1748C98.9853 40.7601 98.9124 40.293 98.8714 39.7734V38.8506C98.9124 38.3265 98.9853 37.8571 99.0901 37.4424C99.1949 37.0231 99.3408 36.6676 99.5276 36.376C99.7145 36.0798 99.9469 35.8542 100.225 35.6992C100.503 35.5443 100.833 35.4668 101.216 35.4668C101.608 35.4668 101.954 35.5352 102.255 35.6719C102.56 35.8086 102.816 36.0205 103.021 36.3076C103.23 36.5902 103.388 36.9525 103.492 37.3945C103.602 37.832 103.657 38.3561 103.657 38.9668ZM102.447 39.6572V38.9668C102.447 38.5566 102.419 38.1989 102.365 37.8936C102.314 37.5882 102.23 37.3353 102.112 37.1348C101.993 36.9342 101.834 36.7839 101.633 36.6836C101.437 36.5833 101.193 36.5332 100.902 36.5332C100.656 36.5332 100.439 36.5833 100.252 36.6836C100.07 36.7839 99.9127 36.9206 99.7805 37.0938C99.6484 37.2624 99.539 37.4561 99.4524 37.6748C99.3658 37.889 99.302 38.1123 99.261 38.3447V40.2861C99.3203 40.5824 99.4137 40.8672 99.5413 41.1406C99.6735 41.4095 99.8512 41.6305 100.074 41.8037C100.298 41.9769 100.576 42.0635 100.908 42.0635C101.186 42.0635 101.421 42.0156 101.613 41.9199C101.809 41.8242 101.968 41.6784 102.091 41.4824C102.214 41.2819 102.303 41.0312 102.358 40.7305C102.417 40.4251 102.447 40.0674 102.447 39.6572ZM112.01 41.5645V32.5H113.213V43H112.113L112.01 41.5645ZM107.875 39.6572V38.9668C107.875 38.3561 107.934 37.832 108.052 37.3945C108.171 36.9525 108.339 36.5902 108.558 36.3076C108.777 36.0205 109.039 35.8086 109.344 35.6719C109.65 35.5352 109.987 35.4668 110.356 35.4668C110.739 35.4668 111.067 35.5443 111.34 35.6992C111.618 35.8542 111.851 36.0798 112.038 36.376C112.225 36.6676 112.37 37.0231 112.475 37.4424C112.585 37.8571 112.657 38.3265 112.694 38.8506V39.7734C112.653 40.293 112.578 40.7601 112.468 41.1748C112.364 41.5895 112.218 41.9427 112.031 42.2344C111.844 42.526 111.612 42.7493 111.334 42.9043C111.056 43.0592 110.725 43.1367 110.342 43.1367C109.978 43.1367 109.645 43.0661 109.344 42.9248C109.044 42.779 108.781 42.5625 108.558 42.2754C108.339 41.9837 108.171 41.6214 108.052 41.1885C107.934 40.751 107.875 40.2406 107.875 39.6572ZM109.085 38.9668V39.6572C109.085 40.0674 109.114 40.4251 109.173 40.7305C109.233 41.0312 109.326 41.2819 109.454 41.4824C109.581 41.6784 109.743 41.8242 109.939 41.9199C110.14 42.0156 110.379 42.0635 110.657 42.0635C110.994 42.0635 111.27 41.9814 111.484 41.8174C111.698 41.6533 111.869 41.4368 111.997 41.168C112.129 40.8945 112.234 40.6006 112.311 40.2861V38.3447C112.266 38.1123 112.199 37.889 112.113 37.6748C112.026 37.4561 111.917 37.2624 111.785 37.0938C111.657 36.9206 111.5 36.7839 111.313 36.6836C111.131 36.5833 110.917 36.5332 110.67 36.5332C110.392 36.5332 110.151 36.5833 109.946 36.6836C109.745 36.7839 109.581 36.9342 109.454 37.1348C109.331 37.3353 109.237 37.5882 109.173 37.8936C109.114 38.1989 109.085 38.5566 109.085 38.9668ZM117.585 43.1367C117.143 43.1367 116.744 43.0706 116.389 42.9385C116.033 42.8063 115.73 42.6058 115.48 42.3369C115.229 42.0635 115.038 41.7194 114.905 41.3047C114.773 40.89 114.707 40.4001 114.707 39.835V39.001C114.707 38.3493 114.782 37.7979 114.933 37.3467C115.088 36.8955 115.295 36.5332 115.555 36.2598C115.815 35.9818 116.109 35.7812 116.437 35.6582C116.765 35.5306 117.102 35.4668 117.448 35.4668C117.913 35.4668 118.31 35.542 118.638 35.6924C118.966 35.8428 119.233 36.0661 119.438 36.3623C119.643 36.6585 119.793 37.0231 119.889 37.4561C119.989 37.889 120.039 38.388 120.039 38.9531V39.6572H115.418V38.625H118.829V38.4541C118.811 38.0713 118.759 37.734 118.672 37.4424C118.59 37.1507 118.453 36.9229 118.262 36.7588C118.071 36.5902 117.799 36.5059 117.448 36.5059C117.225 36.5059 117.018 36.5446 116.826 36.6221C116.64 36.695 116.478 36.8249 116.341 37.0117C116.209 37.194 116.104 37.4469 116.027 37.7705C115.954 38.0941 115.917 38.5042 115.917 39.001V39.835C115.917 40.2314 115.954 40.5732 116.027 40.8604C116.104 41.1429 116.216 41.3776 116.362 41.5645C116.512 41.7467 116.694 41.8835 116.908 41.9746C117.127 42.0612 117.376 42.1045 117.654 42.1045C118.059 42.1045 118.394 42.027 118.658 41.8721C118.923 41.7126 119.153 41.5098 119.349 41.2637L119.985 42.0225C119.852 42.2093 119.679 42.3893 119.465 42.5625C119.255 42.7311 118.996 42.8701 118.686 42.9795C118.38 43.0843 118.014 43.1367 117.585 43.1367ZM123.181 41.8584L124.766 35.6035H125.997L123.803 43H123.003L123.181 41.8584ZM121.902 35.6035L123.556 41.8926L123.686 43H122.893L120.672 35.6035H121.902ZM129.665 43.1367C129.222 43.1367 128.824 43.0706 128.468 42.9385C128.113 42.8063 127.81 42.6058 127.559 42.3369C127.308 42.0635 127.117 41.7194 126.985 41.3047C126.853 40.89 126.787 40.4001 126.787 39.835V39.001C126.787 38.3493 126.862 37.7979 127.012 37.3467C127.167 36.8955 127.374 36.5332 127.634 36.2598C127.894 35.9818 128.188 35.7812 128.516 35.6582C128.844 35.5306 129.181 35.4668 129.528 35.4668C129.993 35.4668 130.389 35.542 130.717 35.6924C131.045 35.8428 131.312 36.0661 131.517 36.3623C131.722 36.6585 131.873 37.0231 131.968 37.4561C132.069 37.889 132.119 38.388 132.119 38.9531V39.6572H127.498V38.625H130.909V38.4541C130.89 38.0713 130.838 37.734 130.751 37.4424C130.669 37.1507 130.533 36.9229 130.341 36.7588C130.15 36.5902 129.879 36.5059 129.528 36.5059C129.305 36.5059 129.097 36.5446 128.906 36.6221C128.719 36.695 128.557 36.8249 128.42 37.0117C128.288 37.194 128.183 37.4469 128.106 37.7705C128.033 38.0941 127.997 38.5042 127.997 39.001V39.835C127.997 40.2314 128.033 40.5732 128.106 40.8604C128.183 41.1429 128.295 41.3776 128.441 41.5645C128.591 41.7467 128.774 41.8835 128.988 41.9746C129.207 42.0612 129.455 42.1045 129.733 42.1045C130.138 42.1045 130.473 42.027 130.738 41.8721C131.002 41.7126 131.232 41.5098 131.428 41.2637L132.064 42.0225C131.932 42.2093 131.759 42.3893 131.544 42.5625C131.335 42.7311 131.075 42.8701 130.765 42.9795C130.46 43.0843 130.093 43.1367 129.665 43.1367ZM134.74 32.5V43H133.537V32.5H134.74ZM136.261 39.6572V38.9531C136.261 38.3789 136.334 37.8753 136.48 37.4424C136.626 37.0049 136.829 36.6403 137.089 36.3486C137.348 36.057 137.651 35.8382 137.998 35.6924C138.344 35.542 138.716 35.4668 139.112 35.4668C139.518 35.4668 139.894 35.542 140.24 35.6924C140.586 35.8382 140.889 36.057 141.149 36.3486C141.414 36.6403 141.619 37.0049 141.764 37.4424C141.91 37.8753 141.983 38.3789 141.983 38.9531V39.6572C141.983 40.2314 141.91 40.7373 141.764 41.1748C141.619 41.6077 141.416 41.9701 141.156 42.2617C140.896 42.5534 140.593 42.7721 140.247 42.918C139.9 43.0638 139.527 43.1367 139.126 43.1367C138.725 43.1367 138.351 43.0638 138.005 42.918C137.658 42.7721 137.353 42.5534 137.089 42.2617C136.829 41.9701 136.626 41.6077 136.48 41.1748C136.334 40.7373 136.261 40.2314 136.261 39.6572ZM137.471 38.9531V39.6572C137.471 40.0628 137.512 40.4183 137.594 40.7236C137.677 41.029 137.793 41.2842 137.943 41.4893C138.094 41.6943 138.269 41.8493 138.469 41.9541C138.67 42.0544 138.889 42.1045 139.126 42.1045C139.399 42.1045 139.638 42.0544 139.844 41.9541C140.053 41.8493 140.226 41.6943 140.363 41.4893C140.5 41.2842 140.602 41.029 140.671 40.7236C140.739 40.4183 140.773 40.0628 140.773 39.6572V38.9531C140.773 38.5475 140.732 38.1943 140.65 37.8936C140.568 37.5882 140.452 37.333 140.302 37.1279C140.151 36.9183 139.973 36.7633 139.768 36.6631C139.568 36.5583 139.349 36.5059 139.112 36.5059C138.88 36.5059 138.663 36.5583 138.463 36.6631C138.262 36.7633 138.087 36.9183 137.936 37.1279C137.79 37.333 137.677 37.5882 137.594 37.8936C137.512 38.1943 137.471 38.5475 137.471 38.9531ZM144.612 37.0254V45.8438H143.402V35.6035H144.502L144.612 37.0254ZM148.747 38.9668V39.6572C148.747 40.2406 148.693 40.751 148.583 41.1885C148.479 41.6214 148.321 41.9837 148.112 42.2754C147.907 42.5625 147.654 42.779 147.353 42.9248C147.052 43.0661 146.708 43.1367 146.321 43.1367C145.933 43.1367 145.596 43.0638 145.309 42.918C145.026 42.7676 144.787 42.5511 144.591 42.2686C144.4 41.986 144.247 41.6465 144.133 41.25C144.024 40.849 143.949 40.4001 143.908 39.9033V38.8506C143.949 38.3265 144.024 37.8571 144.133 37.4424C144.243 37.0231 144.393 36.6676 144.584 36.376C144.78 36.0798 145.02 35.8542 145.302 35.6992C145.589 35.5443 145.924 35.4668 146.307 35.4668C146.704 35.4668 147.052 35.5352 147.353 35.6719C147.658 35.8086 147.913 36.0205 148.119 36.3076C148.328 36.5902 148.485 36.9525 148.59 37.3945C148.695 37.832 148.747 38.3561 148.747 38.9668ZM147.537 39.6572V38.9668C147.537 38.5566 147.506 38.1989 147.442 37.8936C147.383 37.5882 147.287 37.3353 147.155 37.1348C147.023 36.9342 146.856 36.7839 146.656 36.6836C146.455 36.5833 146.214 36.5332 145.931 36.5332C145.69 36.5332 145.475 36.5833 145.288 36.6836C145.106 36.7839 144.949 36.9206 144.817 37.0938C144.685 37.2624 144.575 37.4561 144.489 37.6748C144.402 37.889 144.338 38.1123 144.297 38.3447V40.416C144.375 40.7077 144.477 40.9834 144.605 41.2432C144.732 41.4984 144.903 41.7057 145.118 41.8652C145.336 42.0247 145.612 42.1045 145.945 42.1045C146.223 42.1045 146.462 42.0544 146.662 41.9541C146.863 41.8538 147.027 41.7035 147.155 41.5029C147.287 41.2979 147.383 41.0426 147.442 40.7373C147.506 40.4274 147.537 40.0674 147.537 39.6572ZM152.812 43.1367C152.37 43.1367 151.971 43.0706 151.615 42.9385C151.26 42.8063 150.957 42.6058 150.706 42.3369C150.455 42.0635 150.264 41.7194 150.132 41.3047C150 40.89 149.934 40.4001 149.934 39.835V39.001C149.934 38.3493 150.009 37.7979 150.159 37.3467C150.314 36.8955 150.522 36.5332 150.781 36.2598C151.041 35.9818 151.335 35.7812 151.663 35.6582C151.991 35.5306 152.328 35.4668 152.675 35.4668C153.14 35.4668 153.536 35.542 153.864 35.6924C154.192 35.8428 154.459 36.0661 154.664 36.3623C154.869 36.6585 155.02 37.0231 155.115 37.4561C155.216 37.889 155.266 38.388 155.266 38.9531V39.6572H150.645V38.625H154.056V38.4541C154.037 38.0713 153.985 37.734 153.898 37.4424C153.816 37.1507 153.68 36.9229 153.488 36.7588C153.297 36.5902 153.026 36.5059 152.675 36.5059C152.452 36.5059 152.244 36.5446 152.053 36.6221C151.866 36.695 151.704 36.8249 151.567 37.0117C151.435 37.194 151.33 37.4469 151.253 37.7705C151.18 38.0941 151.144 38.5042 151.144 39.001V39.835C151.144 40.2314 151.18 40.5732 151.253 40.8604C151.33 41.1429 151.442 41.3776 151.588 41.5645C151.738 41.7467 151.921 41.8835 152.135 41.9746C152.354 42.0612 152.602 42.1045 152.88 42.1045C153.286 42.1045 153.62 42.027 153.885 41.8721C154.149 41.7126 154.379 41.5098 154.575 41.2637L155.211 42.0225C155.079 42.2093 154.906 42.3893 154.691 42.5625C154.482 42.7311 154.222 42.8701 153.912 42.9795C153.607 43.0843 153.24 43.1367 152.812 43.1367ZM157.799 36.7656V43H156.589V35.6035H157.757L157.799 36.7656ZM159.637 35.5625L159.644 36.7383C159.544 36.7155 159.453 36.7018 159.371 36.6973C159.293 36.6882 159.202 36.6836 159.097 36.6836C158.869 36.6836 158.669 36.7292 158.496 36.8203C158.327 36.9115 158.181 37.0391 158.058 37.2031C157.935 37.3672 157.837 37.5632 157.764 37.791C157.691 38.0143 157.641 38.2604 157.614 38.5293L157.299 38.7344C157.299 38.2878 157.334 37.8685 157.402 37.4766C157.475 37.0846 157.587 36.7383 157.737 36.4375C157.887 36.1322 158.079 35.8952 158.311 35.7266C158.548 35.5534 158.831 35.4668 159.159 35.4668C159.232 35.4668 159.321 35.4782 159.425 35.501C159.535 35.5192 159.605 35.5397 159.637 35.5625ZM171.143 37.0254V45.8438H169.933V35.6035H171.033L171.143 37.0254ZM175.279 38.9668V39.6572C175.279 40.2406 175.224 40.751 175.114 41.1885C175.01 41.6214 174.852 41.9837 174.643 42.2754C174.438 42.5625 174.185 42.779 173.884 42.9248C173.583 43.0661 173.239 43.1367 172.852 43.1367C172.464 43.1367 172.127 43.0638 171.84 42.918C171.558 42.7676 171.318 42.5511 171.122 42.2686C170.931 41.986 170.778 41.6465 170.664 41.25C170.555 40.849 170.48 40.4001 170.439 39.9033V38.8506C170.48 38.3265 170.555 37.8571 170.664 37.4424C170.774 37.0231 170.924 36.6676 171.115 36.376C171.311 36.0798 171.551 35.8542 171.833 35.6992C172.12 35.5443 172.455 35.4668 172.838 35.4668C173.235 35.4668 173.583 35.5352 173.884 35.6719C174.189 35.8086 174.445 36.0205 174.65 36.3076C174.859 36.5902 175.017 36.9525 175.121 37.3945C175.226 37.832 175.279 38.3561 175.279 38.9668ZM174.069 39.6572V38.9668C174.069 38.5566 174.037 38.1989 173.973 37.8936C173.914 37.5882 173.818 37.3353 173.686 37.1348C173.554 36.9342 173.387 36.7839 173.187 36.6836C172.986 36.5833 172.745 36.5332 172.462 36.5332C172.221 36.5332 172.006 36.5833 171.82 36.6836C171.637 36.7839 171.48 36.9206 171.348 37.0938C171.216 37.2624 171.106 37.4561 171.02 37.6748C170.933 37.889 170.869 38.1123 170.828 38.3447V40.416C170.906 40.7077 171.008 40.9834 171.136 41.2432C171.264 41.4984 171.434 41.7057 171.649 41.8652C171.867 42.0247 172.143 42.1045 172.476 42.1045C172.754 42.1045 172.993 42.0544 173.194 41.9541C173.394 41.8538 173.558 41.7035 173.686 41.5029C173.818 41.2979 173.914 41.0426 173.973 40.7373C174.037 40.4274 174.069 40.0674 174.069 39.6572ZM177.996 35.6035V43H176.793V35.6035H177.996ZM176.724 33.6416C176.724 33.4365 176.781 33.2633 176.895 33.1221C177.009 32.9808 177.18 32.9102 177.408 32.9102C177.636 32.9102 177.807 32.9808 177.921 33.1221C178.039 33.2633 178.099 33.4365 178.099 33.6416C178.099 33.8376 178.039 34.0062 177.921 34.1475C177.807 34.2842 177.636 34.3525 177.408 34.3525C177.18 34.3525 177.009 34.2842 176.895 34.1475C176.781 34.0062 176.724 33.8376 176.724 33.6416ZM183.393 41.7354V37.7227C183.393 37.431 183.348 37.1963 183.256 37.0186C183.17 36.8408 183.038 36.7109 182.86 36.6289C182.687 36.5469 182.468 36.5059 182.204 36.5059C181.948 36.5059 181.727 36.5583 181.541 36.6631C181.358 36.7679 181.217 36.9069 181.117 37.0801C181.021 37.2533 180.973 37.4447 180.973 37.6543H179.763C179.763 37.39 179.82 37.1279 179.934 36.8682C180.053 36.6084 180.221 36.3737 180.44 36.1641C180.659 35.9499 180.921 35.7812 181.226 35.6582C181.536 35.5306 181.882 35.4668 182.265 35.4668C182.721 35.4668 183.124 35.542 183.475 35.6924C183.826 35.8382 184.102 36.0775 184.302 36.4102C184.503 36.7428 184.603 37.1849 184.603 37.7363V41.3867C184.603 41.6328 184.621 41.8949 184.658 42.1729C184.699 42.4508 184.756 42.6901 184.829 42.8906V43H183.578C183.518 42.8542 183.473 42.6605 183.441 42.4189C183.409 42.1729 183.393 41.945 183.393 41.7354ZM183.584 38.5156L183.598 39.4043H182.757C182.47 39.4043 182.208 39.4362 181.971 39.5C181.739 39.5638 181.538 39.6572 181.37 39.7803C181.201 39.8988 181.071 40.0469 180.98 40.2246C180.893 40.4023 180.85 40.6051 180.85 40.833C180.85 41.1292 180.891 41.3662 180.973 41.5439C181.055 41.7171 181.178 41.8424 181.342 41.9199C181.506 41.9974 181.714 42.0361 181.964 42.0361C182.27 42.0361 182.539 41.9655 182.771 41.8242C183.003 41.6829 183.183 41.512 183.311 41.3115C183.443 41.111 183.505 40.9242 183.496 40.751L183.762 41.3184C183.744 41.4961 183.685 41.6898 183.584 41.8994C183.489 42.1045 183.354 42.3027 183.181 42.4941C183.008 42.681 182.803 42.8359 182.566 42.959C182.334 43.0775 182.071 43.1367 181.78 43.1367C181.351 43.1367 180.975 43.0547 180.652 42.8906C180.333 42.7266 180.084 42.485 179.907 42.166C179.729 41.847 179.64 41.4528 179.64 40.9834C179.64 40.6279 179.702 40.2998 179.825 39.999C179.948 39.6982 180.13 39.4385 180.372 39.2197C180.613 38.9964 180.916 38.8232 181.281 38.7002C181.65 38.5771 182.076 38.5156 182.559 38.5156H183.584ZM187.553 37.1826V43H186.343V35.6035H187.485L187.553 37.1826ZM187.259 39.0215L186.767 39.001C186.762 38.4951 186.819 38.028 186.938 37.5996C187.061 37.1667 187.234 36.7907 187.457 36.4717C187.685 36.1527 187.956 35.9066 188.271 35.7334C188.585 35.5557 188.934 35.4668 189.317 35.4668C189.617 35.4668 189.891 35.5169 190.137 35.6172C190.383 35.7129 190.593 35.8678 190.766 36.082C190.939 36.2962 191.071 36.5742 191.162 36.916C191.258 37.2533 191.306 37.6657 191.306 38.1533V43H190.096V38.1396C190.096 37.7523 190.053 37.4424 189.966 37.21C189.884 36.973 189.756 36.8021 189.583 36.6973C189.415 36.5879 189.2 36.5332 188.941 36.5332C188.704 36.5332 188.483 36.5993 188.277 36.7314C188.072 36.8636 187.892 37.0459 187.737 37.2783C187.587 37.5107 187.469 37.7773 187.382 38.0781C187.3 38.3743 187.259 38.6888 187.259 39.0215ZM194.283 35.6035V43H193.08V35.6035H194.283ZM193.012 33.6416C193.012 33.4365 193.068 33.2633 193.182 33.1221C193.296 32.9808 193.467 32.9102 193.695 32.9102C193.923 32.9102 194.094 32.9808 194.208 33.1221C194.326 33.2633 194.386 33.4365 194.386 33.6416C194.386 33.8376 194.326 34.0062 194.208 34.1475C194.094 34.2842 193.923 34.3525 193.695 34.3525C193.467 34.3525 193.296 34.2842 193.182 34.1475C193.068 34.0062 193.012 33.8376 193.012 33.6416ZM199.646 41.1064C199.646 40.9196 199.6 40.7555 199.509 40.6143C199.418 40.473 199.268 40.3363 199.058 40.2041C198.853 40.0719 198.575 39.9307 198.224 39.7803C197.882 39.639 197.575 39.5 197.301 39.3633C197.032 39.222 196.804 39.0693 196.618 38.9053C196.431 38.7412 196.287 38.5521 196.187 38.3379C196.091 38.1191 196.043 37.8617 196.043 37.5654C196.043 37.2692 196.098 36.9958 196.207 36.7451C196.321 36.4899 196.481 36.2666 196.686 36.0752C196.891 35.8838 197.137 35.7357 197.424 35.6309C197.711 35.5215 198.033 35.4668 198.388 35.4668C198.894 35.4668 199.325 35.5648 199.68 35.7607C200.036 35.9567 200.307 36.2256 200.494 36.5674C200.685 36.9046 200.781 37.2852 200.781 37.709H199.578C199.578 37.5039 199.532 37.3102 199.441 37.1279C199.35 36.9456 199.215 36.7975 199.038 36.6836C198.86 36.5651 198.643 36.5059 198.388 36.5059C198.119 36.5059 197.9 36.5537 197.732 36.6494C197.563 36.7451 197.44 36.8704 197.363 37.0254C197.29 37.1758 197.253 37.3421 197.253 37.5244C197.253 37.6611 197.272 37.7796 197.308 37.8799C197.349 37.9756 197.417 38.0667 197.513 38.1533C197.609 38.2354 197.739 38.3219 197.903 38.4131C198.071 38.4997 198.286 38.5999 198.545 38.7139C199.047 38.9098 199.468 39.1081 199.81 39.3086C200.152 39.5091 200.412 39.7438 200.589 40.0127C200.767 40.2816 200.856 40.6143 200.856 41.0107C200.856 41.3343 200.797 41.6283 200.678 41.8926C200.564 42.1523 200.4 42.3757 200.186 42.5625C199.972 42.7493 199.714 42.8929 199.414 42.9932C199.117 43.0889 198.785 43.1367 198.415 43.1367C197.859 43.1367 197.388 43.0273 197 42.8086C196.618 42.5853 196.326 42.2959 196.125 41.9404C195.929 41.5804 195.831 41.1953 195.831 40.7852H197.041C197.055 41.1315 197.133 41.4004 197.274 41.5918C197.42 41.7832 197.595 41.9154 197.8 41.9883C198.005 42.0612 198.21 42.0977 198.415 42.0977C198.684 42.0977 198.91 42.0589 199.092 41.9814C199.275 41.8994 199.411 41.7832 199.502 41.6328C199.598 41.4824 199.646 41.307 199.646 41.1064ZM205.002 35.6035V36.5742H201.55V35.6035H205.002ZM202.678 33.8057H203.888V41.168C203.888 41.4186 203.917 41.6077 203.977 41.7354C204.04 41.863 204.12 41.9473 204.216 41.9883C204.312 42.0293 204.414 42.0498 204.524 42.0498C204.606 42.0498 204.697 42.0407 204.797 42.0225C204.897 41.9997 204.966 41.9814 205.002 41.9678L204.995 43C204.913 43.0319 204.804 43.0615 204.667 43.0889C204.53 43.1208 204.357 43.1367 204.148 43.1367C203.888 43.1367 203.646 43.0752 203.423 42.9521C203.2 42.8291 203.02 42.624 202.883 42.3369C202.746 42.0452 202.678 41.6533 202.678 41.1611V33.8057ZM209.927 41.7354V37.7227C209.927 37.431 209.882 37.1963 209.791 37.0186C209.704 36.8408 209.572 36.7109 209.394 36.6289C209.221 36.5469 209.002 36.5059 208.738 36.5059C208.483 36.5059 208.262 36.5583 208.075 36.6631C207.893 36.7679 207.751 36.9069 207.651 37.0801C207.555 37.2533 207.508 37.4447 207.508 37.6543H206.298C206.298 37.39 206.355 37.1279 206.468 36.8682C206.587 36.6084 206.756 36.3737 206.974 36.1641C207.193 35.9499 207.455 35.7812 207.76 35.6582C208.07 35.5306 208.417 35.4668 208.8 35.4668C209.255 35.4668 209.659 35.542 210.009 35.6924C210.36 35.8382 210.636 36.0775 210.837 36.4102C211.037 36.7428 211.137 37.1849 211.137 37.7363V41.3867C211.137 41.6328 211.156 41.8949 211.192 42.1729C211.233 42.4508 211.29 42.6901 211.363 42.8906V43H210.112C210.053 42.8542 210.007 42.6605 209.975 42.4189C209.943 42.1729 209.927 41.945 209.927 41.7354ZM210.119 38.5156L210.133 39.4043H209.292C209.005 39.4043 208.743 39.4362 208.506 39.5C208.273 39.5638 208.073 39.6572 207.904 39.7803C207.735 39.8988 207.606 40.0469 207.514 40.2246C207.428 40.4023 207.384 40.6051 207.384 40.833C207.384 41.1292 207.426 41.3662 207.508 41.5439C207.59 41.7171 207.713 41.8424 207.877 41.9199C208.041 41.9974 208.248 42.0361 208.499 42.0361C208.804 42.0361 209.073 41.9655 209.305 41.8242C209.538 41.6829 209.718 41.512 209.845 41.3115C209.978 41.111 210.039 40.9242 210.03 40.751L210.297 41.3184C210.278 41.4961 210.219 41.6898 210.119 41.8994C210.023 42.1045 209.889 42.3027 209.716 42.4941C209.542 42.681 209.337 42.8359 209.1 42.959C208.868 43.0775 208.606 43.1367 208.314 43.1367C207.886 43.1367 207.51 43.0547 207.186 42.8906C206.867 42.7266 206.619 42.485 206.441 42.166C206.263 41.847 206.175 41.4528 206.175 40.9834C206.175 40.6279 206.236 40.2998 206.359 39.999C206.482 39.6982 206.664 39.4385 206.906 39.2197C207.148 38.9964 207.451 38.8232 207.815 38.7002C208.184 38.5771 208.61 38.5156 209.093 38.5156H210.119Z" fill="currentColor" fill-opacity="80%"/>
</svg>
