<svg width="215" height="46" viewBox="0 0 215 46" fill="none" xmlns="http://www.w3.org/2000/svg">
<path d="M7.68 29.3C6.16 29.3 4.94 28.98 4.02 28.34C3.12 27.68 2.46 26.73 2.04 25.49C1.64 24.25 1.44 22.76 1.44 21.02V12.89C1.44 11.11 1.62 9.6 1.98 8.36C2.36 7.1 3.02 6.14 3.96 5.48C4.92 4.82 6.25 4.49 7.95 4.49C9.47 4.49 10.69 4.75 11.61 5.27C12.55 5.77 13.23 6.55 13.65 7.61C14.07 8.65 14.28 9.97 14.28 11.57V12.47H11.1V11.72C11.1 10.66 11.03 9.8 10.89 9.14C10.75 8.46 10.46 7.96 10.02 7.64C9.6 7.3 8.93 7.13 8.01 7.13C7.01 7.13 6.28 7.36 5.82 7.82C5.38 8.28 5.1 8.91 4.98 9.71C4.88 10.49 4.83 11.38 4.83 12.38V21.38C4.83 22.54 4.91 23.51 5.07 24.29C5.25 25.07 5.58 25.65 6.06 26.03C6.54 26.41 7.22 26.6 8.1 26.6C8.98 26.6 9.66 26.39 10.14 25.97C10.62 25.55 10.95 24.93 11.13 24.11C11.31 23.29 11.4 22.27 11.4 21.05V19.37H8.31V16.97H14.46V29H12.33L12 26.21C11.68 27.11 11.18 27.85 10.5 28.43C9.82 29.01 8.88 29.3 7.68 29.3ZM18.1247 29V4.7H21.4547V29H18.1247ZM31.6561 29.27C29.8961 29.27 28.5461 28.92 27.6061 28.22C26.6661 27.52 26.0261 26.54 25.6861 25.28C25.3461 24 25.1761 22.51 25.1761 20.81V4.7H28.4161V20.96C28.4161 22 28.4861 22.95 28.6261 23.81C28.7661 24.67 29.0661 25.35 29.5261 25.85C30.0061 26.35 30.7161 26.6 31.6561 26.6C32.6161 26.6 33.3261 26.35 33.7861 25.85C34.2461 25.35 34.5461 24.67 34.6861 23.81C34.8261 22.95 34.8961 22 34.8961 20.96V4.7H38.1061V20.81C38.1061 22.51 37.9361 24 37.5961 25.28C37.2561 26.54 36.6161 27.52 35.6761 28.22C34.7561 28.92 33.4161 29.27 31.6561 29.27ZM47.4052 29.27C46.0052 29.27 44.8352 28.97 43.8952 28.37C42.9752 27.77 42.2752 26.94 41.7952 25.88C41.3152 24.82 41.0352 23.59 40.9552 22.19L43.9552 21.38C44.0152 22.24 44.1452 23.07 44.3452 23.87C44.5652 24.67 44.9152 25.33 45.3952 25.85C45.8752 26.35 46.5452 26.6 47.4052 26.6C48.2852 26.6 48.9452 26.36 49.3852 25.88C49.8452 25.38 50.0752 24.67 50.0752 23.75C50.0752 22.65 49.8252 21.77 49.3252 21.11C48.8252 20.43 48.1952 19.75 47.4352 19.07L43.3552 15.47C42.5552 14.77 41.9652 14.01 41.5852 13.19C41.2052 12.35 41.0152 11.32 41.0152 10.1C41.0152 8.32 41.5252 6.94 42.5452 5.96C43.5652 4.98 44.9552 4.49 46.7152 4.49C47.6752 4.49 48.5152 4.62 49.2352 4.88C49.9752 5.12 50.5852 5.5 51.0652 6.02C51.5652 6.54 51.9552 7.2 52.2352 8C52.5352 8.78 52.7352 9.7 52.8352 10.76L49.9552 11.54C49.8952 10.74 49.7752 10.01 49.5952 9.35C49.4152 8.67 49.0952 8.13 48.6352 7.73C48.1952 7.31 47.5552 7.1 46.7152 7.1C45.8752 7.1 45.2152 7.33 44.7352 7.79C44.2752 8.23 44.0452 8.89 44.0452 9.77C44.0452 10.51 44.1652 11.12 44.4052 11.6C44.6652 12.08 45.0752 12.57 45.6352 13.07L49.7452 16.67C50.6652 17.47 51.4752 18.43 52.1752 19.55C52.8752 20.65 53.2252 21.96 53.2252 23.48C53.2252 24.68 52.9752 25.72 52.4752 26.6C51.9752 27.46 51.2852 28.12 50.4052 28.58C49.5452 29.04 48.5452 29.27 47.4052 29.27ZM55.8548 29V4.7H65.2748V7.22H59.2448V15.26H64.1348V17.66H59.2448V26.57H65.3348V29H55.8548ZM68.0716 29V4.7H74.1016C75.5616 4.7 76.7216 4.97 77.5816 5.51C78.4616 6.03 79.1016 6.79 79.5016 7.79C79.9016 8.79 80.1016 10 80.1016 11.42C80.1016 12.7 79.8716 13.81 79.4116 14.75C78.9716 15.69 78.3116 16.42 77.4316 16.94C76.5516 17.44 75.4516 17.69 74.1316 17.69H71.4616V29H68.0716ZM71.4616 15.26H73.0216C74.0016 15.26 74.7716 15.15 75.3316 14.93C75.8916 14.71 76.2916 14.33 76.5316 13.79C76.7716 13.23 76.8916 12.45 76.8916 11.45C76.8916 10.29 76.8016 9.4 76.6216 8.78C76.4616 8.16 76.1116 7.73 75.5716 7.49C75.0316 7.25 74.1916 7.13 73.0516 7.13H71.4616V15.26ZM82.4857 29V4.7H88.5157C89.9757 4.7 91.1357 4.97 91.9957 5.51C92.8757 6.03 93.5157 6.79 93.9157 7.79C94.3157 8.79 94.5157 10 94.5157 11.42C94.5157 12.7 94.2857 13.81 93.8257 14.75C93.3857 15.69 92.7257 16.42 91.8457 16.94C90.9657 17.44 89.8657 17.69 88.5457 17.69H85.8757V29H82.4857ZM85.8757 15.26H87.4357C88.4157 15.26 89.1857 15.15 89.7457 14.93C90.3057 14.71 90.7057 14.33 90.9457 13.79C91.1857 13.23 91.3057 12.45 91.3057 11.45C91.3057 10.29 91.2157 9.4 91.0357 8.78C90.8757 8.16 90.5257 7.73 89.9857 7.49C89.4457 7.25 88.6057 7.13 87.4657 7.13H85.8757V15.26ZM96.8998 29V4.7H106.32V7.22H100.29V15.26H105.18V17.66H100.29V26.57H106.38V29H96.8998ZM121.702 29.27C120.302 29.27 119.132 28.97 118.192 28.37C117.272 27.77 116.572 26.94 116.092 25.88C115.612 24.82 115.332 23.59 115.252 22.19L118.252 21.38C118.312 22.24 118.442 23.07 118.642 23.87C118.862 24.67 119.212 25.33 119.692 25.85C120.172 26.35 120.842 26.6 121.702 26.6C122.582 26.6 123.242 26.36 123.682 25.88C124.142 25.38 124.372 24.67 124.372 23.75C124.372 22.65 124.122 21.77 123.622 21.11C123.122 20.43 122.492 19.75 121.732 19.07L117.652 15.47C116.852 14.77 116.262 14.01 115.882 13.19C115.502 12.35 115.312 11.32 115.312 10.1C115.312 8.32 115.822 6.94 116.842 5.96C117.862 4.98 119.252 4.49 121.012 4.49C121.972 4.49 122.812 4.62 123.532 4.88C124.272 5.12 124.882 5.5 125.362 6.02C125.862 6.54 126.252 7.2 126.532 8C126.832 8.78 127.032 9.7 127.132 10.76L124.252 11.54C124.192 10.74 124.072 10.01 123.892 9.35C123.712 8.67 123.392 8.13 122.932 7.73C122.492 7.31 121.852 7.1 121.012 7.1C120.172 7.1 119.512 7.33 119.032 7.79C118.572 8.23 118.342 8.89 118.342 9.77C118.342 10.51 118.462 11.12 118.702 11.6C118.962 12.08 119.372 12.57 119.932 13.07L124.042 16.67C124.962 17.47 125.772 18.43 126.472 19.55C127.172 20.65 127.522 21.96 127.522 23.48C127.522 24.68 127.272 25.72 126.772 26.6C126.272 27.46 125.582 28.12 124.702 28.58C123.842 29.04 122.842 29.27 121.702 29.27ZM130.152 29V4.7H136.182C137.642 4.7 138.802 4.97 139.662 5.51C140.542 6.03 141.182 6.79 141.582 7.79C141.982 8.79 142.182 10 142.182 11.42C142.182 12.7 141.952 13.81 141.492 14.75C141.052 15.69 140.392 16.42 139.512 16.94C138.632 17.44 137.532 17.69 136.212 17.69H133.542V29H130.152ZM133.542 15.26H135.102C136.082 15.26 136.852 15.15 137.412 14.93C137.972 14.71 138.372 14.33 138.612 13.79C138.852 13.23 138.972 12.45 138.972 11.45C138.972 10.29 138.882 9.4 138.702 8.78C138.542 8.16 138.192 7.73 137.652 7.49C137.112 7.25 136.272 7.13 135.132 7.13H133.542V15.26ZM142.103 29L147.263 4.7H150.533L155.723 29H152.513L151.403 22.88H146.453L145.283 29H142.103ZM146.903 20.45H150.953L148.913 9.5L146.903 20.45ZM159.892 29V7.22H155.782V4.7H167.272V7.22H163.282V29H159.892ZM168.236 29L173.396 4.7H176.666L181.856 29H178.646L177.536 22.88H172.586L171.416 29H168.236ZM173.036 20.45H177.086L175.046 9.5L173.036 20.45ZM184.322 29V4.7H189.212C190.832 4.7 192.172 4.92 193.232 5.36C194.292 5.78 195.072 6.47 195.572 7.43C196.092 8.37 196.352 9.61 196.352 11.15C196.352 12.09 196.252 12.95 196.052 13.73C195.852 14.49 195.532 15.14 195.092 15.68C194.652 16.2 194.072 16.58 193.352 16.82L196.802 29H193.532L190.352 17.6H187.712V29H184.322ZM187.712 15.17H189.002C189.962 15.17 190.742 15.05 191.342 14.81C191.942 14.57 192.382 14.16 192.662 13.58C192.942 13 193.082 12.19 193.082 11.15C193.082 9.73 192.822 8.71 192.302 8.09C191.782 7.45 190.752 7.13 189.212 7.13H187.712V15.17ZM206.088 29.27C204.448 29.27 203.138 28.95 202.158 28.31C201.178 27.67 200.478 26.76 200.058 25.58C199.638 24.38 199.428 22.98 199.428 21.38V12.17C199.428 10.57 199.638 9.2 200.058 8.06C200.498 6.9 201.198 6.02 202.158 5.42C203.138 4.8 204.448 4.49 206.088 4.49C207.728 4.49 209.028 4.8 209.988 5.42C210.948 6.04 211.638 6.92 212.058 8.06C212.498 9.2 212.718 10.57 212.718 12.17V21.41C212.718 22.99 212.498 24.37 212.058 25.55C211.638 26.73 210.948 27.65 209.988 28.31C209.028 28.95 207.728 29.27 206.088 29.27ZM206.088 26.6C206.988 26.6 207.668 26.42 208.128 26.06C208.588 25.68 208.898 25.16 209.058 24.5C209.218 23.82 209.298 23.03 209.298 22.13V11.48C209.298 10.58 209.218 9.81 209.058 9.17C208.898 8.51 208.588 8.01 208.128 7.67C207.668 7.31 206.988 7.13 206.088 7.13C205.188 7.13 204.498 7.31 204.018 7.67C203.558 8.01 203.248 8.51 203.088 9.17C202.928 9.81 202.848 10.58 202.848 11.48V22.13C202.848 23.03 202.928 23.82 203.088 24.5C203.248 25.16 203.558 25.68 204.018 26.06C204.498 26.42 205.188 26.6 206.088 26.6Z" fill="#121112"/>
<circle cx="165.5" cy="39.5" r="1.5" transform="rotate(-90 165.5 39.5)" fill="#393739"/>
<path d="M85.4268 41.6875L87.0605 35.6035H87.8467L87.7578 36.8135L86.1172 43H85.3584L85.4268 41.6875ZM84.5381 35.6035L85.9121 41.7559L85.9463 43H85.1465L83.3418 35.6035H84.5381ZM89.248 41.708L90.5469 35.6035H91.7363L89.9316 43H89.1455L89.248 41.708ZM88.0176 35.6035L89.6104 41.585L89.7197 43H88.9678L87.2725 36.7998L87.1836 35.6035H88.0176ZM95.5202 43.1367C95.0781 43.1367 94.6793 43.0706 94.3239 42.9385C93.9684 42.8063 93.6653 42.6058 93.4147 42.3369C93.164 42.0635 92.9726 41.7194 92.8405 41.3047C92.7083 40.89 92.6422 40.4001 92.6422 39.835V39.001C92.6422 38.3493 92.7174 37.7979 92.8678 37.3467C93.0228 36.8955 93.2301 36.5332 93.4899 36.2598C93.7496 35.9818 94.0436 35.7812 94.3717 35.6582C94.6998 35.5306 95.0371 35.4668 95.3834 35.4668C95.8483 35.4668 96.2448 35.542 96.5729 35.6924C96.901 35.8428 97.1676 36.0661 97.3727 36.3623C97.5778 36.6585 97.7282 37.0231 97.8239 37.4561C97.9241 37.889 97.9743 38.388 97.9743 38.9531V39.6572H93.3532V38.625H96.7643V38.4541C96.7461 38.0713 96.6937 37.734 96.6071 37.4424C96.525 37.1507 96.3883 36.9229 96.1969 36.7588C96.0055 36.5902 95.7343 36.5059 95.3834 36.5059C95.1601 36.5059 94.9528 36.5446 94.7614 36.6221C94.5745 36.695 94.4127 36.8249 94.276 37.0117C94.1439 37.194 94.039 37.4469 93.9616 37.7705C93.8886 38.0941 93.8522 38.5042 93.8522 39.001V39.835C93.8522 40.2314 93.8886 40.5732 93.9616 40.8604C94.039 41.1429 94.1507 41.3776 94.2965 41.5645C94.4469 41.7467 94.6292 41.8835 94.8434 41.9746C95.0621 42.0612 95.3105 42.1045 95.5885 42.1045C95.9941 42.1045 96.3291 42.027 96.5934 41.8721C96.8577 41.7126 97.0879 41.5098 97.2838 41.2637L97.9196 42.0225C97.7874 42.2093 97.6142 42.3893 97.4 42.5625C97.1904 42.7311 96.9306 42.8701 96.6207 42.9795C96.3154 43.0843 95.9485 43.1367 95.5202 43.1367ZM99.2971 32.5H100.507V41.5645L100.405 43H99.2971V32.5ZM104.657 38.9668V39.6572C104.657 40.2406 104.602 40.751 104.492 41.1885C104.388 41.6214 104.23 41.9837 104.021 42.2754C103.811 42.5625 103.556 42.779 103.255 42.9248C102.954 43.0661 102.61 43.1367 102.223 43.1367C101.84 43.1367 101.51 43.0592 101.232 42.9043C100.954 42.7493 100.721 42.526 100.534 42.2344C100.348 41.9427 100.199 41.5895 100.09 41.1748C99.9853 40.7601 99.9124 40.293 99.8714 39.7734V38.8506C99.9124 38.3265 99.9853 37.8571 100.09 37.4424C100.195 37.0231 100.341 36.6676 100.528 36.376C100.714 36.0798 100.947 35.8542 101.225 35.6992C101.503 35.5443 101.833 35.4668 102.216 35.4668C102.608 35.4668 102.954 35.5352 103.255 35.6719C103.56 35.8086 103.816 36.0205 104.021 36.3076C104.23 36.5902 104.388 36.9525 104.492 37.3945C104.602 37.832 104.657 38.3561 104.657 38.9668ZM103.447 39.6572V38.9668C103.447 38.5566 103.419 38.1989 103.365 37.8936C103.314 37.5882 103.23 37.3353 103.112 37.1348C102.993 36.9342 102.834 36.7839 102.633 36.6836C102.437 36.5833 102.193 36.5332 101.902 36.5332C101.656 36.5332 101.439 36.5833 101.252 36.6836C101.07 36.7839 100.913 36.9206 100.781 37.0938C100.648 37.2624 100.539 37.4561 100.452 37.6748C100.366 37.889 100.302 38.1123 100.261 38.3447V40.2861C100.32 40.5824 100.414 40.8672 100.541 41.1406C100.673 41.4095 100.851 41.6305 101.074 41.8037C101.298 41.9769 101.576 42.0635 101.908 42.0635C102.186 42.0635 102.421 42.0156 102.613 41.9199C102.809 41.8242 102.968 41.6784 103.091 41.4824C103.214 41.2819 103.303 41.0312 103.358 40.7305C103.417 40.4251 103.447 40.0674 103.447 39.6572ZM113.01 41.5645V32.5H114.213V43H113.113L113.01 41.5645ZM108.875 39.6572V38.9668C108.875 38.3561 108.934 37.832 109.052 37.3945C109.171 36.9525 109.339 36.5902 109.558 36.3076C109.777 36.0205 110.039 35.8086 110.344 35.6719C110.65 35.5352 110.987 35.4668 111.356 35.4668C111.739 35.4668 112.067 35.5443 112.34 35.6992C112.618 35.8542 112.851 36.0798 113.038 36.376C113.225 36.6676 113.37 37.0231 113.475 37.4424C113.585 37.8571 113.657 38.3265 113.694 38.8506V39.7734C113.653 40.293 113.578 40.7601 113.468 41.1748C113.364 41.5895 113.218 41.9427 113.031 42.2344C112.844 42.526 112.612 42.7493 112.334 42.9043C112.056 43.0592 111.725 43.1367 111.342 43.1367C110.978 43.1367 110.645 43.0661 110.344 42.9248C110.044 42.779 109.781 42.5625 109.558 42.2754C109.339 41.9837 109.171 41.6214 109.052 41.1885C108.934 40.751 108.875 40.2406 108.875 39.6572ZM110.085 38.9668V39.6572C110.085 40.0674 110.114 40.4251 110.173 40.7305C110.233 41.0312 110.326 41.2819 110.454 41.4824C110.581 41.6784 110.743 41.8242 110.939 41.9199C111.14 42.0156 111.379 42.0635 111.657 42.0635C111.994 42.0635 112.27 41.9814 112.484 41.8174C112.698 41.6533 112.869 41.4368 112.997 41.168C113.129 40.8945 113.234 40.6006 113.311 40.2861V38.3447C113.266 38.1123 113.199 37.889 113.113 37.6748C113.026 37.4561 112.917 37.2624 112.785 37.0938C112.657 36.9206 112.5 36.7839 112.313 36.6836C112.131 36.5833 111.917 36.5332 111.67 36.5332C111.392 36.5332 111.151 36.5833 110.946 36.6836C110.745 36.7839 110.581 36.9342 110.454 37.1348C110.331 37.3353 110.237 37.5882 110.173 37.8936C110.114 38.1989 110.085 38.5566 110.085 38.9668ZM118.585 43.1367C118.143 43.1367 117.744 43.0706 117.389 42.9385C117.033 42.8063 116.73 42.6058 116.48 42.3369C116.229 42.0635 116.038 41.7194 115.905 41.3047C115.773 40.89 115.707 40.4001 115.707 39.835V39.001C115.707 38.3493 115.782 37.7979 115.933 37.3467C116.088 36.8955 116.295 36.5332 116.555 36.2598C116.815 35.9818 117.109 35.7812 117.437 35.6582C117.765 35.5306 118.102 35.4668 118.448 35.4668C118.913 35.4668 119.31 35.542 119.638 35.6924C119.966 35.8428 120.233 36.0661 120.438 36.3623C120.643 36.6585 120.793 37.0231 120.889 37.4561C120.989 37.889 121.039 38.388 121.039 38.9531V39.6572H116.418V38.625H119.829V38.4541C119.811 38.0713 119.759 37.734 119.672 37.4424C119.59 37.1507 119.453 36.9229 119.262 36.7588C119.071 36.5902 118.799 36.5059 118.448 36.5059C118.225 36.5059 118.018 36.5446 117.826 36.6221C117.64 36.695 117.478 36.8249 117.341 37.0117C117.209 37.194 117.104 37.4469 117.027 37.7705C116.954 38.0941 116.917 38.5042 116.917 39.001V39.835C116.917 40.2314 116.954 40.5732 117.027 40.8604C117.104 41.1429 117.216 41.3776 117.362 41.5645C117.512 41.7467 117.694 41.8835 117.908 41.9746C118.127 42.0612 118.376 42.1045 118.654 42.1045C119.059 42.1045 119.394 42.027 119.658 41.8721C119.923 41.7126 120.153 41.5098 120.349 41.2637L120.985 42.0225C120.852 42.2093 120.679 42.3893 120.465 42.5625C120.255 42.7311 119.996 42.8701 119.686 42.9795C119.38 43.0843 119.014 43.1367 118.585 43.1367ZM124.181 41.8584L125.766 35.6035H126.997L124.803 43H124.003L124.181 41.8584ZM122.902 35.6035L124.556 41.8926L124.686 43H123.893L121.672 35.6035H122.902ZM130.665 43.1367C130.222 43.1367 129.824 43.0706 129.468 42.9385C129.113 42.8063 128.81 42.6058 128.559 42.3369C128.308 42.0635 128.117 41.7194 127.985 41.3047C127.853 40.89 127.787 40.4001 127.787 39.835V39.001C127.787 38.3493 127.862 37.7979 128.012 37.3467C128.167 36.8955 128.374 36.5332 128.634 36.2598C128.894 35.9818 129.188 35.7812 129.516 35.6582C129.844 35.5306 130.181 35.4668 130.528 35.4668C130.993 35.4668 131.389 35.542 131.717 35.6924C132.045 35.8428 132.312 36.0661 132.517 36.3623C132.722 36.6585 132.873 37.0231 132.968 37.4561C133.069 37.889 133.119 38.388 133.119 38.9531V39.6572H128.498V38.625H131.909V38.4541C131.89 38.0713 131.838 37.734 131.751 37.4424C131.669 37.1507 131.533 36.9229 131.341 36.7588C131.15 36.5902 130.879 36.5059 130.528 36.5059C130.305 36.5059 130.097 36.5446 129.906 36.6221C129.719 36.695 129.557 36.8249 129.42 37.0117C129.288 37.194 129.183 37.4469 129.106 37.7705C129.033 38.0941 128.997 38.5042 128.997 39.001V39.835C128.997 40.2314 129.033 40.5732 129.106 40.8604C129.183 41.1429 129.295 41.3776 129.441 41.5645C129.591 41.7467 129.774 41.8835 129.988 41.9746C130.207 42.0612 130.455 42.1045 130.733 42.1045C131.138 42.1045 131.473 42.027 131.738 41.8721C132.002 41.7126 132.232 41.5098 132.428 41.2637L133.064 42.0225C132.932 42.2093 132.759 42.3893 132.544 42.5625C132.335 42.7311 132.075 42.8701 131.765 42.9795C131.46 43.0843 131.093 43.1367 130.665 43.1367ZM135.74 32.5V43H134.537V32.5H135.74ZM137.261 39.6572V38.9531C137.261 38.3789 137.334 37.8753 137.48 37.4424C137.626 37.0049 137.829 36.6403 138.089 36.3486C138.348 36.057 138.651 35.8382 138.998 35.6924C139.344 35.542 139.716 35.4668 140.112 35.4668C140.518 35.4668 140.894 35.542 141.24 35.6924C141.586 35.8382 141.889 36.057 142.149 36.3486C142.414 36.6403 142.619 37.0049 142.764 37.4424C142.91 37.8753 142.983 38.3789 142.983 38.9531V39.6572C142.983 40.2314 142.91 40.7373 142.764 41.1748C142.619 41.6077 142.416 41.9701 142.156 42.2617C141.896 42.5534 141.593 42.7721 141.247 42.918C140.9 43.0638 140.527 43.1367 140.126 43.1367C139.725 43.1367 139.351 43.0638 139.005 42.918C138.658 42.7721 138.353 42.5534 138.089 42.2617C137.829 41.9701 137.626 41.6077 137.48 41.1748C137.334 40.7373 137.261 40.2314 137.261 39.6572ZM138.471 38.9531V39.6572C138.471 40.0628 138.512 40.4183 138.594 40.7236C138.677 41.029 138.793 41.2842 138.943 41.4893C139.094 41.6943 139.269 41.8493 139.469 41.9541C139.67 42.0544 139.889 42.1045 140.126 42.1045C140.399 42.1045 140.638 42.0544 140.844 41.9541C141.053 41.8493 141.226 41.6943 141.363 41.4893C141.5 41.2842 141.602 41.029 141.671 40.7236C141.739 40.4183 141.773 40.0628 141.773 39.6572V38.9531C141.773 38.5475 141.732 38.1943 141.65 37.8936C141.568 37.5882 141.452 37.333 141.302 37.1279C141.151 36.9183 140.973 36.7633 140.768 36.6631C140.568 36.5583 140.349 36.5059 140.112 36.5059C139.88 36.5059 139.663 36.5583 139.463 36.6631C139.262 36.7633 139.087 36.9183 138.936 37.1279C138.79 37.333 138.677 37.5882 138.594 37.8936C138.512 38.1943 138.471 38.5475 138.471 38.9531ZM145.612 37.0254V45.8438H144.402V35.6035H145.502L145.612 37.0254ZM149.747 38.9668V39.6572C149.747 40.2406 149.693 40.751 149.583 41.1885C149.479 41.6214 149.321 41.9837 149.112 42.2754C148.907 42.5625 148.654 42.779 148.353 42.9248C148.052 43.0661 147.708 43.1367 147.321 43.1367C146.933 43.1367 146.596 43.0638 146.309 42.918C146.026 42.7676 145.787 42.5511 145.591 42.2686C145.4 41.986 145.247 41.6465 145.133 41.25C145.024 40.849 144.949 40.4001 144.908 39.9033V38.8506C144.949 38.3265 145.024 37.8571 145.133 37.4424C145.243 37.0231 145.393 36.6676 145.584 36.376C145.78 36.0798 146.02 35.8542 146.302 35.6992C146.589 35.5443 146.924 35.4668 147.307 35.4668C147.704 35.4668 148.052 35.5352 148.353 35.6719C148.658 35.8086 148.913 36.0205 149.119 36.3076C149.328 36.5902 149.485 36.9525 149.59 37.3945C149.695 37.832 149.747 38.3561 149.747 38.9668ZM148.537 39.6572V38.9668C148.537 38.5566 148.506 38.1989 148.442 37.8936C148.383 37.5882 148.287 37.3353 148.155 37.1348C148.023 36.9342 147.856 36.7839 147.656 36.6836C147.455 36.5833 147.214 36.5332 146.931 36.5332C146.69 36.5332 146.475 36.5833 146.288 36.6836C146.106 36.7839 145.949 36.9206 145.817 37.0938C145.685 37.2624 145.575 37.4561 145.489 37.6748C145.402 37.889 145.338 38.1123 145.297 38.3447V40.416C145.375 40.7077 145.477 40.9834 145.605 41.2432C145.732 41.4984 145.903 41.7057 146.118 41.8652C146.336 42.0247 146.612 42.1045 146.945 42.1045C147.223 42.1045 147.462 42.0544 147.662 41.9541C147.863 41.8538 148.027 41.7035 148.155 41.5029C148.287 41.2979 148.383 41.0426 148.442 40.7373C148.506 40.4274 148.537 40.0674 148.537 39.6572ZM153.812 43.1367C153.37 43.1367 152.971 43.0706 152.615 42.9385C152.26 42.8063 151.957 42.6058 151.706 42.3369C151.455 42.0635 151.264 41.7194 151.132 41.3047C151 40.89 150.934 40.4001 150.934 39.835V39.001C150.934 38.3493 151.009 37.7979 151.159 37.3467C151.314 36.8955 151.522 36.5332 151.781 36.2598C152.041 35.9818 152.335 35.7812 152.663 35.6582C152.991 35.5306 153.328 35.4668 153.675 35.4668C154.14 35.4668 154.536 35.542 154.864 35.6924C155.192 35.8428 155.459 36.0661 155.664 36.3623C155.869 36.6585 156.02 37.0231 156.115 37.4561C156.216 37.889 156.266 38.388 156.266 38.9531V39.6572H151.645V38.625H155.056V38.4541C155.037 38.0713 154.985 37.734 154.898 37.4424C154.816 37.1507 154.68 36.9229 154.488 36.7588C154.297 36.5902 154.026 36.5059 153.675 36.5059C153.452 36.5059 153.244 36.5446 153.053 36.6221C152.866 36.695 152.704 36.8249 152.567 37.0117C152.435 37.194 152.33 37.4469 152.253 37.7705C152.18 38.0941 152.144 38.5042 152.144 39.001V39.835C152.144 40.2314 152.18 40.5732 152.253 40.8604C152.33 41.1429 152.442 41.3776 152.588 41.5645C152.738 41.7467 152.921 41.8835 153.135 41.9746C153.354 42.0612 153.602 42.1045 153.88 42.1045C154.286 42.1045 154.62 42.027 154.885 41.8721C155.149 41.7126 155.379 41.5098 155.575 41.2637L156.211 42.0225C156.079 42.2093 155.906 42.3893 155.691 42.5625C155.482 42.7311 155.222 42.8701 154.912 42.9795C154.607 43.0843 154.24 43.1367 153.812 43.1367ZM158.799 36.7656V43H157.589V35.6035H158.757L158.799 36.7656ZM160.637 35.5625L160.644 36.7383C160.544 36.7155 160.453 36.7018 160.371 36.6973C160.293 36.6882 160.202 36.6836 160.097 36.6836C159.869 36.6836 159.669 36.7292 159.496 36.8203C159.327 36.9115 159.181 37.0391 159.058 37.2031C158.935 37.3672 158.837 37.5632 158.764 37.791C158.691 38.0143 158.641 38.2604 158.614 38.5293L158.299 38.7344C158.299 38.2878 158.334 37.8685 158.402 37.4766C158.475 37.0846 158.587 36.7383 158.737 36.4375C158.887 36.1322 159.079 35.8952 159.311 35.7266C159.548 35.5534 159.831 35.4668 160.159 35.4668C160.232 35.4668 160.321 35.4782 160.425 35.501C160.535 35.5192 160.605 35.5397 160.637 35.5625ZM172.143 37.0254V45.8438H170.933V35.6035H172.033L172.143 37.0254ZM176.279 38.9668V39.6572C176.279 40.2406 176.224 40.751 176.114 41.1885C176.01 41.6214 175.852 41.9837 175.643 42.2754C175.438 42.5625 175.185 42.779 174.884 42.9248C174.583 43.0661 174.239 43.1367 173.852 43.1367C173.464 43.1367 173.127 43.0638 172.84 42.918C172.558 42.7676 172.318 42.5511 172.122 42.2686C171.931 41.986 171.778 41.6465 171.664 41.25C171.555 40.849 171.48 40.4001 171.439 39.9033V38.8506C171.48 38.3265 171.555 37.8571 171.664 37.4424C171.774 37.0231 171.924 36.6676 172.115 36.376C172.311 36.0798 172.551 35.8542 172.833 35.6992C173.12 35.5443 173.455 35.4668 173.838 35.4668C174.235 35.4668 174.583 35.5352 174.884 35.6719C175.189 35.8086 175.445 36.0205 175.65 36.3076C175.859 36.5902 176.017 36.9525 176.121 37.3945C176.226 37.832 176.279 38.3561 176.279 38.9668ZM175.069 39.6572V38.9668C175.069 38.5566 175.037 38.1989 174.973 37.8936C174.914 37.5882 174.818 37.3353 174.686 37.1348C174.554 36.9342 174.387 36.7839 174.187 36.6836C173.986 36.5833 173.745 36.5332 173.462 36.5332C173.221 36.5332 173.006 36.5833 172.82 36.6836C172.637 36.7839 172.48 36.9206 172.348 37.0938C172.216 37.2624 172.106 37.4561 172.02 37.6748C171.933 37.889 171.869 38.1123 171.828 38.3447V40.416C171.906 40.7077 172.008 40.9834 172.136 41.2432C172.264 41.4984 172.434 41.7057 172.649 41.8652C172.867 42.0247 173.143 42.1045 173.476 42.1045C173.754 42.1045 173.993 42.0544 174.194 41.9541C174.394 41.8538 174.558 41.7035 174.686 41.5029C174.818 41.2979 174.914 41.0426 174.973 40.7373C175.037 40.4274 175.069 40.0674 175.069 39.6572ZM178.996 35.6035V43H177.793V35.6035H178.996ZM177.724 33.6416C177.724 33.4365 177.781 33.2633 177.895 33.1221C178.009 32.9808 178.18 32.9102 178.408 32.9102C178.636 32.9102 178.807 32.9808 178.921 33.1221C179.039 33.2633 179.099 33.4365 179.099 33.6416C179.099 33.8376 179.039 34.0062 178.921 34.1475C178.807 34.2842 178.636 34.3525 178.408 34.3525C178.18 34.3525 178.009 34.2842 177.895 34.1475C177.781 34.0062 177.724 33.8376 177.724 33.6416ZM184.393 41.7354V37.7227C184.393 37.431 184.348 37.1963 184.256 37.0186C184.17 36.8408 184.038 36.7109 183.86 36.6289C183.687 36.5469 183.468 36.5059 183.204 36.5059C182.948 36.5059 182.727 36.5583 182.541 36.6631C182.358 36.7679 182.217 36.9069 182.117 37.0801C182.021 37.2533 181.973 37.4447 181.973 37.6543H180.763C180.763 37.39 180.82 37.1279 180.934 36.8682C181.053 36.6084 181.221 36.3737 181.44 36.1641C181.659 35.9499 181.921 35.7812 182.226 35.6582C182.536 35.5306 182.882 35.4668 183.265 35.4668C183.721 35.4668 184.124 35.542 184.475 35.6924C184.826 35.8382 185.102 36.0775 185.302 36.4102C185.503 36.7428 185.603 37.1849 185.603 37.7363V41.3867C185.603 41.6328 185.621 41.8949 185.658 42.1729C185.699 42.4508 185.756 42.6901 185.829 42.8906V43H184.578C184.518 42.8542 184.473 42.6605 184.441 42.4189C184.409 42.1729 184.393 41.945 184.393 41.7354ZM184.584 38.5156L184.598 39.4043H183.757C183.47 39.4043 183.208 39.4362 182.971 39.5C182.739 39.5638 182.538 39.6572 182.37 39.7803C182.201 39.8988 182.071 40.0469 181.98 40.2246C181.893 40.4023 181.85 40.6051 181.85 40.833C181.85 41.1292 181.891 41.3662 181.973 41.5439C182.055 41.7171 182.178 41.8424 182.342 41.9199C182.506 41.9974 182.714 42.0361 182.964 42.0361C183.27 42.0361 183.539 41.9655 183.771 41.8242C184.003 41.6829 184.183 41.512 184.311 41.3115C184.443 41.111 184.505 40.9242 184.496 40.751L184.762 41.3184C184.744 41.4961 184.685 41.6898 184.584 41.8994C184.489 42.1045 184.354 42.3027 184.181 42.4941C184.008 42.681 183.803 42.8359 183.566 42.959C183.334 43.0775 183.071 43.1367 182.78 43.1367C182.351 43.1367 181.975 43.0547 181.652 42.8906C181.333 42.7266 181.084 42.485 180.907 42.166C180.729 41.847 180.64 41.4528 180.64 40.9834C180.64 40.6279 180.702 40.2998 180.825 39.999C180.948 39.6982 181.13 39.4385 181.372 39.2197C181.613 38.9964 181.916 38.8232 182.281 38.7002C182.65 38.5771 183.076 38.5156 183.559 38.5156H184.584ZM188.553 37.1826V43H187.343V35.6035H188.485L188.553 37.1826ZM188.259 39.0215L187.767 39.001C187.762 38.4951 187.819 38.028 187.938 37.5996C188.061 37.1667 188.234 36.7907 188.457 36.4717C188.685 36.1527 188.956 35.9066 189.271 35.7334C189.585 35.5557 189.934 35.4668 190.317 35.4668C190.617 35.4668 190.891 35.5169 191.137 35.6172C191.383 35.7129 191.593 35.8678 191.766 36.082C191.939 36.2962 192.071 36.5742 192.162 36.916C192.258 37.2533 192.306 37.6657 192.306 38.1533V43H191.096V38.1396C191.096 37.7523 191.053 37.4424 190.966 37.21C190.884 36.973 190.756 36.8021 190.583 36.6973C190.415 36.5879 190.2 36.5332 189.941 36.5332C189.704 36.5332 189.483 36.5993 189.277 36.7314C189.072 36.8636 188.892 37.0459 188.737 37.2783C188.587 37.5107 188.469 37.7773 188.382 38.0781C188.3 38.3743 188.259 38.6888 188.259 39.0215ZM195.283 35.6035V43H194.08V35.6035H195.283ZM194.012 33.6416C194.012 33.4365 194.068 33.2633 194.182 33.1221C194.296 32.9808 194.467 32.9102 194.695 32.9102C194.923 32.9102 195.094 32.9808 195.208 33.1221C195.326 33.2633 195.386 33.4365 195.386 33.6416C195.386 33.8376 195.326 34.0062 195.208 34.1475C195.094 34.2842 194.923 34.3525 194.695 34.3525C194.467 34.3525 194.296 34.2842 194.182 34.1475C194.068 34.0062 194.012 33.8376 194.012 33.6416ZM200.646 41.1064C200.646 40.9196 200.6 40.7555 200.509 40.6143C200.418 40.473 200.268 40.3363 200.058 40.2041C199.853 40.0719 199.575 39.9307 199.224 39.7803C198.882 39.639 198.575 39.5 198.301 39.3633C198.032 39.222 197.804 39.0693 197.618 38.9053C197.431 38.7412 197.287 38.5521 197.187 38.3379C197.091 38.1191 197.043 37.8617 197.043 37.5654C197.043 37.2692 197.098 36.9958 197.207 36.7451C197.321 36.4899 197.481 36.2666 197.686 36.0752C197.891 35.8838 198.137 35.7357 198.424 35.6309C198.711 35.5215 199.033 35.4668 199.388 35.4668C199.894 35.4668 200.325 35.5648 200.68 35.7607C201.036 35.9567 201.307 36.2256 201.494 36.5674C201.685 36.9046 201.781 37.2852 201.781 37.709H200.578C200.578 37.5039 200.532 37.3102 200.441 37.1279C200.35 36.9456 200.215 36.7975 200.038 36.6836C199.86 36.5651 199.643 36.5059 199.388 36.5059C199.119 36.5059 198.9 36.5537 198.732 36.6494C198.563 36.7451 198.44 36.8704 198.363 37.0254C198.29 37.1758 198.253 37.3421 198.253 37.5244C198.253 37.6611 198.272 37.7796 198.308 37.8799C198.349 37.9756 198.417 38.0667 198.513 38.1533C198.609 38.2354 198.739 38.3219 198.903 38.4131C199.071 38.4997 199.286 38.5999 199.545 38.7139C200.047 38.9098 200.468 39.1081 200.81 39.3086C201.152 39.5091 201.412 39.7438 201.589 40.0127C201.767 40.2816 201.856 40.6143 201.856 41.0107C201.856 41.3343 201.797 41.6283 201.678 41.8926C201.564 42.1523 201.4 42.3757 201.186 42.5625C200.972 42.7493 200.714 42.8929 200.414 42.9932C200.117 43.0889 199.785 43.1367 199.415 43.1367C198.859 43.1367 198.388 43.0273 198 42.8086C197.618 42.5853 197.326 42.2959 197.125 41.9404C196.929 41.5804 196.831 41.1953 196.831 40.7852H198.041C198.055 41.1315 198.133 41.4004 198.274 41.5918C198.42 41.7832 198.595 41.9154 198.8 41.9883C199.005 42.0612 199.21 42.0977 199.415 42.0977C199.684 42.0977 199.91 42.0589 200.092 41.9814C200.275 41.8994 200.411 41.7832 200.502 41.6328C200.598 41.4824 200.646 41.307 200.646 41.1064ZM206.002 35.6035V36.5742H202.55V35.6035H206.002ZM203.678 33.8057H204.888V41.168C204.888 41.4186 204.917 41.6077 204.977 41.7354C205.04 41.863 205.12 41.9473 205.216 41.9883C205.312 42.0293 205.414 42.0498 205.524 42.0498C205.606 42.0498 205.697 42.0407 205.797 42.0225C205.897 41.9997 205.966 41.9814 206.002 41.9678L205.995 43C205.913 43.0319 205.804 43.0615 205.667 43.0889C205.53 43.1208 205.357 43.1367 205.148 43.1367C204.888 43.1367 204.646 43.0752 204.423 42.9521C204.2 42.8291 204.02 42.624 203.883 42.3369C203.746 42.0452 203.678 41.6533 203.678 41.1611V33.8057ZM210.927 41.7354V37.7227C210.927 37.431 210.882 37.1963 210.791 37.0186C210.704 36.8408 210.572 36.7109 210.394 36.6289C210.221 36.5469 210.002 36.5059 209.738 36.5059C209.483 36.5059 209.262 36.5583 209.075 36.6631C208.893 36.7679 208.751 36.9069 208.651 37.0801C208.555 37.2533 208.508 37.4447 208.508 37.6543H207.298C207.298 37.39 207.355 37.1279 207.468 36.8682C207.587 36.6084 207.756 36.3737 207.974 36.1641C208.193 35.9499 208.455 35.7812 208.76 35.6582C209.07 35.5306 209.417 35.4668 209.8 35.4668C210.255 35.4668 210.659 35.542 211.009 35.6924C211.36 35.8382 211.636 36.0775 211.837 36.4102C212.037 36.7428 212.137 37.1849 212.137 37.7363V41.3867C212.137 41.6328 212.156 41.8949 212.192 42.1729C212.233 42.4508 212.29 42.6901 212.363 42.8906V43H211.112C211.053 42.8542 211.007 42.6605 210.975 42.4189C210.943 42.1729 210.927 41.945 210.927 41.7354ZM211.119 38.5156L211.133 39.4043H210.292C210.005 39.4043 209.743 39.4362 209.506 39.5C209.273 39.5638 209.073 39.6572 208.904 39.7803C208.735 39.8988 208.606 40.0469 208.514 40.2246C208.428 40.4023 208.384 40.6051 208.384 40.833C208.384 41.1292 208.426 41.3662 208.508 41.5439C208.59 41.7171 208.713 41.8424 208.877 41.9199C209.041 41.9974 209.248 42.0361 209.499 42.0361C209.804 42.0361 210.073 41.9655 210.305 41.8242C210.538 41.6829 210.718 41.512 210.845 41.3115C210.978 41.111 211.039 40.9242 211.03 40.751L211.297 41.3184C211.278 41.4961 211.219 41.6898 211.119 41.8994C211.023 42.1045 210.889 42.3027 210.716 42.4941C210.542 42.681 210.337 42.8359 210.1 42.959C209.868 43.0775 209.606 43.1367 209.314 43.1367C208.886 43.1367 208.51 43.0547 208.186 42.8906C207.867 42.7266 207.619 42.485 207.441 42.166C207.263 41.847 207.175 41.4528 207.175 40.9834C207.175 40.6279 207.236 40.2998 207.359 39.999C207.482 39.6982 207.664 39.4385 207.906 39.2197C208.148 38.9964 208.451 38.8232 208.815 38.7002C209.184 38.5771 209.61 38.5156 210.093 38.5156H211.119Z" fill="#393739"/>
</svg>
