<svg width="46" height="215" viewBox="0 0 46 215" fill="none" xmlns="http://www.w3.org/2000/svg">
<path d="M29.3 207.32C29.3 208.84 28.98 210.06 28.34 210.98C27.68 211.88 26.73 212.54 25.49 212.96C24.25 213.36 22.76 213.56 21.02 213.56H12.89C11.11 213.56 9.6 213.38 8.36 213.02C7.1 212.64 6.14 211.98 5.48 211.04C4.82 210.08 4.49 208.75 4.49 207.05C4.49 205.53 4.75 204.31 5.27 203.39C5.77 202.45 6.55 201.77 7.61 201.35C8.65 200.93 9.97 200.72 11.57 200.72H12.47V203.9H11.72C10.66 203.9 9.8 203.97 9.14 204.11C8.46 204.25 7.96 204.54 7.64 204.98C7.3 205.4 7.13 206.07 7.13 206.99C7.13 207.99 7.36 208.72 7.82 209.18C8.28 209.62 8.91 209.9 9.71 210.02C10.49 210.12 11.38 210.17 12.38 210.17H21.38C22.54 210.17 23.51 210.09 24.29 209.93C25.07 209.75 25.65 209.42 26.03 208.94C26.41 208.46 26.6 207.78 26.6 206.9C26.6 206.02 26.39 205.34 25.97 204.86C25.55 204.38 24.93 204.05 24.11 203.87C23.29 203.69 22.27 203.6 21.05 203.6H19.37V206.69H16.97V200.54H29V202.67L26.21 203C27.11 203.32 27.85 203.82 28.43 204.5C29.01 205.18 29.3 206.12 29.3 207.32ZM29 196.875H4.7V193.545H29V196.875ZM29.27 183.344C29.27 185.104 28.92 186.454 28.22 187.394C27.52 188.334 26.54 188.974 25.28 189.314C24 189.654 22.51 189.824 20.81 189.824H4.7V186.584H20.96C22 186.584 22.95 186.514 23.81 186.374C24.67 186.234 25.35 185.934 25.85 185.474C26.35 184.994 26.6 184.284 26.6 183.344C26.6 182.384 26.35 181.674 25.85 181.214C25.35 180.754 24.67 180.454 23.81 180.314C22.95 180.174 22 180.104 20.96 180.104H4.7L4.7 176.894H20.81C22.51 176.894 24 177.064 25.28 177.404C26.54 177.744 27.52 178.384 28.22 179.324C28.92 180.244 29.27 181.584 29.27 183.344ZM29.27 167.595C29.27 168.995 28.97 170.165 28.37 171.105C27.77 172.025 26.94 172.725 25.88 173.205C24.82 173.685 23.59 173.965 22.19 174.045L21.38 171.045C22.24 170.985 23.07 170.855 23.87 170.655C24.67 170.435 25.33 170.085 25.85 169.605C26.35 169.125 26.6 168.455 26.6 167.595C26.6 166.715 26.36 166.055 25.88 165.615C25.38 165.155 24.67 164.925 23.75 164.925C22.65 164.925 21.77 165.175 21.11 165.675C20.43 166.175 19.75 166.805 19.07 167.565L15.47 171.645C14.77 172.445 14.01 173.035 13.19 173.415C12.35 173.795 11.32 173.985 10.1 173.985C8.32 173.985 6.94 173.475 5.96 172.455C4.98 171.435 4.49 170.045 4.49 168.285C4.49 167.325 4.62 166.485 4.88 165.765C5.12 165.025 5.5 164.415 6.02 163.935C6.54 163.435 7.2 163.045 8 162.765C8.78 162.465 9.7 162.265 10.76 162.165L11.54 165.045C10.74 165.105 10.01 165.225 9.35 165.405C8.67 165.585 8.13 165.905 7.73 166.365C7.31 166.805 7.1 167.445 7.1 168.285C7.1 169.125 7.33 169.785 7.79 170.265C8.23 170.725 8.89 170.955 9.77 170.955C10.51 170.955 11.12 170.835 11.6 170.595C12.08 170.335 12.57 169.925 13.07 169.365L16.67 165.255C17.47 164.335 18.43 163.525 19.55 162.825C20.65 162.125 21.96 161.775 23.48 161.775C24.68 161.775 25.72 162.025 26.6 162.525C27.46 163.025 28.12 163.715 28.58 164.595C29.04 165.455 29.27 166.455 29.27 167.595ZM29 159.145H4.7L4.7 149.725H7.22L7.22 155.755H15.26V150.865H17.66V155.755H26.57V149.665H29V159.145ZM29 146.928H4.7V140.898C4.7 139.438 4.97 138.278 5.51 137.418C6.03 136.538 6.79 135.898 7.79 135.498C8.79 135.098 10 134.898 11.42 134.898C12.7 134.898 13.81 135.128 14.75 135.588C15.69 136.028 16.42 136.688 16.94 137.568C17.44 138.448 17.69 139.548 17.69 140.868V143.538H29V146.928ZM15.26 143.538L15.26 141.978C15.26 140.998 15.15 140.228 14.93 139.668C14.71 139.108 14.33 138.708 13.79 138.468C13.23 138.228 12.45 138.108 11.45 138.108C10.29 138.108 9.4 138.198 8.78 138.378C8.16 138.538 7.73 138.888 7.49 139.428C7.25 139.968 7.13 140.808 7.13 141.948V143.538H15.26ZM29 132.514H4.7V126.484C4.7 125.024 4.97 123.864 5.51 123.004C6.03 122.124 6.79 121.484 7.79 121.084C8.79 120.684 10 120.484 11.42 120.484C12.7 120.484 13.81 120.714 14.75 121.174C15.69 121.614 16.42 122.274 16.94 123.154C17.44 124.034 17.69 125.134 17.69 126.454L17.69 129.124H29V132.514ZM15.26 129.124V127.564C15.26 126.584 15.15 125.814 14.93 125.254C14.71 124.694 14.33 124.294 13.79 124.054C13.23 123.814 12.45 123.694 11.45 123.694C10.29 123.694 9.4 123.784 8.78 123.964C8.16 124.124 7.73 124.474 7.49 125.014C7.25 125.554 7.13 126.394 7.13 127.534V129.124H15.26ZM29 118.1H4.7V108.68H7.22V114.71H15.26L15.26 109.82H17.66V114.71H26.57V108.62H29V118.1ZM29.27 93.298C29.27 94.698 28.97 95.868 28.37 96.808C27.77 97.728 26.94 98.428 25.88 98.908C24.82 99.388 23.59 99.668 22.19 99.748L21.38 96.748C22.24 96.688 23.07 96.558 23.87 96.358C24.67 96.138 25.33 95.788 25.85 95.308C26.35 94.828 26.6 94.158 26.6 93.298C26.6 92.418 26.36 91.758 25.88 91.318C25.38 90.858 24.67 90.628 23.75 90.628C22.65 90.628 21.77 90.878 21.11 91.378C20.43 91.878 19.75 92.508 19.07 93.268L15.47 97.348C14.77 98.148 14.01 98.738 13.19 99.118C12.35 99.498 11.32 99.688 10.1 99.688C8.32 99.688 6.94 99.178 5.96 98.158C4.98 97.138 4.49 95.748 4.49 93.988C4.49 93.028 4.62 92.188 4.88 91.468C5.12 90.728 5.5 90.118 6.02 89.638C6.54 89.138 7.2 88.748 8 88.468C8.78 88.168 9.7 87.968 10.76 87.868L11.54 90.748C10.74 90.808 10.01 90.928 9.35 91.108C8.67 91.288 8.13 91.608 7.73 92.068C7.31 92.508 7.1 93.148 7.1 93.988C7.1 94.828 7.33 95.488 7.79 95.968C8.23 96.428 8.89 96.658 9.77 96.658C10.51 96.658 11.12 96.538 11.6 96.298C12.08 96.038 12.57 95.628 13.07 95.068L16.67 90.958C17.47 90.038 18.43 89.228 19.55 88.528C20.65 87.828 21.96 87.478 23.48 87.478C24.68 87.478 25.72 87.728 26.6 88.228C27.46 88.728 28.12 89.418 28.58 90.298C29.04 91.158 29.27 92.158 29.27 93.298ZM29 84.8483H4.7V78.8183C4.7 77.3583 4.97 76.1983 5.51 75.3383C6.03 74.4583 6.79 73.8183 7.79 73.4183C8.79 73.0183 10 72.8183 11.42 72.8183C12.7 72.8183 13.81 73.0483 14.75 73.5083C15.69 73.9483 16.42 74.6083 16.94 75.4883C17.44 76.3683 17.69 77.4683 17.69 78.7883V81.4583H29V84.8483ZM15.26 81.4583V79.8983C15.26 78.9183 15.15 78.1483 14.93 77.5883C14.71 77.0283 14.33 76.6283 13.79 76.3883C13.23 76.1483 12.45 76.0283 11.45 76.0283C10.29 76.0283 9.4 76.1183 8.78 76.2983C8.16 76.4583 7.73 76.8083 7.49 77.3483C7.25 77.8883 7.13 78.7283 7.13 79.8683V81.4583H15.26ZM29 72.8968L4.7 67.7368V64.4668L29 59.2768V62.4868L22.88 63.5968V68.5468L29 69.7168L29 72.8968ZM20.45 68.0968V64.0468L9.5 66.0868L20.45 68.0968ZM29 55.108H7.22V59.218H4.7L4.7 47.728H7.22L7.22 51.718H29V55.108ZM29 46.764L4.7 41.604V38.334L29 33.144V36.354L22.88 37.464V42.414L29 43.584V46.764ZM20.45 41.964V37.914L9.5 39.954L20.45 41.964ZM29 30.6784H4.7V25.7884C4.7 24.1684 4.92 22.8284 5.36 21.7684C5.78 20.7084 6.47 19.9284 7.43 19.4284C8.37 18.9084 9.61 18.6484 11.15 18.6484C12.09 18.6484 12.95 18.7484 13.73 18.9484C14.49 19.1484 15.14 19.4684 15.68 19.9084C16.2 20.3484 16.58 20.9284 16.82 21.6484L29 18.1984V21.4684L17.6 24.6484V27.2884H29V30.6784ZM15.17 27.2884L15.17 25.9984C15.17 25.0384 15.05 24.2584 14.81 23.6584C14.57 23.0584 14.16 22.6184 13.58 22.3384C13 22.0584 12.19 21.9184 11.15 21.9184C9.73 21.9184 8.71 22.1784 8.09 22.6984C7.45 23.2184 7.13 24.2484 7.13 25.7884V27.2884H15.17ZM29.27 8.91172C29.27 10.5517 28.95 11.8617 28.31 12.8417C27.67 13.8217 26.76 14.5217 25.58 14.9417C24.38 15.3617 22.98 15.5717 21.38 15.5717H12.17C10.57 15.5717 9.2 15.3617 8.06 14.9417C6.9 14.5017 6.02 13.8017 5.42 12.8417C4.8 11.8617 4.49 10.5517 4.49 8.91172C4.49 7.27172 4.8 5.97172 5.42 5.01172C6.04 4.05172 6.92 3.36172 8.06 2.94172C9.2 2.50172 10.57 2.28172 12.17 2.28172H21.41C22.99 2.28172 24.37 2.50172 25.55 2.94172C26.73 3.36172 27.65 4.05172 28.31 5.01172C28.95 5.97172 29.27 7.27172 29.27 8.91172ZM26.6 8.91172C26.6 8.01172 26.42 7.33172 26.06 6.87172C25.68 6.41172 25.16 6.10172 24.5 5.94172C23.82 5.78172 23.03 5.70172 22.13 5.70172H11.48C10.58 5.70172 9.81 5.78172 9.17 5.94172C8.51 6.10172 8.01 6.41172 7.67 6.87172C7.31 7.33172 7.13 8.01172 7.13 8.91172C7.13 9.81172 7.31 10.5017 7.67 10.9817C8.01 11.4417 8.51 11.7517 9.17 11.9117C9.81 12.0717 10.58 12.1517 11.48 12.1517H22.13C23.03 12.1517 23.82 12.0717 24.5 11.9117C25.16 11.7517 25.68 11.4417 26.06 10.9817C26.42 10.5017 26.6 9.81172 26.6 8.91172Z" fill="#121112"/>
<path d="M41.6875 122.573L35.6035 120.939V120.153L36.8135 120.242L43 121.883V122.642L41.6875 122.573ZM35.6035 123.462L41.7559 122.088L43 122.054V122.854L35.6035 124.658V123.462ZM41.708 118.752L35.6035 117.453V116.264L43 118.068V118.854L41.708 118.752ZM35.6035 119.982L41.585 118.39L43 118.28V119.032L36.7998 120.728L35.6035 120.816V119.982ZM43.1367 112.48C43.1367 112.922 43.0706 113.321 42.9385 113.676C42.8063 114.032 42.6058 114.335 42.3369 114.585C42.0635 114.836 41.7194 115.027 41.3047 115.16C40.89 115.292 40.4001 115.358 39.835 115.358H39.001C38.3493 115.358 37.7979 115.283 37.3467 115.132C36.8955 114.977 36.5332 114.77 36.2598 114.51C35.9818 114.25 35.7812 113.956 35.6582 113.628C35.5306 113.3 35.4668 112.963 35.4668 112.617C35.4668 112.152 35.542 111.755 35.6924 111.427C35.8428 111.099 36.0661 110.832 36.3623 110.627C36.6585 110.422 37.0231 110.272 37.4561 110.176C37.889 110.076 38.388 110.026 38.9531 110.026H39.6572V114.647H38.625V111.236H38.4541C38.0713 111.254 37.734 111.306 37.4424 111.393C37.1507 111.475 36.9229 111.612 36.7588 111.803C36.5902 111.994 36.5059 112.266 36.5059 112.617C36.5059 112.84 36.5446 113.047 36.6221 113.239C36.695 113.425 36.8249 113.587 37.0117 113.724C37.194 113.856 37.4469 113.961 37.7705 114.038C38.0941 114.111 38.5042 114.148 39.001 114.148H39.835C40.2314 114.148 40.5732 114.111 40.8604 114.038C41.1429 113.961 41.3776 113.849 41.5645 113.703C41.7467 113.553 41.8835 113.371 41.9746 113.157C42.0612 112.938 42.1045 112.689 42.1045 112.411C42.1045 112.006 42.027 111.671 41.8721 111.407C41.7126 111.142 41.5098 110.912 41.2637 110.716L42.0225 110.08C42.2093 110.213 42.3893 110.386 42.5625 110.6C42.7311 110.81 42.8701 111.069 42.9795 111.379C43.0843 111.685 43.1367 112.051 43.1367 112.48ZM32.5 108.703V107.493H41.5645L43 107.595V108.703H32.5ZM38.9668 103.343H39.6572C40.2406 103.343 40.751 103.398 41.1885 103.508C41.6214 103.612 41.9837 103.77 42.2754 103.979C42.5625 104.189 42.779 104.444 42.9248 104.745C43.0661 105.046 43.1367 105.39 43.1367 105.777C43.1367 106.16 43.0592 106.49 42.9043 106.768C42.7493 107.046 42.526 107.279 42.2344 107.466C41.9427 107.652 41.5895 107.801 41.1748 107.91C40.7601 108.015 40.293 108.088 39.7734 108.129H38.8506C38.3265 108.088 37.8571 108.015 37.4424 107.91C37.0231 107.805 36.6676 107.659 36.376 107.472C36.0798 107.286 35.8542 107.053 35.6992 106.775C35.5443 106.497 35.4668 106.167 35.4668 105.784C35.4668 105.392 35.5352 105.046 35.6719 104.745C35.8086 104.44 36.0205 104.184 36.3076 103.979C36.5902 103.77 36.9525 103.612 37.3945 103.508C37.832 103.398 38.3561 103.343 38.9668 103.343ZM39.6572 104.553H38.9668C38.5566 104.553 38.1989 104.581 37.8936 104.635C37.5882 104.686 37.3353 104.77 37.1348 104.888C36.9342 105.007 36.7839 105.166 36.6836 105.367C36.5833 105.563 36.5332 105.807 36.5332 106.098C36.5332 106.344 36.5833 106.561 36.6836 106.748C36.7839 106.93 36.9206 107.087 37.0938 107.219C37.2624 107.352 37.4561 107.461 37.6748 107.548C37.889 107.634 38.1123 107.698 38.3447 107.739H40.2861C40.5824 107.68 40.8672 107.586 41.1406 107.459C41.4095 107.327 41.6305 107.149 41.8037 106.926C41.9769 106.702 42.0635 106.424 42.0635 106.092C42.0635 105.814 42.0156 105.579 41.9199 105.387C41.8242 105.191 41.6784 105.032 41.4824 104.909C41.2819 104.786 41.0312 104.697 40.7305 104.642C40.4251 104.583 40.0674 104.553 39.6572 104.553ZM41.5645 94.9897H32.5V93.7866H43V94.8871L41.5645 94.9897ZM39.6572 99.1254H38.9668C38.3561 99.1254 37.832 99.0662 37.3945 98.9477C36.9525 98.8292 36.5902 98.6606 36.3076 98.4418C36.0205 98.2231 35.8086 97.961 35.6719 97.6557C35.5352 97.3504 35.4668 97.0131 35.4668 96.644C35.4668 96.2612 35.5443 95.933 35.6992 95.6596C35.8542 95.3816 36.0798 95.1492 36.376 94.9623C36.6676 94.7755 37.0231 94.6297 37.4424 94.5248C37.8571 94.4155 38.3265 94.3426 38.8506 94.3061H39.7734C40.293 94.3471 40.7601 94.4223 41.1748 94.5317C41.5895 94.6365 41.9427 94.7823 42.2344 94.9692C42.526 95.156 42.7493 95.3884 42.9043 95.6664C43.0592 95.9444 43.1367 96.2748 43.1367 96.6577C43.1367 97.0222 43.0661 97.3549 42.9248 97.6557C42.779 97.9565 42.5625 98.2185 42.2754 98.4418C41.9837 98.6606 41.6214 98.8292 41.1885 98.9477C40.751 99.0662 40.2406 99.1254 39.6572 99.1254ZM38.9668 97.9155H39.6572C40.0674 97.9155 40.4251 97.8858 40.7305 97.8266C41.0312 97.7674 41.2819 97.6739 41.4824 97.5463C41.6784 97.4187 41.8242 97.2569 41.9199 97.061C42.0156 96.8605 42.0635 96.6212 42.0635 96.3432C42.0635 96.006 41.9814 95.7302 41.8174 95.5161C41.6533 95.3019 41.4368 95.131 41.168 95.0034C40.8945 94.8712 40.6006 94.7664 40.2861 94.6889H38.3447C38.1123 94.7345 37.889 94.8006 37.6748 94.8871C37.4561 94.9737 37.2624 95.0831 37.0938 95.2153C36.9206 95.3429 36.7839 95.5001 36.6836 95.687C36.5833 95.8692 36.5332 96.0834 36.5332 96.3295C36.5332 96.6075 36.5833 96.8491 36.6836 97.0541C36.7839 97.2547 36.9342 97.4187 37.1348 97.5463C37.3353 97.6694 37.5882 97.7628 37.8936 97.8266C38.1989 97.8858 38.5566 97.9155 38.9668 97.9155ZM43.1367 89.4148C43.1367 89.8569 43.0706 90.2557 42.9385 90.6111C42.8063 90.9666 42.6058 91.2697 42.3369 91.5203C42.0635 91.771 41.7194 91.9624 41.3047 92.0945C40.89 92.2267 40.4001 92.2928 39.835 92.2928H39.001C38.3493 92.2928 37.7979 92.2176 37.3467 92.0672C36.8955 91.9122 36.5332 91.7049 36.2598 91.4451C35.9818 91.1854 35.7812 90.8914 35.6582 90.5633C35.5306 90.2352 35.4668 89.8979 35.4668 89.5516C35.4668 89.0867 35.542 88.6902 35.6924 88.3621C35.8428 88.034 36.0661 87.7674 36.3623 87.5623C36.6585 87.3572 37.0231 87.2068 37.4561 87.1111C37.889 87.0109 38.388 86.9607 38.9531 86.9607H39.6572V91.5818H38.625V88.1707H38.4541C38.0713 88.1889 37.734 88.2413 37.4424 88.3279C37.1507 88.41 36.9229 88.5467 36.7588 88.7381C36.5902 88.9295 36.5059 89.2007 36.5059 89.5516C36.5059 89.7749 36.5446 89.9822 36.6221 90.1736C36.695 90.3605 36.8249 90.5223 37.0117 90.659C37.194 90.7911 37.4469 90.896 37.7705 90.9734C38.0941 91.0464 38.5042 91.0828 39.001 91.0828H39.835C40.2314 91.0828 40.5732 91.0464 40.8604 90.9734C41.1429 90.896 41.3776 90.7843 41.5645 90.6385C41.7467 90.4881 41.8835 90.3058 41.9746 90.0916C42.0612 89.8729 42.1045 89.6245 42.1045 89.3465C42.1045 88.9409 42.027 88.6059 41.8721 88.3416C41.7126 88.0773 41.5098 87.8471 41.2637 87.6512L42.0225 87.0154C42.2093 87.1476 42.3893 87.3208 42.5625 87.535C42.7311 87.7446 42.8701 88.0044 42.9795 88.3143C43.0843 88.6196 43.1367 88.9865 43.1367 89.4148ZM41.8584 83.8195L35.6035 82.2336V81.0031L43 83.1974V83.9972L41.8584 83.8195ZM35.6035 85.0978L41.8926 83.4435L43 83.3136V84.1066L35.6035 86.3283V85.0978ZM43.1367 77.3355C43.1367 77.7775 43.0706 78.1763 42.9385 78.5318C42.8063 78.8872 42.6058 79.1903 42.3369 79.4409C42.0635 79.6916 41.7194 79.883 41.3047 80.0152C40.89 80.1473 40.4001 80.2134 39.835 80.2134H39.001C38.3493 80.2134 37.7979 80.1382 37.3467 79.9878C36.8955 79.8329 36.5332 79.6255 36.2598 79.3657C35.9818 79.106 35.7812 78.812 35.6582 78.4839C35.5306 78.1558 35.4668 77.8185 35.4668 77.4722C35.4668 77.0073 35.542 76.6109 35.6924 76.2827C35.8428 75.9546 36.0661 75.688 36.3623 75.4829C36.6585 75.2779 37.0231 75.1275 37.4561 75.0318C37.889 74.9315 38.388 74.8814 38.9531 74.8814H39.6572V79.5025H38.625V76.0913H38.4541C38.0713 76.1096 37.734 76.162 37.4424 76.2486C37.1507 76.3306 36.9229 76.4673 36.7588 76.6587C36.5902 76.8501 36.5059 77.1213 36.5059 77.4722C36.5059 77.6955 36.5446 77.9029 36.6221 78.0943C36.695 78.2811 36.8249 78.4429 37.0117 78.5796C37.194 78.7118 37.4469 78.8166 37.7705 78.8941C38.0941 78.967 38.5042 79.0034 39.001 79.0034H39.835C40.2314 79.0034 40.5732 78.967 40.8604 78.8941C41.1429 78.8166 41.3776 78.7049 41.5645 78.5591C41.7467 78.4087 41.8835 78.2264 41.9746 78.0122C42.0612 77.7935 42.1045 77.5451 42.1045 77.2671C42.1045 76.8615 42.027 76.5265 41.8721 76.2622C41.7126 75.9979 41.5098 75.7678 41.2637 75.5718L42.0225 74.9361C42.2093 75.0682 42.3893 75.2414 42.5625 75.4556C42.7311 75.6652 42.8701 75.925 42.9795 76.2349C43.0843 76.5402 43.1367 76.9071 43.1367 77.3355ZM32.5 72.2596H43V73.4628H32.5V72.2596ZM39.6572 70.7385H38.9531C38.3789 70.7385 37.8753 70.6656 37.4424 70.5198C37.0049 70.3739 36.6403 70.1711 36.3486 69.9114C36.057 69.6516 35.8382 69.3485 35.6924 69.0022C35.542 68.6558 35.4668 68.2844 35.4668 67.8879C35.4668 67.4823 35.542 67.1064 35.6924 66.76C35.8382 66.4136 36.057 66.1106 36.3486 65.8508C36.6403 65.5865 37.0049 65.3814 37.4424 65.2356C37.8753 65.0898 38.3789 65.0168 38.9531 65.0168H39.6572C40.2314 65.0168 40.7373 65.0898 41.1748 65.2356C41.6077 65.3814 41.9701 65.5842 42.2617 65.844C42.5534 66.1037 42.7721 66.4068 42.918 66.7532C43.0638 67.0995 43.1367 67.4732 43.1367 67.8743C43.1367 68.2753 43.0638 68.649 42.918 68.9953C42.7721 69.3417 42.5534 69.647 42.2617 69.9114C41.9701 70.1711 41.6077 70.3739 41.1748 70.5198C40.7373 70.6656 40.2314 70.7385 39.6572 70.7385ZM38.9531 69.5286H39.6572C40.0628 69.5286 40.4183 69.4875 40.7236 69.4055C41.029 69.3235 41.2842 69.2073 41.4893 69.0569C41.6943 68.9065 41.8493 68.731 41.9541 68.5305C42.0544 68.33 42.1045 68.1112 42.1045 67.8743C42.1045 67.6008 42.0544 67.3616 41.9541 67.1565C41.8493 66.9468 41.6943 66.7737 41.4893 66.637C41.2842 66.5002 41.029 66.3977 40.7236 66.3293C40.4183 66.261 40.0628 66.2268 39.6572 66.2268H38.9531C38.5475 66.2268 38.1943 66.2678 37.8936 66.3498C37.5882 66.4319 37.333 66.5481 37.1279 66.6985C36.9183 66.8489 36.7633 67.0266 36.6631 67.2317C36.5583 67.4322 36.5059 67.6509 36.5059 67.8879C36.5059 68.1203 36.5583 68.3368 36.6631 68.5373C36.7633 68.7379 36.9183 68.9133 37.1279 69.0637C37.333 69.2095 37.5882 69.3235 37.8936 69.4055C38.1943 69.4875 38.5475 69.5286 38.9531 69.5286ZM37.0254 62.3883H45.8438V63.5982H35.6035V62.4977L37.0254 62.3883ZM38.9668 58.2525H39.6572C40.2406 58.2525 40.751 58.3072 41.1885 58.4166C41.6214 58.5214 41.9837 58.6786 42.2754 58.8883C42.5625 59.0934 42.779 59.3463 42.9248 59.6471C43.0661 59.9479 43.1367 60.2919 43.1367 60.6793C43.1367 61.0667 43.0638 61.4039 42.918 61.691C42.7676 61.9736 42.5511 62.2128 42.2686 62.4088C41.986 62.6002 41.6465 62.7529 41.25 62.8668C40.849 62.9762 40.4001 63.0514 39.9033 63.0924H38.8506C38.3265 63.0514 37.8571 62.9762 37.4424 62.8668C37.0231 62.7574 36.6676 62.607 36.376 62.4156C36.0798 62.2197 35.8542 61.9804 35.6992 61.6979C35.5443 61.4107 35.4668 61.0758 35.4668 60.693C35.4668 60.2965 35.5352 59.9479 35.6719 59.6471C35.8086 59.3417 36.0205 59.0865 36.3076 58.8814C36.5902 58.6718 36.9525 58.5146 37.3945 58.4098C37.832 58.3049 38.3561 58.2525 38.9668 58.2525ZM39.6572 59.4625H38.9668C38.5566 59.4625 38.1989 59.4944 37.8936 59.5582C37.5882 59.6174 37.3353 59.7132 37.1348 59.8453C36.9342 59.9775 36.7839 60.1438 36.6836 60.3443C36.5833 60.5449 36.5332 60.7864 36.5332 61.0689C36.5332 61.3105 36.5833 61.5247 36.6836 61.7115C36.7839 61.8938 36.9206 62.051 37.0938 62.1832C37.2624 62.3154 37.4561 62.4247 37.6748 62.5113C37.889 62.5979 38.1123 62.6617 38.3447 62.7027H40.416C40.7077 62.6253 40.9834 62.5227 41.2432 62.3951C41.4984 62.2675 41.7057 62.0966 41.8652 61.8824C42.0247 61.6637 42.1045 61.388 42.1045 61.0553C42.1045 60.7773 42.0544 60.538 41.9541 60.3375C41.8538 60.137 41.7035 59.9729 41.5029 59.8453C41.2979 59.7132 41.0426 59.6174 40.7373 59.5582C40.4274 59.4944 40.0674 59.4625 39.6572 59.4625ZM43.1367 54.1884C43.1367 54.6305 43.0706 55.0293 42.9385 55.3847C42.8063 55.7402 42.6058 56.0433 42.3369 56.2939C42.0635 56.5446 41.7194 56.736 41.3047 56.8681C40.89 57.0003 40.4001 57.0664 39.835 57.0664H39.001C38.3493 57.0664 37.7979 56.9912 37.3467 56.8408C36.8955 56.6858 36.5332 56.4785 36.2598 56.2187C35.9818 55.9589 35.7813 55.665 35.6582 55.3369C35.5306 55.0088 35.4668 54.6715 35.4668 54.3252C35.4668 53.8603 35.542 53.4638 35.6924 53.1357C35.8428 52.8076 36.0661 52.541 36.3623 52.3359C36.6585 52.1308 37.0231 51.9804 37.4561 51.8847C37.889 51.7845 38.388 51.7343 38.9531 51.7343H39.6572L39.6572 56.3554H38.625V52.9443H38.4541C38.0713 52.9625 37.734 53.0149 37.4424 53.1015C37.1507 53.1836 36.9229 53.3203 36.7588 53.5117C36.5902 53.7031 36.5059 53.9742 36.5059 54.3252C36.5059 54.5485 36.5446 54.7558 36.6221 54.9472C36.695 55.1341 36.8249 55.2959 37.0117 55.4326C37.194 55.5647 37.4469 55.6696 37.7705 55.747C38.0941 55.8199 38.5042 55.8564 39.001 55.8564H39.835C40.2314 55.8564 40.5732 55.8199 40.8604 55.747C41.1429 55.6696 41.3776 55.5579 41.5645 55.4121C41.7467 55.2617 41.8835 55.0794 41.9746 54.8652C42.0612 54.6464 42.1045 54.3981 42.1045 54.1201C42.1045 53.7145 42.027 53.3795 41.8721 53.1152C41.7126 52.8509 41.5098 52.6207 41.2637 52.4248L42.0225 51.789C42.2093 51.9212 42.3893 52.0944 42.5625 52.3086C42.7311 52.5182 42.8701 52.778 42.9795 53.0879C43.0843 53.3932 43.1367 53.7601 43.1367 54.1884ZM36.7656 49.2015H43V50.4114H35.6035V49.2425L36.7656 49.2015ZM35.5625 47.3626L36.7383 47.3558C36.7155 47.456 36.7018 47.5472 36.6973 47.6292C36.6882 47.7067 36.6836 47.7978 36.6836 47.9027C36.6836 48.1305 36.7292 48.331 36.8203 48.5042C36.9115 48.6728 37.0391 48.8187 37.2031 48.9417C37.3672 49.0648 37.5632 49.1627 37.791 49.2357C38.0143 49.3086 38.2604 49.3587 38.5293 49.3861L38.7344 49.7005C38.2878 49.7005 37.8685 49.6663 37.4766 49.598C37.0846 49.5251 36.7383 49.4134 36.4375 49.263C36.1322 49.1126 35.8952 48.9212 35.7266 48.6888C35.5534 48.4518 35.4668 48.1693 35.4668 47.8411C35.4668 47.7682 35.4782 47.6793 35.501 47.5745C35.5192 47.4652 35.5397 47.3945 35.5625 47.3626ZM37.0254 35.8572H45.8438V37.0671H35.6035V35.9666L37.0254 35.8572ZM38.9668 31.7214H39.6572C40.2406 31.7214 40.751 31.7761 41.1885 31.8855C41.6214 31.9903 41.9837 32.1475 42.2754 32.3572C42.5625 32.5623 42.779 32.8152 42.9248 33.116C43.0661 33.4168 43.1367 33.7608 43.1367 34.1482C43.1367 34.5356 43.0638 34.8728 42.918 35.1599C42.7676 35.4425 42.5511 35.6817 42.2686 35.8777C41.986 36.0691 41.6465 36.2218 41.25 36.3357C40.849 36.4451 40.4001 36.5203 39.9033 36.5613H38.8506C38.3265 36.5203 37.8571 36.4451 37.4424 36.3357C37.0231 36.2263 36.6676 36.0759 36.376 35.8845C36.0798 35.6886 35.8542 35.4493 35.6992 35.1668C35.5443 34.8796 35.4668 34.5447 35.4668 34.1619C35.4668 33.7654 35.5352 33.4168 35.6719 33.116C35.8086 32.8106 36.0205 32.5554 36.3076 32.3503C36.5902 32.1407 36.9525 31.9835 37.3945 31.8787C37.832 31.7739 38.3561 31.7214 38.9668 31.7214ZM39.6572 32.9314H38.9668C38.5566 32.9314 38.1989 32.9633 37.8936 33.0271C37.5882 33.0864 37.3353 33.1821 37.1348 33.3142C36.9342 33.4464 36.7839 33.6127 36.6836 33.8132C36.5833 34.0138 36.5332 34.2553 36.5332 34.5378C36.5332 34.7794 36.5833 34.9936 36.6836 35.1804C36.7839 35.3627 36.9206 35.5199 37.0938 35.6521C37.2624 35.7843 37.4561 35.8936 37.6748 35.9802C37.889 36.0668 38.1123 36.1306 38.3447 36.1716H40.416C40.7077 36.0942 40.9834 35.9916 41.2432 35.864C41.4984 35.7364 41.7057 35.5655 41.8652 35.3513C42.0247 35.1326 42.1045 34.8569 42.1045 34.5242C42.1045 34.2462 42.0544 34.0069 41.9541 33.8064C41.8538 33.6059 41.7035 33.4418 41.5029 33.3142C41.2979 33.1821 41.0426 33.0864 40.7373 33.0271C40.4274 32.9633 40.0674 32.9314 39.6572 32.9314ZM35.6035 29.004H43V30.2071H35.6035V29.004ZM33.6416 30.2755C33.4365 30.2755 33.2633 30.2185 33.1221 30.1046C32.9808 29.9907 32.9102 29.8198 32.9102 29.5919C32.9102 29.364 32.9808 29.1931 33.1221 29.0792C33.2633 28.9607 33.4365 28.9015 33.6416 28.9015C33.8376 28.9015 34.0062 28.9607 34.1475 29.0792C34.2842 29.1931 34.3525 29.364 34.3525 29.5919C34.3525 29.8198 34.2842 29.9907 34.1475 30.1046C34.0062 30.2185 33.8376 30.2755 33.6416 30.2755ZM41.7354 23.6069H37.7227C37.431 23.6069 37.1963 23.6525 37.0186 23.7436C36.8408 23.8302 36.7109 23.9624 36.6289 24.1401C36.5469 24.3133 36.5059 24.532 36.5059 24.7964C36.5059 25.0516 36.5583 25.2726 36.6631 25.4594C36.7679 25.6417 36.9069 25.783 37.0801 25.8833C37.2533 25.979 37.4447 26.0268 37.6543 26.0268V27.2368C37.39 27.2368 37.1279 27.1798 36.8682 27.0659C36.6084 26.9474 36.3737 26.7788 36.1641 26.56C35.9499 26.3413 35.7813 26.0792 35.6582 25.7739C35.5306 25.464 35.4668 25.1177 35.4668 24.7348C35.4668 24.2791 35.542 23.8758 35.6924 23.5249C35.8382 23.174 36.0775 22.8983 36.4102 22.6977C36.7428 22.4972 37.1849 22.3969 37.7363 22.3969H41.3867C41.6328 22.3969 41.8949 22.3787 42.1729 22.3423C42.4508 22.3012 42.6901 22.2443 42.8906 22.1714H43V23.4223C42.8542 23.4816 42.6605 23.5272 42.4189 23.5591C42.1729 23.591 41.945 23.6069 41.7354 23.6069ZM38.5156 23.4155L39.4043 23.4018V24.2427C39.4043 24.5298 39.4362 24.7918 39.5 25.0288C39.5638 25.2612 39.6572 25.4617 39.7803 25.6303C39.8988 25.799 40.0469 25.9289 40.2246 26.02C40.4023 26.1066 40.6051 26.1499 40.833 26.1499C41.1292 26.1499 41.3662 26.1089 41.5439 26.0268C41.7171 25.9448 41.8424 25.8218 41.9199 25.6577C41.9974 25.4936 42.0361 25.2863 42.0361 25.0356C42.0361 24.7303 41.9655 24.4614 41.8242 24.229C41.6829 23.9966 41.512 23.8165 41.3115 23.6889C41.111 23.5568 40.9242 23.4953 40.751 23.5044L41.3184 23.2378C41.4961 23.256 41.6898 23.3152 41.8994 23.4155C42.1045 23.5112 42.3027 23.6456 42.4941 23.8188C42.681 23.992 42.8359 24.1971 42.959 24.4341C43.0775 24.6665 43.1367 24.9285 43.1367 25.2202C43.1367 25.6486 43.0547 26.0246 42.8906 26.3481C42.7266 26.6671 42.485 26.9155 42.166 27.0932C41.847 27.271 41.4528 27.3598 40.9834 27.3598C40.6279 27.3598 40.2998 27.2983 39.999 27.1753C39.6982 27.0522 39.4385 26.8699 39.2197 26.6284C38.9964 26.3869 38.8232 26.0838 38.7002 25.7192C38.5771 25.3501 38.5156 24.924 38.5156 24.4409V23.4155ZM37.1826 19.4471H43V20.6571H35.6035V19.5155L37.1826 19.4471ZM39.0215 19.7411L39.001 20.2332C38.4951 20.2378 38.028 20.1808 37.5996 20.0623C37.1667 19.9393 36.7907 19.7661 36.4717 19.5428C36.1527 19.315 35.9066 19.0438 35.7334 18.7293C35.5557 18.4149 35.4668 18.0663 35.4668 17.6834C35.4668 17.3827 35.5169 17.1092 35.6172 16.8631C35.7129 16.617 35.8678 16.4074 36.082 16.2342C36.2962 16.061 36.5742 15.9289 36.916 15.8377C37.2533 15.742 37.6657 15.6942 38.1533 15.6942H43V16.9041H38.1396C37.7523 16.9041 37.4424 16.9474 37.21 17.034C36.973 17.1161 36.8021 17.2437 36.6973 17.4168C36.5879 17.5855 36.5332 17.7997 36.5332 18.0594C36.5332 18.2964 36.5993 18.5174 36.7314 18.7225C36.8636 18.9276 37.0459 19.1076 37.2783 19.2625C37.5107 19.4129 37.7773 19.5314 38.0781 19.618C38.3743 19.7 38.6888 19.7411 39.0215 19.7411ZM35.6035 12.717H43V13.9201H35.6035V12.717ZM33.6416 13.9885C33.4365 13.9885 33.2633 13.9315 33.1221 13.8176C32.9808 13.7036 32.9102 13.5328 32.9102 13.3049C32.9102 13.077 32.9808 12.9061 33.1221 12.7922C33.2633 12.6737 33.4365 12.6145 33.6416 12.6145C33.8376 12.6145 34.0062 12.6737 34.1475 12.7922C34.2842 12.9061 34.3525 13.077 34.3525 13.3049C34.3525 13.5328 34.2842 13.7036 34.1475 13.8176C34.0062 13.9315 33.8376 13.9885 33.6416 13.9885ZM41.1064 7.35406C40.9196 7.35406 40.7555 7.39964 40.6143 7.49078C40.473 7.58193 40.3363 7.73232 40.2041 7.94196C40.0719 8.14703 39.9307 8.42503 39.7803 8.77594C39.639 9.11774 39.5 9.42535 39.3633 9.69879C39.222 9.96767 39.0693 10.1955 38.9053 10.3824C38.7412 10.5692 38.5521 10.7128 38.3379 10.813C38.1191 10.9088 37.8617 10.9566 37.5654 10.9566C37.2692 10.9566 36.9958 10.9019 36.7451 10.7925C36.4899 10.6786 36.2666 10.5191 36.0752 10.314C35.8838 10.1089 35.7357 9.86285 35.6309 9.57574C35.5215 9.28864 35.4668 8.96735 35.4668 8.61188C35.4668 8.10602 35.5648 7.67535 35.7607 7.31989C35.9567 6.96442 36.2256 6.69326 36.5674 6.50641C36.9046 6.315 37.2852 6.2193 37.709 6.2193V7.42242C37.5039 7.42242 37.3102 7.468 37.1279 7.55914C36.9456 7.65029 36.7975 7.78473 36.6836 7.96246C36.5651 8.1402 36.5059 8.35667 36.5059 8.61188C36.5059 8.88076 36.5537 9.09951 36.6494 9.26813C36.7451 9.43675 36.8704 9.55979 37.0254 9.63727C37.1758 9.71018 37.3421 9.74664 37.5244 9.74664C37.6611 9.74664 37.7796 9.72841 37.8799 9.69196C37.9756 9.65094 38.0667 9.58258 38.1533 9.48688C38.2354 9.39117 38.3219 9.26129 38.4131 9.09723C38.4997 8.92861 38.5999 8.71442 38.7139 8.45465C38.9098 7.95335 39.1081 7.5318 39.3086 7.19C39.5091 6.84821 39.7438 6.58844 40.0127 6.41071C40.2816 6.23297 40.6143 6.1441 41.0107 6.1441C41.3343 6.1441 41.6283 6.20335 41.8926 6.32184C42.1523 6.43577 42.3757 6.59983 42.5625 6.81403C42.7493 7.02822 42.8929 7.28571 42.9932 7.58649C43.0889 7.88271 43.1367 8.21539 43.1367 8.58453C43.1367 9.14052 43.0273 9.6122 42.8086 9.99957C42.5853 10.3824 42.2959 10.6741 41.9404 10.8746C41.5804 11.0705 41.1953 11.1685 40.7852 11.1685V9.95856C41.1315 9.94489 41.4004 9.86741 41.5918 9.72614C41.7832 9.5803 41.9154 9.40485 41.9883 9.19977C42.0612 8.99469 42.0977 8.78961 42.0977 8.58453C42.0977 8.31565 42.0589 8.09007 41.9814 7.90778C41.8994 7.72548 41.7832 7.58877 41.6328 7.49762C41.4824 7.40192 41.307 7.35406 41.1064 7.35406ZM35.6035 1.99797H36.5742V5.45012H35.6035V1.99797ZM33.8057 4.32219V3.11223H41.168C41.4186 3.11223 41.6077 3.08261 41.7354 3.02336C41.863 2.95956 41.9473 2.87981 41.9883 2.7841C42.0293 2.6884 42.0498 2.58586 42.0498 2.47649C42.0498 2.39445 42.0407 2.30331 42.0225 2.20305C41.9997 2.10279 41.9814 2.03443 41.9678 1.99797L43 2.00481C43.0319 2.08684 43.0615 2.19621 43.0889 2.33293C43.1208 2.46965 43.1367 2.64283 43.1367 2.85246C43.1367 3.11223 43.0752 3.35376 42.9521 3.57707C42.8291 3.80038 42.624 3.98039 42.3369 4.11711C42.0452 4.25383 41.6533 4.32219 41.1611 4.32219H33.8057Z" fill="#393739"/>
<circle cx="39.5" cy="42.5" r="1.5" transform="rotate(-90 39.5 42.5)" fill="#393739"/>
</svg>
