<svg width="215" height="46" viewBox="0 0 215 46" fill="none" xmlns="http://www.w3.org/2000/svg">
<path d="M7.68 29.3C6.16 29.3 4.94 28.98 4.02 28.34C3.12 27.68 2.46 26.73 2.04 25.49C1.64 24.25 1.44 22.76 1.44 21.02V12.89C1.44 11.11 1.62 9.6 1.98 8.36C2.36 7.1 3.02 6.14 3.96 5.48C4.92 4.82 6.25 4.49 7.95 4.49C9.47 4.49 10.69 4.75 11.61 5.27C12.55 5.77 13.23 6.55 13.65 7.61C14.07 8.65 14.28 9.97 14.28 11.57V12.47H11.1V11.72C11.1 10.66 11.03 9.8 10.89 9.14C10.75 8.46 10.46 7.96 10.02 7.64C9.6 7.3 8.93 7.13 8.01 7.13C7.01 7.13 6.28 7.36 5.82 7.82C5.38 8.28 5.1 8.91 4.98 9.71C4.88 10.49 4.83 11.38 4.83 12.38V21.38C4.83 22.54 4.91 23.51 5.07 24.29C5.25 25.07 5.58 25.65 6.06 26.03C6.54 26.41 7.22 26.6 8.1 26.6C8.98 26.6 9.66 26.39 10.14 25.97C10.62 25.55 10.95 24.93 11.13 24.11C11.31 23.29 11.4 22.27 11.4 21.05V19.37H8.31V16.97H14.46V29H12.33L12 26.21C11.68 27.11 11.18 27.85 10.5 28.43C9.82 29.01 8.88 29.3 7.68 29.3ZM18.1247 29V4.7H21.4547V29H18.1247ZM31.6561 29.27C29.8961 29.27 28.5461 28.92 27.6061 28.22C26.6661 27.52 26.0261 26.54 25.6861 25.28C25.3461 24 25.1761 22.51 25.1761 20.81V4.7H28.4161V20.96C28.4161 22 28.4861 22.95 28.6261 23.81C28.7661 24.67 29.0661 25.35 29.5261 25.85C30.0061 26.35 30.7161 26.6 31.6561 26.6C32.6161 26.6 33.3261 26.35 33.7861 25.85C34.2461 25.35 34.5461 24.67 34.6861 23.81C34.8261 22.95 34.8961 22 34.8961 20.96V4.7H38.1061V20.81C38.1061 22.51 37.9361 24 37.5961 25.28C37.2561 26.54 36.6161 27.52 35.6761 28.22C34.7561 28.92 33.4161 29.27 31.6561 29.27ZM47.4052 29.27C46.0052 29.27 44.8352 28.97 43.8952 28.37C42.9752 27.77 42.2752 26.94 41.7952 25.88C41.3152 24.82 41.0352 23.59 40.9552 22.19L43.9552 21.38C44.0152 22.24 44.1452 23.07 44.3452 23.87C44.5652 24.67 44.9152 25.33 45.3952 25.85C45.8752 26.35 46.5452 26.6 47.4052 26.6C48.2852 26.6 48.9452 26.36 49.3852 25.88C49.8452 25.38 50.0752 24.67 50.0752 23.75C50.0752 22.65 49.8252 21.77 49.3252 21.11C48.8252 20.43 48.1952 19.75 47.4352 19.07L43.3552 15.47C42.5552 14.77 41.9652 14.01 41.5852 13.19C41.2052 12.35 41.0152 11.32 41.0152 10.1C41.0152 8.32 41.5252 6.94 42.5452 5.96C43.5652 4.98 44.9552 4.49 46.7152 4.49C47.6752 4.49 48.5152 4.62 49.2352 4.88C49.9752 5.12 50.5852 5.5 51.0652 6.02C51.5652 6.54 51.9552 7.2 52.2352 8C52.5352 8.78 52.7352 9.7 52.8352 10.76L49.9552 11.54C49.8952 10.74 49.7752 10.01 49.5952 9.35C49.4152 8.67 49.0952 8.13 48.6352 7.73C48.1952 7.31 47.5552 7.1 46.7152 7.1C45.8752 7.1 45.2152 7.33 44.7352 7.79C44.2752 8.23 44.0452 8.89 44.0452 9.77C44.0452 10.51 44.1652 11.12 44.4052 11.6C44.6652 12.08 45.0752 12.57 45.6352 13.07L49.7452 16.67C50.6652 17.47 51.4752 18.43 52.1752 19.55C52.8752 20.65 53.2252 21.96 53.2252 23.48C53.2252 24.68 52.9752 25.72 52.4752 26.6C51.9752 27.46 51.2852 28.12 50.4052 28.58C49.5452 29.04 48.5452 29.27 47.4052 29.27ZM55.8548 29V4.7H65.2748V7.22H59.2448V15.26H64.1348V17.66H59.2448V26.57H65.3348V29H55.8548ZM68.0716 29V4.7H74.1016C75.5616 4.7 76.7216 4.97 77.5816 5.51C78.4616 6.03 79.1016 6.79 79.5016 7.79C79.9016 8.79 80.1016 10 80.1016 11.42C80.1016 12.7 79.8716 13.81 79.4116 14.75C78.9716 15.69 78.3116 16.42 77.4316 16.94C76.5516 17.44 75.4516 17.69 74.1316 17.69H71.4616V29H68.0716ZM71.4616 15.26H73.0216C74.0016 15.26 74.7716 15.15 75.3316 14.93C75.8916 14.71 76.2916 14.33 76.5316 13.79C76.7716 13.23 76.8916 12.45 76.8916 11.45C76.8916 10.29 76.8016 9.4 76.6216 8.78C76.4616 8.16 76.1116 7.73 75.5716 7.49C75.0316 7.25 74.1916 7.13 73.0516 7.13H71.4616V15.26ZM82.4857 29V4.7H88.5157C89.9757 4.7 91.1357 4.97 91.9957 5.51C92.8757 6.03 93.5157 6.79 93.9157 7.79C94.3157 8.79 94.5157 10 94.5157 11.42C94.5157 12.7 94.2857 13.81 93.8257 14.75C93.3857 15.69 92.7257 16.42 91.8457 16.94C90.9657 17.44 89.8657 17.69 88.5457 17.69H85.8757V29H82.4857ZM85.8757 15.26H87.4357C88.4157 15.26 89.1857 15.15 89.7457 14.93C90.3057 14.71 90.7057 14.33 90.9457 13.79C91.1857 13.23 91.3057 12.45 91.3057 11.45C91.3057 10.29 91.2157 9.4 91.0357 8.78C90.8757 8.16 90.5257 7.73 89.9857 7.49C89.4457 7.25 88.6057 7.13 87.4657 7.13H85.8757V15.26ZM96.8998 29V4.7H106.32V7.22H100.29V15.26H105.18V17.66H100.29V26.57H106.38V29H96.8998ZM121.702 29.27C120.302 29.27 119.132 28.97 118.192 28.37C117.272 27.77 116.572 26.94 116.092 25.88C115.612 24.82 115.332 23.59 115.252 22.19L118.252 21.38C118.312 22.24 118.442 23.07 118.642 23.87C118.862 24.67 119.212 25.33 119.692 25.85C120.172 26.35 120.842 26.6 121.702 26.6C122.582 26.6 123.242 26.36 123.682 25.88C124.142 25.38 124.372 24.67 124.372 23.75C124.372 22.65 124.122 21.77 123.622 21.11C123.122 20.43 122.492 19.75 121.732 19.07L117.652 15.47C116.852 14.77 116.262 14.01 115.882 13.19C115.502 12.35 115.312 11.32 115.312 10.1C115.312 8.32 115.822 6.94 116.842 5.96C117.862 4.98 119.252 4.49 121.012 4.49C121.972 4.49 122.812 4.62 123.532 4.88C124.272 5.12 124.882 5.5 125.362 6.02C125.862 6.54 126.252 7.2 126.532 8C126.832 8.78 127.032 9.7 127.132 10.76L124.252 11.54C124.192 10.74 124.072 10.01 123.892 9.35C123.712 8.67 123.392 8.13 122.932 7.73C122.492 7.31 121.852 7.1 121.012 7.1C120.172 7.1 119.512 7.33 119.032 7.79C118.572 8.23 118.342 8.89 118.342 9.77C118.342 10.51 118.462 11.12 118.702 11.6C118.962 12.08 119.372 12.57 119.932 13.07L124.042 16.67C124.962 17.47 125.772 18.43 126.472 19.55C127.172 20.65 127.522 21.96 127.522 23.48C127.522 24.68 127.272 25.72 126.772 26.6C126.272 27.46 125.582 28.12 124.702 28.58C123.842 29.04 122.842 29.27 121.702 29.27ZM130.152 29V4.7H136.182C137.642 4.7 138.802 4.97 139.662 5.51C140.542 6.03 141.182 6.79 141.582 7.79C141.982 8.79 142.182 10 142.182 11.42C142.182 12.7 141.952 13.81 141.492 14.75C141.052 15.69 140.392 16.42 139.512 16.94C138.632 17.44 137.532 17.69 136.212 17.69H133.542V29H130.152ZM133.542 15.26H135.102C136.082 15.26 136.852 15.15 137.412 14.93C137.972 14.71 138.372 14.33 138.612 13.79C138.852 13.23 138.972 12.45 138.972 11.45C138.972 10.29 138.882 9.4 138.702 8.78C138.542 8.16 138.192 7.73 137.652 7.49C137.112 7.25 136.272 7.13 135.132 7.13H133.542V15.26ZM142.103 29L147.263 4.7H150.533L155.723 29H152.513L151.403 22.88H146.453L145.283 29H142.103ZM146.903 20.45H150.953L148.913 9.5L146.903 20.45ZM159.892 29V7.22H155.782V4.7H167.272V7.22H163.282V29H159.892ZM168.236 29L173.396 4.7H176.666L181.856 29H178.646L177.536 22.88H172.586L171.416 29H168.236ZM173.036 20.45H177.086L175.046 9.5L173.036 20.45ZM184.322 29V4.7H189.212C190.832 4.7 192.172 4.92 193.232 5.36C194.292 5.78 195.072 6.47 195.572 7.43C196.092 8.37 196.352 9.61 196.352 11.15C196.352 12.09 196.252 12.95 196.052 13.73C195.852 14.49 195.532 15.14 195.092 15.68C194.652 16.2 194.072 16.58 193.352 16.82L196.802 29H193.532L190.352 17.6H187.712V29H184.322ZM187.712 15.17H189.002C189.962 15.17 190.742 15.05 191.342 14.81C191.942 14.57 192.382 14.16 192.662 13.58C192.942 13 193.082 12.19 193.082 11.15C193.082 9.73 192.822 8.71 192.302 8.09C191.782 7.45 190.752 7.13 189.212 7.13H187.712V15.17ZM206.088 29.27C204.448 29.27 203.138 28.95 202.158 28.31C201.178 27.67 200.478 26.76 200.058 25.58C199.638 24.38 199.428 22.98 199.428 21.38V12.17C199.428 10.57 199.638 9.2 200.058 8.06C200.498 6.9 201.198 6.02 202.158 5.42C203.138 4.8 204.448 4.49 206.088 4.49C207.728 4.49 209.028 4.8 209.988 5.42C210.948 6.04 211.638 6.92 212.058 8.06C212.498 9.2 212.718 10.57 212.718 12.17V21.41C212.718 22.99 212.498 24.37 212.058 25.55C211.638 26.73 210.948 27.65 209.988 28.31C209.028 28.95 207.728 29.27 206.088 29.27ZM206.088 26.6C206.988 26.6 207.668 26.42 208.128 26.06C208.588 25.68 208.898 25.16 209.058 24.5C209.218 23.82 209.298 23.03 209.298 22.13V11.48C209.298 10.58 209.218 9.81 209.058 9.17C208.898 8.51 208.588 8.01 208.128 7.67C207.668 7.31 206.988 7.13 206.088 7.13C205.188 7.13 204.498 7.31 204.018 7.67C203.558 8.01 203.248 8.51 203.088 9.17C202.928 9.81 202.848 10.58 202.848 11.48V22.13C202.848 23.03 202.928 23.82 203.088 24.5C203.248 25.16 203.558 25.68 204.018 26.06C204.498 26.42 205.188 26.6 206.088 26.6Z" fill="#FFFFF8"/>
<path d="M171.119 37.0254V45.8438H169.909V35.6035H171.01L171.119 37.0254ZM175.255 38.9668V39.6572C175.255 40.2406 175.2 40.751 175.091 41.1885C174.986 41.6214 174.829 41.9837 174.619 42.2754C174.414 42.5625 174.161 42.779 173.86 42.9248C173.56 43.0661 173.215 43.1367 172.828 43.1367C172.441 43.1367 172.104 43.0638 171.816 42.918C171.534 42.7676 171.295 42.5511 171.099 42.2686C170.907 41.986 170.755 41.6465 170.641 41.25C170.531 40.849 170.456 40.4001 170.415 39.9033V38.8506C170.456 38.3265 170.531 37.8571 170.641 37.4424C170.75 37.0231 170.9 36.6676 171.092 36.376C171.288 36.0798 171.527 35.8542 171.81 35.6992C172.097 35.5443 172.432 35.4668 172.814 35.4668C173.211 35.4668 173.56 35.5352 173.86 35.6719C174.166 35.8086 174.421 36.0205 174.626 36.3076C174.836 36.5902 174.993 36.9525 175.098 37.3945C175.202 37.832 175.255 38.3561 175.255 38.9668ZM174.045 39.6572V38.9668C174.045 38.5566 174.013 38.1989 173.949 37.8936C173.89 37.5882 173.794 37.3353 173.662 37.1348C173.53 36.9342 173.364 36.7839 173.163 36.6836C172.963 36.5833 172.721 36.5332 172.438 36.5332C172.197 36.5332 171.983 36.5833 171.796 36.6836C171.614 36.7839 171.456 36.9206 171.324 37.0938C171.192 37.2624 171.083 37.4561 170.996 37.6748C170.91 37.889 170.846 38.1123 170.805 38.3447V40.416C170.882 40.7077 170.985 40.9834 171.112 41.2432C171.24 41.4984 171.411 41.7057 171.625 41.8652C171.844 42.0247 172.119 42.1045 172.452 42.1045C172.73 42.1045 172.969 42.0544 173.17 41.9541C173.37 41.8538 173.535 41.7035 173.662 41.5029C173.794 41.2979 173.89 41.0426 173.949 40.7373C174.013 40.4274 174.045 40.0674 174.045 39.6572ZM177.972 35.6035V43H176.769V35.6035H177.972ZM176.701 33.6416C176.701 33.4365 176.758 33.2633 176.872 33.1221C176.986 32.9808 177.157 32.9102 177.384 32.9102C177.612 32.9102 177.783 32.9808 177.897 33.1221C178.016 33.2633 178.075 33.4365 178.075 33.6416C178.075 33.8376 178.016 34.0062 177.897 34.1475C177.783 34.2842 177.612 34.3525 177.384 34.3525C177.157 34.3525 176.986 34.2842 176.872 34.1475C176.758 34.0062 176.701 33.8376 176.701 33.6416ZM183.369 41.7354V37.7227C183.369 37.431 183.324 37.1963 183.233 37.0186C183.146 36.8408 183.014 36.7109 182.836 36.6289C182.663 36.5469 182.444 36.5059 182.18 36.5059C181.925 36.5059 181.704 36.5583 181.517 36.6631C181.335 36.7679 181.193 36.9069 181.093 37.0801C180.997 37.2533 180.949 37.4447 180.949 37.6543H179.74C179.74 37.39 179.796 37.1279 179.91 36.8682C180.029 36.6084 180.198 36.3737 180.416 36.1641C180.635 35.9499 180.897 35.7812 181.202 35.6582C181.512 35.5306 181.859 35.4668 182.241 35.4668C182.697 35.4668 183.101 35.542 183.451 35.6924C183.802 35.8382 184.078 36.0775 184.279 36.4102C184.479 36.7428 184.579 37.1849 184.579 37.7363V41.3867C184.579 41.6328 184.598 41.8949 184.634 42.1729C184.675 42.4508 184.732 42.6901 184.805 42.8906V43H183.554C183.495 42.8542 183.449 42.6605 183.417 42.4189C183.385 42.1729 183.369 41.945 183.369 41.7354ZM183.561 38.5156L183.574 39.4043H182.734C182.447 39.4043 182.185 39.4362 181.948 39.5C181.715 39.5638 181.515 39.6572 181.346 39.7803C181.177 39.8988 181.047 40.0469 180.956 40.2246C180.87 40.4023 180.826 40.6051 180.826 40.833C180.826 41.1292 180.867 41.3662 180.949 41.5439C181.032 41.7171 181.155 41.8424 181.319 41.9199C181.483 41.9974 181.69 42.0361 181.941 42.0361C182.246 42.0361 182.515 41.9655 182.747 41.8242C182.98 41.6829 183.16 41.512 183.287 41.3115C183.42 41.111 183.481 40.9242 183.472 40.751L183.739 41.3184C183.72 41.4961 183.661 41.6898 183.561 41.8994C183.465 42.1045 183.331 42.3027 183.158 42.4941C182.984 42.681 182.779 42.8359 182.542 42.959C182.31 43.0775 182.048 43.1367 181.756 43.1367C181.328 43.1367 180.952 43.0547 180.628 42.8906C180.309 42.7266 180.061 42.485 179.883 42.166C179.705 41.847 179.616 41.4528 179.616 40.9834C179.616 40.6279 179.678 40.2998 179.801 39.999C179.924 39.6982 180.106 39.4385 180.348 39.2197C180.589 38.9964 180.893 38.8232 181.257 38.7002C181.626 38.5771 182.052 38.5156 182.535 38.5156H183.561ZM187.529 37.1826V43H186.319V35.6035H187.461L187.529 37.1826ZM187.235 39.0215L186.743 39.001C186.739 38.4951 186.795 38.028 186.914 37.5996C187.037 37.1667 187.21 36.7907 187.434 36.4717C187.661 36.1527 187.933 35.9066 188.247 35.7334C188.561 35.5557 188.91 35.4668 189.293 35.4668C189.594 35.4668 189.867 35.5169 190.113 35.6172C190.359 35.7129 190.569 35.8678 190.742 36.082C190.915 36.2962 191.047 36.5742 191.139 36.916C191.234 37.2533 191.282 37.6657 191.282 38.1533V43H190.072V38.1396C190.072 37.7523 190.029 37.4424 189.942 37.21C189.86 36.973 189.733 36.8021 189.559 36.6973C189.391 36.5879 189.177 36.5332 188.917 36.5332C188.68 36.5332 188.459 36.5993 188.254 36.7314C188.049 36.8636 187.869 37.0459 187.714 37.2783C187.563 37.5107 187.445 37.7773 187.358 38.0781C187.276 38.3743 187.235 38.6888 187.235 39.0215ZM194.259 35.6035V43H193.056V35.6035H194.259ZM192.988 33.6416C192.988 33.4365 193.045 33.2633 193.159 33.1221C193.273 32.9808 193.444 32.9102 193.671 32.9102C193.899 32.9102 194.07 32.9808 194.184 33.1221C194.303 33.2633 194.362 33.4365 194.362 33.6416C194.362 33.8376 194.303 34.0062 194.184 34.1475C194.07 34.2842 193.899 34.3525 193.671 34.3525C193.444 34.3525 193.273 34.2842 193.159 34.1475C193.045 34.0062 192.988 33.8376 192.988 33.6416ZM199.622 41.1064C199.622 40.9196 199.577 40.7555 199.486 40.6143C199.394 40.473 199.244 40.3363 199.034 40.2041C198.829 40.0719 198.551 39.9307 198.2 39.7803C197.859 39.639 197.551 39.5 197.278 39.3633C197.009 39.222 196.781 39.0693 196.594 38.9053C196.407 38.7412 196.264 38.5521 196.163 38.3379C196.068 38.1191 196.02 37.8617 196.02 37.5654C196.02 37.2692 196.074 36.9958 196.184 36.7451C196.298 36.4899 196.457 36.2666 196.662 36.0752C196.867 35.8838 197.113 35.7357 197.401 35.6309C197.688 35.5215 198.009 35.4668 198.364 35.4668C198.87 35.4668 199.301 35.5648 199.656 35.7607C200.012 35.9567 200.283 36.2256 200.47 36.5674C200.661 36.9046 200.757 37.2852 200.757 37.709H199.554C199.554 37.5039 199.508 37.3102 199.417 37.1279C199.326 36.9456 199.192 36.7975 199.014 36.6836C198.836 36.5651 198.62 36.5059 198.364 36.5059C198.096 36.5059 197.877 36.5537 197.708 36.6494C197.54 36.7451 197.417 36.8704 197.339 37.0254C197.266 37.1758 197.23 37.3421 197.23 37.5244C197.23 37.6611 197.248 37.7796 197.284 37.8799C197.325 37.9756 197.394 38.0667 197.489 38.1533C197.585 38.2354 197.715 38.3219 197.879 38.4131C198.048 38.4997 198.262 38.5999 198.522 38.7139C199.023 38.9098 199.445 39.1081 199.786 39.3086C200.128 39.5091 200.388 39.7438 200.566 40.0127C200.743 40.2816 200.832 40.6143 200.832 41.0107C200.832 41.3343 200.773 41.6283 200.654 41.8926C200.541 42.1523 200.376 42.3757 200.162 42.5625C199.948 42.7493 199.691 42.8929 199.39 42.9932C199.094 43.0889 198.761 43.1367 198.392 43.1367C197.836 43.1367 197.364 43.0273 196.977 42.8086C196.594 42.5853 196.302 42.2959 196.102 41.9404C195.906 41.5804 195.808 41.1953 195.808 40.7852H197.018C197.031 41.1315 197.109 41.4004 197.25 41.5918C197.396 41.7832 197.571 41.9154 197.777 41.9883C197.982 42.0612 198.187 42.0977 198.392 42.0977C198.661 42.0977 198.886 42.0589 199.069 41.9814C199.251 41.8994 199.388 41.7832 199.479 41.6328C199.574 41.4824 199.622 41.307 199.622 41.1064ZM204.978 35.6035V36.5742H201.526V35.6035H204.978ZM202.654 33.8057H203.864V41.168C203.864 41.4186 203.894 41.6077 203.953 41.7354C204.017 41.863 204.097 41.9473 204.192 41.9883C204.288 42.0293 204.39 42.0498 204.5 42.0498C204.582 42.0498 204.673 42.0407 204.773 42.0225C204.874 41.9997 204.942 41.9814 204.978 41.9678L204.972 43C204.889 43.0319 204.78 43.0615 204.643 43.0889C204.507 43.1208 204.334 43.1367 204.124 43.1367C203.864 43.1367 203.623 43.0752 203.399 42.9521C203.176 42.8291 202.996 42.624 202.859 42.3369C202.722 42.0452 202.654 41.6533 202.654 41.1611V33.8057ZM209.904 41.7354V37.7227C209.904 37.431 209.858 37.1963 209.767 37.0186C209.68 36.8408 209.548 36.7109 209.371 36.6289C209.197 36.5469 208.979 36.5059 208.714 36.5059C208.459 36.5059 208.238 36.5583 208.051 36.6631C207.869 36.7679 207.728 36.9069 207.627 37.0801C207.532 37.2533 207.484 37.4447 207.484 37.6543H206.274C206.274 37.39 206.331 37.1279 206.445 36.8682C206.563 36.6084 206.732 36.3737 206.951 36.1641C207.169 35.9499 207.431 35.7812 207.737 35.6582C208.047 35.5306 208.393 35.4668 208.776 35.4668C209.232 35.4668 209.635 35.542 209.986 35.6924C210.337 35.8382 210.612 36.0775 210.813 36.4102C211.013 36.7428 211.114 37.1849 211.114 37.7363V41.3867C211.114 41.6328 211.132 41.8949 211.168 42.1729C211.209 42.4508 211.266 42.6901 211.339 42.8906V43H210.088C210.029 42.8542 209.984 42.6605 209.952 42.4189C209.92 42.1729 209.904 41.945 209.904 41.7354ZM210.095 38.5156L210.109 39.4043H209.268C208.981 39.4043 208.719 39.4362 208.482 39.5C208.249 39.5638 208.049 39.6572 207.88 39.7803C207.712 39.8988 207.582 40.0469 207.491 40.2246C207.404 40.4023 207.361 40.6051 207.361 40.833C207.361 41.1292 207.402 41.3662 207.484 41.5439C207.566 41.7171 207.689 41.8424 207.853 41.9199C208.017 41.9974 208.224 42.0361 208.475 42.0361C208.78 42.0361 209.049 41.9655 209.282 41.8242C209.514 41.6829 209.694 41.512 209.822 41.3115C209.954 41.111 210.015 40.9242 210.006 40.751L210.273 41.3184C210.255 41.4961 210.195 41.6898 210.095 41.8994C209.999 42.1045 209.865 42.3027 209.692 42.4941C209.519 42.681 209.314 42.8359 209.077 42.959C208.844 43.0775 208.582 43.1367 208.291 43.1367C207.862 43.1367 207.486 43.0547 207.163 42.8906C206.844 42.7266 206.595 42.485 206.417 42.166C206.24 41.847 206.151 41.4528 206.151 40.9834C206.151 40.6279 206.212 40.2998 206.335 39.999C206.458 39.6982 206.641 39.4385 206.882 39.2197C207.124 38.9964 207.427 38.8232 207.791 38.7002C208.161 38.5771 208.587 38.5156 209.07 38.5156H210.095Z" fill="#CCCCC0"/>
</svg>
